0
SECTION
2
HEADER
9
$INSUNITS
70
4
0
ENDSEC
0
SECTION
2
TABLES
0
TABLE
2
LTYPE
0
LTYPE
72
65
70
64
2
CONTINUOUS
3
______
73
0
40
0
0
ENDTAB
0
TABLE
2
LAYER
0
ENDTAB
0
ENDSEC
0
SECTION
2
ENTITIES
0
LINE
8
front_outsideCutPath
10
0
20
93
11
0
21
68.3125
0
LINE
8
front_outsideCutPath
10
0
20
68.3125
11
5
21
68.3125
0
LINE
8
front_outsideCutPath
10
5
20
68.3125
11
5
21
27.6875
0
LINE
8
front_outsideCutPath
10
5
20
27.6875
11
0
21
27.6875
0
LINE
8
front_outsideCutPath
10
0
20
27.6875
11
0
21
3
0
LINE
8
front_outsideCutPath
10
0
20
3
11
55.3125
21
3
0
LINE
8
front_outsideCutPath
10
55.3125
20
3
11
55.3125
21
8
0
LINE
8
front_outsideCutPath
10
55.3125
20
8
11
95.9375
21
8
0
LINE
8
front_outsideCutPath
10
95.9375
20
8
11
95.9375
21
3
0
LINE
8
front_outsideCutPath
10
95.9375
20
3
11
136.5625
21
3
0
LINE
8
front_outsideCutPath
10
136.5625
20
3
11
136.5625
21
8
0
LINE
8
front_outsideCutPath
10
136.5625
20
8
11
177.1875
21
8
0
LINE
8
front_outsideCutPath
10
177.1875
20
8
11
177.1875
21
3
0
LINE
8
front_outsideCutPath
10
177.1875
20
3
11
217.8125
21
3
0
LINE
8
front_outsideCutPath
10
217.8125
20
3
11
217.8125
21
8
0
LINE
8
front_outsideCutPath
10
217.8125
20
8
11
258.4375
21
8
0
LINE
8
front_outsideCutPath
10
258.4375
20
8
11
258.4375
21
3
0
LINE
8
front_outsideCutPath
10
258.4375
20
3
11
299.0625
21
3
0
LINE
8
front_outsideCutPath
10
299.0625
20
3
11
299.0625
21
8
0
LINE
8
front_outsideCutPath
10
299.0625
20
8
11
339.6875
21
8
0
LINE
8
front_outsideCutPath
10
339.6875
20
8
11
339.6875
21
3
0
LINE
8
front_outsideCutPath
10
339.6875
20
3
11
380.3125
21
3
0
LINE
8
front_outsideCutPath
10
380.3125
20
3
11
395
21
3
0
LINE
8
front_outsideCutPath
10
395
20
3
11
395
21
27.6875
0
LINE
8
front_outsideCutPath
10
395
20
27.6875
11
390
21
27.6875
0
LINE
8
front_outsideCutPath
10
390
20
27.6875
11
390
21
68.3125
0
LINE
8
front_outsideCutPath
10
390
20
68.3125
11
395
21
68.3125
0
LINE
8
front_outsideCutPath
10
395
20
68.3125
11
395
21
93
0
LINE
8
front_outsideCutPath
10
395
20
93
11
0
21
93
0
LINE
8
front_labelLayer
10
182.5893554
20
50.8346632
11
182.5893554
21
49.7008742
0
LINE
8
front_labelLayer
10
182.5893554
20
49.7008742
11
180.137207
21
49.7008742
0
LINE
8
front_labelLayer
10
180.137207
20
49.7008742
11
180.137207
21
41.2018507
0
LINE
8
front_labelLayer
10
180.137207
20
41.2018507
11
178.6782226
21
41.2018507
0
LINE
8
front_labelLayer
10
178.6782226
20
41.2018507
11
178.6782226
21
49.7008742
0
LINE
8
front_labelLayer
10
178.6782226
20
49.7008742
11
176.9555664
21
49.7008742
0
LINE
8
front_labelLayer
10
176.9555664
20
49.7008742
11
176.9555664
21
50.3600539
0
LINE
8
front_labelLayer
10
176.9555664
20
50.3600539
11
178.6782226
21
50.8873976
0
LINE
8
front_labelLayer
10
178.6782226
20
50.8873976
11
178.6782226
21
51.4235304
0
LINE
8
front_labelLayer
10
183.5737304
20
54.6666945
11
183.1958008
21
53.4977492
0
LINE
8
front_labelLayer
10
180.137207
20
51.4586867
11
180.137207
21
50.8346632
0
LINE
8
front_labelLayer
10
180.137207
20
50.8346632
11
182.5893554
21
50.8346632
0
ARC
8
front_labelLayer
10
184.5909745
20
51.4915066
40
5.9131426
50
167.5775936
51
180.6586736
0
ARC
8
front_labelLayer
10
181.810422
20
52.139771
40
3.0584346
50
141.7433891
51
168.232212
0
ARC
8
front_labelLayer
10
181.3576913
20
52.3760625
40
2.5583779
50
98.2551505
51
139.6203374
0
ARC
8
front_labelLayer
10
181.755196
20
50.5397391
40
4.4346462
50
89.6696889
51
99.931425
0
ARC
8
front_labelLayer
10
181.7563048
20
50.2761028
40
4.6982726
50
81.5641003
51
89.7017445
0
ARC
8
front_labelLayer
10
181.4259999
20
47.9717382
40
7.026171
50
75.9739978
51
81.6564571
0
ARC
8
front_labelLayer
10
180.8591209
20
45.6204883
40
9.4447315
50
73.2964113
51
76.0945751
0
ARC
8
front_labelLayer
10
181.0019086
20
46.7611051
40
7.0848809
50
71.9613609
51
76.5917932
0
ARC
8
front_labelLayer
10
181.5515765
20
49.092818
40
4.6892671
50
76.5183715
51
83.0216717
0
ARC
8
front_labelLayer
10
181.7430416
20
50.6325559
40
3.1376749
50
83.0760516
51
89.792689
0
ARC
8
front_labelLayer
10
181.7367398
20
51.8026973
40
1.9675921
50
89.485892
51
103.4197673
0
ARC
8
front_labelLayer
10
181.5593473
20
52.4842165
40
1.263593
50
102.7677312
51
144.3380403
0
ARC
8
front_labelLayer
10
181.9167189
20
52.2542802
40
1.6881377
50
145.0688538
51
162.1801954
0
ARC
8
front_labelLayer
10
183.1420449
20
51.84202
40
2.9808901
50
161.8437903
51
171.7846869
0
ARC
8
front_labelLayer
10
185.1405355
20
51.5418538
40
5.0017775
50
171.6527858
51
178.4383629
0
ARC
8
front_labelLayer
10
187.0259382
20
51.4614662
40
6.8887318
50
178.1973579
51
180.0231178
0
LINE
8
front_labelLayer
10
189.8930664
20
50.9049757
11
189.6909179
21
49.5514601
0
LINE
8
front_labelLayer
10
185.8061523
20
46.3698195
11
185.8061523
21
41.2018507
0
LINE
8
front_labelLayer
10
185.8061523
20
41.2018507
11
184.3471679
21
41.2018507
0
LINE
8
front_labelLayer
10
184.3471679
20
41.2018507
11
184.3471679
21
50.8346632
0
LINE
8
front_labelLayer
10
184.3471679
20
50.8346632
11
185.5512695
21
50.8346632
0
LINE
8
front_labelLayer
10
185.5512695
20
50.8346632
11
185.7182617
21
49.0504836
0
LINE
8
front_labelLayer
10
185.7182617
20
49.0504836
11
185.7885742
21
49.0504836
0
ARC
8
front_labelLayer
10
188.7566746
20
44.3124812
40
6.6979801
50
84.9923003
51
90.1281023
0
ARC
8
front_labelLayer
10
188.9175275
20
46.1146796
40
4.8886207
50
78.4891794
51
85.0265903
0
ARC
8
front_labelLayer
10
188.2931938
20
43.2750504
40
6.4301595
50
77.445389
51
81.6360274
0
ARC
8
front_labelLayer
10
188.5733547
20
45.2061693
40
4.4788291
50
81.5884226
51
87.1916898
0
ARC
8
front_labelLayer
10
188.6341942
20
46.2612432
40
3.4220536
50
87.3436084
51
89.9659067
0
ARC
8
front_labelLayer
10
188.6200616
20
47.1553598
40
2.5279879
50
89.6335367
51
137.0880802
0
ARC
8
front_labelLayer
10
189.2404895
20
46.4576746
40
3.4585592
50
135.6209221
51
138.8377222
0
ARC
8
front_labelLayer
10
189.1495648
20
46.5464241
40
3.3316996
50
138.9575665
51
174.5422296
0
ARC
8
front_labelLayer
10
190.2345936
20
46.3766443
40
4.4284466
50
173.6907304
51
180.0882999
0
ARC
8
front_labelLayer
10
190.081222
20
46.6320252
40
4.9270444
50
139.4139444
51
150.603287
0
ARC
8
front_labelLayer
10
189.1977941
20
47.3890287
40
3.7636444
50
124.2321387
51
139.4161072
0
ARC
8
front_labelLayer
10
188.7254382
20
48.1020491
40
2.9084408
50
89.6796604
51
124.440568
0
ARC
8
front_labelLayer
10
192.4732008
20
45.9762403
40
7.5362478
50
349.1761857
51
0.3862637
0
ARC
8
front_labelLayer
10
195.0104714
20
45.4704302
40
4.949173
50
330.2507133
51
349.4116406
0
ARC
8
front_labelLayer
10
195.7913261
20
45.0645718
40
4.0699932
50
318.143968
51
329.7566355
0
ARC
8
front_labelLayer
10
195.9322524
20
44.9516328
40
3.8896806
50
278.8959145
51
317.9979173
0
ARC
8
front_labelLayer
10
195.5691251
20
46.6914163
40
5.6654004
50
269.7502873
51
279.8033087
0
ARC
8
front_labelLayer
10
195.5102335
20
45.7111581
40
4.6852134
50
253.5437049
51
270.418238
0
ARC
8
front_labelLayer
10
195.3542696
20
45.1078502
40
4.0624933
50
238.8115404
51
253.2428413
0
ARC
8
front_labelLayer
10
195.3039363
20
45.006633
40
3.9498509
50
207.7946989
51
238.6758053
0
ARC
8
front_labelLayer
10
196.0262973
20
45.4490319
40
4.7954714
50
205.6560253
51
208.4460689
0
ARC
8
front_labelLayer
10
196.5825142
20
45.6807808
40
5.3972849
50
188.9102436
51
205.3171388
0
ARC
8
front_labelLayer
10
198.4573419
20
45.9983165
40
7.298707
50
179.774469
51
189.0932874
0
ARC
8
front_labelLayer
10
198.733908
20
46.0783555
40
7.5753904
50
169.2442967
51
180.3880775
0
ARC
8
front_labelLayer
10
196.1613646
20
46.586854
40
4.9531832
50
150.7111472
51
169.4695426
0
ARC
8
front_labelLayer
10
195.3401239
20
47.0085921
40
4.0307495
50
138.1759298
51
150.2287456
0
ARC
8
front_labelLayer
10
195.2035232
20
47.1134174
40
3.8590748
50
99.1759393
51
137.9832718
0
ARC
8
front_labelLayer
10
195.5795157
20
45.343953
40
5.6665533
50
89.7326454
51
100.0759818
0
ARC
8
front_labelLayer
10
195.6546624
20
46.1081258
40
4.9025606
50
73.5222838
51
90.5692246
0
ARC
8
front_labelLayer
10
195.9421687
20
47.1527144
40
3.8193795
50
41.1445673
51
73.2133872
0
ARC
8
front_labelLayer
10
195.3933411
20
46.6810051
40
4.5430453
50
13.5014436
51
41.0703389
0
ARC
8
front_labelLayer
10
193.2729601
20
46.1261301
40
6.7345211
50
1.1277231
51
13.8800035
0
ARC
8
front_labelLayer
10
191.4458379
20
46.0282492
40
8.5634395
50
359.9919502
51
1.5418968
0
ARC
8
front_labelLayer
10
200.0585592
20
45.9891289
40
7.3882463
50
179.7059517
51
187.9160916
0
ARC
8
front_labelLayer
10
197.348796
20
45.5998732
40
4.650712
50
187.7639357
51
200.0976923
0
ARC
8
front_labelLayer
10
195.8559844
20
45.0529048
40
3.0608505
50
200.0845948
51
216.9131603
0
ARC
8
front_labelLayer
10
195.310862
20
44.6636621
40
2.3912738
50
217.3009596
51
261.7099029
0
ARC
8
front_labelLayer
10
195.563927
20
45.8712735
40
3.6235581
50
260.5033407
51
270.2476612
0
ARC
8
front_labelLayer
10
195.6122292
20
45.636434
40
3.388842
50
269.4481511
51
284.7255753
0
ARC
8
front_labelLayer
10
195.8805032
20
44.6414934
40
2.3583975
50
284.5662359
51
322.6333794
0
ARC
8
front_labelLayer
10
195.2532612
20
45.0946471
40
3.1320016
50
323.0089342
51
342.639046
0
ARC
8
front_labelLayer
10
193.4592364
20
45.6809878
40
5.019315
50
342.3615507
51
353.7537764
0
ARC
8
front_labelLayer
10
190.8124241
20
46.0000279
40
7.6851818
50
353.5363078
51
0.2014305
0
ARC
8
front_labelLayer
10
191.2179463
20
46.0642026
40
7.2797071
50
359.7075537
51
7.8972679
0
ARC
8
front_labelLayer
10
193.8839727
20
46.4464024
40
4.5864683
50
7.7439844
51
20.0690095
0
ARC
8
front_labelLayer
10
195.3695921
20
46.9915679
40
3.003982
50
20.0257089
51
37.4350472
0
ARC
8
front_labelLayer
10
195.8625098
20
47.3413346
40
2.4000743
50
37.9577678
51
80.4006153
0
ARC
8
front_labelLayer
10
195.5824012
20
46.0915109
40
3.6797322
50
79.3453625
51
90.3174798
0
ARC
8
front_labelLayer
10
195.5305348
20
46.2991165
40
3.4722129
50
89.4805859
51
103.8804965
0
ARC
8
front_labelLayer
10
195.2387794
20
47.4101211
40
2.3237201
50
103.4685178
51
142.3118975
0
ARC
8
front_labelLayer
10
195.8059785
20
47.0112263
40
3.0166031
50
142.9025812
51
162.3749493
0
ARC
8
front_labelLayer
10
197.5932169
20
46.4156352
40
4.9003542
50
162.0653252
51
173.1674855
0
ARC
8
front_labelLayer
10
200.3799865
20
46.0601977
40
7.7096478
50
173.0086077
51
180.246374
0
LINE
8
front_labelLayer
10
210.6176758
20
41.2018507
11
209.1586914
21
41.2018507
0
LINE
8
front_labelLayer
10
209.1586914
20
41.2018507
11
209.1586914
21
47.4332961
0
LINE
8
front_labelLayer
10
204.0258789
20
46.2555617
11
204.0258789
21
41.2018507
0
LINE
8
front_labelLayer
10
204.0258789
20
41.2018507
11
202.5668945
21
41.2018507
0
LINE
8
front_labelLayer
10
202.5668945
20
41.2018507
11
202.5668945
21
50.8346632
0
LINE
8
front_labelLayer
10
202.5668945
20
50.8346632
11
203.7534179
21
50.8346632
0
LINE
8
front_labelLayer
10
203.7534179
20
50.8346632
11
203.9907226
21
49.5163039
0
LINE
8
front_labelLayer
10
203.9907226
20
49.5163039
11
204.0610351
21
49.5163039
0
LINE
8
front_labelLayer
10
210.6176758
20
47.4860304
11
210.6176758
21
41.2018507
0
ARC
8
front_labelLayer
10
205.0345851
20
47.456948
40
4.1241741
50
359.67141
51
8.6877393
0
ARC
8
front_labelLayer
10
206.5631126
20
47.6993631
40
2.5765829
50
8.4931487
51
22.6579776
0
ARC
8
front_labelLayer
10
207.3397239
20
48.0220993
40
1.7355828
50
22.7024044
51
42.3419863
0
ARC
8
front_labelLayer
10
207.427015
20
48.0613661
40
1.6448838
50
43.3790737
51
71.5386348
0
ARC
8
front_labelLayer
10
207.1005792
20
47.1492206
40
2.6135415
50
71.0828169
51
84.3691335
0
ARC
8
front_labelLayer
10
206.9540436
20
45.9033406
40
3.8678597
50
84.0197742
51
90.151036
0
ARC
8
front_labelLayer
10
206.9125061
20
45.3556092
40
4.4156887
50
89.5933239
51
100.3717683
0
ARC
8
front_labelLayer
10
206.6004528
20
46.9928604
40
2.7490364
50
100.1176447
51
118.1602699
0
ARC
8
front_labelLayer
10
206.2859809
20
47.6095113
40
2.0570123
50
118.5439261
51
139.1927031
0
ARC
8
front_labelLayer
10
206.56018
20
47.4255189
40
2.3851333
50
140.1518942
51
160.3146568
0
ARC
8
front_labelLayer
10
208.2159804
20
46.8053253
40
4.1531608
50
159.9534308
51
171.3801207
0
ARC
8
front_labelLayer
10
210.9207315
20
46.3705424
40
6.8925683
50
171.176559
51
178.3217805
0
ARC
8
front_labelLayer
10
213.372593
20
46.2594208
40
9.3467149
50
178.0810646
51
180.0236566
0
ARC
8
front_labelLayer
10
206.5568498
20
47.9356222
40
2.9542589
50
116.9442881
51
147.6525712
0
ARC
8
front_labelLayer
10
206.8643694
20
47.4212651
40
3.5523631
50
115.8071558
51
117.6067199
0
ARC
8
front_labelLayer
10
207.0215545
20
47.054762
40
3.9507836
50
94.322666
51
115.5454364
0
ARC
8
front_labelLayer
10
207.1161196
20
46.2331794
40
4.7772665
50
89.9579113
51
94.7109047
0
ARC
8
front_labelLayer
10
207.1552023
20
45.2502397
40
5.7603146
50
80.5585401
51
90.3538386
0
ARC
8
front_labelLayer
10
207.5151877
20
47.3354073
40
3.6443646
50
65.1094082
51
80.7638412
0
ARC
8
front_labelLayer
10
207.9359917
20
48.2674729
40
2.6217861
50
46.558439
51
64.8782549
0
ARC
8
front_labelLayer
10
207.9696663
20
48.3645595
40
2.5284926
50
19.3848905
51
45.5996958
0
ARC
8
front_labelLayer
10
206.5068641
20
47.8156905
40
4.0906723
50
6.9633463
51
19.8363454
0
ARC
8
front_labelLayer
10
204.25074
20
47.5123518
40
6.36699
50
359.7631363
51
7.2115493
0
LINE
8
front_labelLayer
10
218.0444336
20
42.4059523
11
218.0444336
21
41.2897414
0
LINE
8
front_labelLayer
10
213.7202148
20
43.9704054
11
213.7202148
21
49.7008742
0
LINE
8
front_labelLayer
10
213.7202148
20
49.7008742
11
212.340332
21
49.7008742
0
LINE
8
front_labelLayer
10
212.340332
20
49.7008742
11
212.340332
21
50.4039992
0
LINE
8
front_labelLayer
10
212.340332
20
50.4039992
11
213.7202148
21
51.0104445
0
LINE
8
front_labelLayer
10
213.7202148
20
51.0104445
11
214.3354492
21
53.0670851
0
LINE
8
front_labelLayer
10
214.3354492
20
53.0670851
11
215.1791992
21
53.0670851
0
LINE
8
front_labelLayer
10
215.1791992
20
53.0670851
11
215.1791992
21
50.8346632
0
LINE
8
front_labelLayer
10
215.1791992
20
50.8346632
11
217.9741211
21
50.8346632
0
LINE
8
front_labelLayer
10
217.9741211
20
50.8346632
11
217.9741211
21
49.7008742
0
LINE
8
front_labelLayer
10
217.9741211
20
49.7008742
11
215.1791992
21
49.7008742
0
LINE
8
front_labelLayer
10
215.1791992
20
49.7008742
11
215.1791992
21
44.0319289
0
ARC
8
front_labelLayer
10
216.7360783
20
47.0216847
40
4.7915241
50
269.8803734
51
278.3028161
0
ARC
8
front_labelLayer
10
216.7816977
20
46.6489215
40
4.4160888
50
278.4155319
51
279.0081225
0
ARC
8
front_labelLayer
10
216.2440887
20
50.0834037
40
7.8923895
50
278.9589452
51
280.510415
0
ARC
8
front_labelLayer
10
216.7564362
20
47.3343163
40
5.0959678
50
280.484797
51
282.6268666
0
ARC
8
front_labelLayer
10
217.2057875
20
45.3379897
40
3.049696
50
282.5876995
51
285.5795307
0
ARC
8
front_labelLayer
10
217.431677
20
44.5072777
40
2.188844
50
285.7239997
51
286.2569388
0
ARC
8
front_labelLayer
10
217.4310378
20
42.587107
40
1.4350651
50
287.9888342
51
295.3048312
0
ARC
8
front_labelLayer
10
217.0849374
20
43.6342071
40
2.5378729
50
283.3068466
51
288.1198731
0
ARC
8
front_labelLayer
10
216.7192729
20
45.1594828
40
4.1063633
50
280.0069965
51
283.3735444
0
ARC
8
front_labelLayer
10
216.4749861
20
46.4850152
40
5.4541887
50
279.1861115
51
280.1145117
0
ARC
8
front_labelLayer
10
216.3244447
20
47.3413516
40
6.3235865
50
275.5260369
51
279.2939649
0
ARC
8
front_labelLayer
10
216.4936694
20
45.5737737
40
4.5479275
50
270.8932588
51
275.5484126
0
ARC
8
front_labelLayer
10
216.5149159
20
44.7686287
40
3.7425592
50
270.00338
51
270.7601914
0
ARC
8
front_labelLayer
10
216.4562622
20
44.8362694
40
3.8106547
50
253.7847993
51
270.8852531
0
ARC
8
front_labelLayer
10
216.0048016
20
43.2966146
40
2.2061823
50
190.3817746
51
253.8772315
0
ARC
8
front_labelLayer
10
218.305899
20
43.918789
40
4.5859747
50
179.3551063
51
192.8477484
0
ARC
8
front_labelLayer
10
218.117045
20
44.0135534
40
2.9379033
50
179.6416345
51
189.7505939
0
ARC
8
front_labelLayer
10
217.0799124
20
43.8285677
40
1.8844353
50
189.5479465
51
205.7873647
0
ARC
8
front_labelLayer
10
216.6536943
20
43.6320252
40
1.4151851
50
206.1294373
51
221.408377
0
ARC
8
front_labelLayer
10
216.6059023
20
43.595762
40
1.3553623
50
221.5949156
51
262.3505058
0
ARC
8
front_labelLayer
10
216.719564
20
44.1802664
40
1.9501062
50
261.3266651
51
270.1912741
0
LINE
8
left_outsideCutPath
10
403
20
93
11
403
21
68.3125
0
LINE
8
left_outsideCutPath
10
403
20
68.3125
11
398
21
68.3125
0
LINE
8
left_outsideCutPath
10
398
20
68.3125
11
398
21
27.6875
0
LINE
8
left_outsideCutPath
10
398
20
27.6875
11
403
21
27.6875
0
LINE
8
left_outsideCutPath
10
403
20
27.6875
11
403
21
3
0
LINE
8
left_outsideCutPath
10
403
20
3
11
472.0625
21
3
0
LINE
8
left_outsideCutPath
10
472.0625
20
3
11
472.0625
21
8
0
LINE
8
left_outsideCutPath
10
472.0625
20
8
11
512.6875
21
8
0
LINE
8
left_outsideCutPath
10
512.6875
20
8
11
512.6875
21
3
0
LINE
8
left_outsideCutPath
10
512.6875
20
3
11
553.3125
21
3
0
LINE
8
left_outsideCutPath
10
553.3125
20
3
11
553.3125
21
8
0
LINE
8
left_outsideCutPath
10
553.3125
20
8
11
593.9375
21
8
0
LINE
8
left_outsideCutPath
10
593.9375
20
8
11
593.9375
21
3
0
LINE
8
left_outsideCutPath
10
593.9375
20
3
11
634.5625
21
3
0
LINE
8
left_outsideCutPath
10
634.5625
20
3
11
634.5625
21
8
0
LINE
8
left_outsideCutPath
10
634.5625
20
8
11
675.1875
21
8
0
LINE
8
left_outsideCutPath
10
675.1875
20
8
11
675.1875
21
3
0
LINE
8
left_outsideCutPath
10
675.1875
20
3
11
715.8125
21
3
0
LINE
8
left_outsideCutPath
10
715.8125
20
3
11
715.8125
21
8
0
LINE
8
left_outsideCutPath
10
715.8125
20
8
11
756.4375
21
8
0
LINE
8
left_outsideCutPath
10
756.4375
20
8
11
756.4375
21
3
0
LINE
8
left_outsideCutPath
10
756.4375
20
3
11
797.0625
21
3
0
LINE
8
left_outsideCutPath
10
797.0625
20
3
11
797.0625
21
8
0
LINE
8
left_outsideCutPath
10
797.0625
20
8
11
837.6875
21
8
0
LINE
8
left_outsideCutPath
10
837.6875
20
8
11
837.6875
21
3
0
LINE
8
left_outsideCutPath
10
837.6875
20
3
11
878.3125
21
3
0
LINE
8
left_outsideCutPath
10
878.3125
20
3
11
878.3125
21
8
0
LINE
8
left_outsideCutPath
10
878.3125
20
8
11
918.9375
21
8
0
LINE
8
left_outsideCutPath
10
918.9375
20
8
11
918.9375
21
3
0
LINE
8
left_outsideCutPath
10
918.9375
20
3
11
959.5625
21
3
0
LINE
8
left_outsideCutPath
10
959.5625
20
3
11
988
21
3
0
LINE
8
left_outsideCutPath
10
988
20
3
11
988
21
27.6875
0
LINE
8
left_outsideCutPath
10
988
20
27.6875
11
993
21
27.6875
0
LINE
8
left_outsideCutPath
10
993
20
27.6875
11
993
21
68.3125
0
LINE
8
left_outsideCutPath
10
993
20
68.3125
11
988
21
68.3125
0
LINE
8
left_outsideCutPath
10
988
20
68.3125
11
988
21
93
0
LINE
8
left_outsideCutPath
10
988
20
93
11
403
21
93
0
LINE
8
left_labelLayer
10
684.3686523
20
54.877632
11
684.3686523
21
41.2018507
0
LINE
8
left_labelLayer
10
684.3686523
20
41.2018507
11
682.9096679
21
41.2018507
0
LINE
8
left_labelLayer
10
682.9096679
20
41.2018507
11
682.9096679
21
54.877632
0
LINE
8
left_labelLayer
10
682.9096679
20
54.877632
11
684.3686523
21
54.877632
0
LINE
8
left_labelLayer
10
695.0737304
20
46.6774367
11
695.0737304
21
45.7545851
0
LINE
8
left_labelLayer
10
695.0737304
20
45.7545851
11
688.4379883
21
45.7545851
0
LINE
8
left_labelLayer
10
694.6606445
20
42.9508742
11
694.6606445
21
41.6500929
0
LINE
8
left_labelLayer
10
688.4731445
20
46.9411086
11
693.5092773
21
46.9411086
0
ARC
8
left_labelLayer
10
691.4837661
20
46.6954101
40
5.6695436
50
256.0087811
51
270.4848073
0
ARC
8
left_labelLayer
10
691.0709115
20
45.0926267
40
4.0145146
50
223.5465771
51
256.1956934
0
ARC
8
left_labelLayer
10
691.2986633
20
45.2581599
40
4.2937945
50
194.0877277
51
223.053818
0
ARC
8
left_labelLayer
10
693.3854981
20
45.8288324
40
6.4569325
50
181.3574542
51
194.4919942
0
ARC
8
left_labelLayer
10
695.2602769
20
45.9375137
40
8.3340075
50
179.9887132
51
181.7990878
0
ARC
8
left_labelLayer
10
694.587203
20
45.9905453
40
7.6611059
50
168.9539363
51
180.3843371
0
ARC
8
left_labelLayer
10
692.0851105
20
46.5000133
40
5.107797
50
149.4070918
51
169.185384
0
ARC
8
left_labelLayer
10
691.387961
20
46.8683624
40
4.3203862
50
140.1055636
51
148.906762
0
ARC
8
left_labelLayer
10
690.9597051
20
47.2632017
40
3.7386833
50
92.4762632
51
140.5386368
0
ARC
8
left_labelLayer
10
691.1505486
20
45.8529063
40
5.1575392
50
89.9637842
51
93.9176338
0
ARC
8
left_labelLayer
10
691.1960892
20
46.5656781
40
4.4449675
50
74.212593
51
90.5450076
0
ARC
8
left_labelLayer
10
691.4744913
20
47.591433
40
3.3821803
50
41.2064615
51
74.0232696
0
ARC
8
left_labelLayer
10
690.9472521
20
47.1351459
40
4.079436
50
11.5994191
51
41.1496031
0
ARC
8
left_labelLayer
10
689.1356867
20
46.7173617
40
5.938178
50
359.6147716
51
12.0336545
0
ARC
8
left_labelLayer
10
694.292665
20
45.8715721
40
5.8558454
50
181.1447203
51
190.8006882
0
ARC
8
left_labelLayer
10
692.2267747
20
45.4641225
40
3.750222
50
190.6005761
51
206.0275243
0
ARC
8
left_labelLayer
10
691.3127589
20
45.032016
40
2.7393229
50
206.2950228
51
222.5558116
0
ARC
8
left_labelLayer
10
691.231772
20
44.9896136
40
2.6510939
50
223.0645176
51
258.140141
0
ARC
8
left_labelLayer
10
691.5541904
20
46.3172059
40
4.0168364
50
257.5311915
51
270.4319476
0
ARC
8
left_labelLayer
10
691.5577903
20
50.0061388
40
7.7057014
50
270.1983969
51
292.2090364
0
ARC
8
left_labelLayer
10
691.1875833
20
51.0692595
40
8.8300813
50
291.825526
51
293.1613344
0
ARC
8
left_labelLayer
10
691.1700208
20
49.6832872
40
8.7588049
50
287.9022997
51
293.4861512
0
ARC
8
left_labelLayer
10
691.8054043
20
47.7228982
40
6.6980207
50
281.9935682
51
287.8851389
0
ARC
8
left_labelLayer
10
691.9593862
20
47.1694554
40
6.1247649
50
275.9054489
51
281.6604035
0
ARC
8
left_labelLayer
10
691.6511153
20
50.0469007
40
9.0186629
50
271.9119957
51
275.972682
0
ARC
8
left_labelLayer
10
691.5385955
20
52.9132027
40
11.8871352
50
269.9669482
51
271.9930901
0
ARC
8
left_labelLayer
10
691.1082339
20
46.9129018
40
2.8759993
50
89.4422424
51
106.2089623
0
ARC
8
left_labelLayer
10
690.9352106
20
47.5437715
40
2.221931
50
106.4656988
51
137.9176454
0
ARC
8
left_labelLayer
10
691.4312719
20
47.1081462
40
2.8820687
50
138.0994676
51
160.5866366
0
ARC
8
left_labelLayer
10
692.706395
20
46.6390492
40
4.2406547
50
160.3353335
51
172.5315316
0
ARC
8
left_labelLayer
10
693.9621521
20
46.4378509
40
5.5120298
50
172.1545411
51
174.7615034
0
ARC
8
left_labelLayer
10
688.5376634
20
46.9693513
40
4.9716941
50
359.6745182
51
8.9224645
0
ARC
8
left_labelLayer
10
690.3141627
20
47.2588054
40
3.1718155
50
8.7342284
51
23.2772107
0
ARC
8
left_labelLayer
10
691.1575364
20
47.6128331
40
2.2571993
50
23.4821427
51
39.7072159
0
ARC
8
left_labelLayer
10
691.364698
20
47.767858
40
1.9988288
50
40.0822834
51
80.6243303
0
ARC
8
left_labelLayer
10
691.1514605
20
46.7903847
40
2.9984187
50
79.6468424
51
90.2910268
0
LINE
8
left_labelLayer
10
701.902832
20
50.8346632
11
701.902832
21
49.7008742
0
LINE
8
left_labelLayer
10
701.902832
20
49.7008742
11
699.4506836
21
49.7008742
0
LINE
8
left_labelLayer
10
699.4506836
20
49.7008742
11
699.4506836
21
41.2018507
0
LINE
8
left_labelLayer
10
699.4506836
20
41.2018507
11
697.9916992
21
41.2018507
0
LINE
8
left_labelLayer
10
697.9916992
20
41.2018507
11
697.9916992
21
49.7008742
0
LINE
8
left_labelLayer
10
697.9916992
20
49.7008742
11
696.2690429
21
49.7008742
0
LINE
8
left_labelLayer
10
696.2690429
20
49.7008742
11
696.2690429
21
50.3600539
0
LINE
8
left_labelLayer
10
696.2690429
20
50.3600539
11
697.9916992
21
50.8873976
0
LINE
8
left_labelLayer
10
697.9916992
20
50.8873976
11
697.9916992
21
51.4235304
0
LINE
8
left_labelLayer
10
702.887207
20
54.6666945
11
702.5092773
21
53.4977492
0
LINE
8
left_labelLayer
10
699.4506836
20
51.4586867
11
699.4506836
21
50.8346632
0
LINE
8
left_labelLayer
10
699.4506836
20
50.8346632
11
701.902832
21
50.8346632
0
ARC
8
left_labelLayer
10
703.9044511
20
51.4915066
40
5.9131426
50
167.5775936
51
180.6586736
0
ARC
8
left_labelLayer
10
701.1238986
20
52.139771
40
3.0584346
50
141.7433891
51
168.232212
0
ARC
8
left_labelLayer
10
700.6711679
20
52.3760625
40
2.5583779
50
98.2551505
51
139.6203374
0
ARC
8
left_labelLayer
10
701.0686726
20
50.5397391
40
4.4346462
50
89.6696889
51
99.931425
0
ARC
8
left_labelLayer
10
701.0697813
20
50.2761028
40
4.6982726
50
81.5641003
51
89.7017445
0
ARC
8
left_labelLayer
10
700.7394765
20
47.9717382
40
7.026171
50
75.9739978
51
81.6564571
0
ARC
8
left_labelLayer
10
700.1725975
20
45.6204883
40
9.4447315
50
73.2964113
51
76.0945751
0
ARC
8
left_labelLayer
10
700.3153852
20
46.7611051
40
7.0848809
50
71.9613609
51
76.5917932
0
ARC
8
left_labelLayer
10
700.8650531
20
49.092818
40
4.6892671
50
76.5183715
51
83.0216717
0
ARC
8
left_labelLayer
10
701.0565182
20
50.6325559
40
3.1376749
50
83.0760516
51
89.792689
0
ARC
8
left_labelLayer
10
701.0502163
20
51.8026973
40
1.9675921
50
89.485892
51
103.4197673
0
ARC
8
left_labelLayer
10
700.8728238
20
52.4842165
40
1.263593
50
102.7677312
51
144.3380403
0
ARC
8
left_labelLayer
10
701.2301954
20
52.2542802
40
1.6881377
50
145.0688538
51
162.1801954
0
ARC
8
left_labelLayer
10
702.4555214
20
51.84202
40
2.9808901
50
161.8437903
51
171.7846869
0
ARC
8
left_labelLayer
10
704.4540121
20
51.5418538
40
5.0017775
50
171.6527858
51
178.4383629
0
ARC
8
left_labelLayer
10
706.3394147
20
51.4614662
40
6.8887318
50
178.1973579
51
180.0231178
0
LINE
8
left_labelLayer
10
708.090332
20
42.4059523
11
708.090332
21
41.2897414
0
LINE
8
left_labelLayer
10
703.7661133
20
43.9704054
11
703.7661133
21
49.7008742
0
LINE
8
left_labelLayer
10
703.7661133
20
49.7008742
11
702.3862304
21
49.7008742
0
LINE
8
left_labelLayer
10
702.3862304
20
49.7008742
11
702.3862304
21
50.4039992
0
LINE
8
left_labelLayer
10
702.3862304
20
50.4039992
11
703.7661133
21
51.0104445
0
LINE
8
left_labelLayer
10
703.7661133
20
51.0104445
11
704.3813476
21
53.0670851
0
LINE
8
left_labelLayer
10
704.3813476
20
53.0670851
11
705.2250976
21
53.0670851
0
LINE
8
left_labelLayer
10
705.2250976
20
53.0670851
11
705.2250976
21
50.8346632
0
LINE
8
left_labelLayer
10
705.2250976
20
50.8346632
11
708.0200195
21
50.8346632
0
LINE
8
left_labelLayer
10
708.0200195
20
50.8346632
11
708.0200195
21
49.7008742
0
LINE
8
left_labelLayer
10
708.0200195
20
49.7008742
11
705.2250976
21
49.7008742
0
LINE
8
left_labelLayer
10
705.2250976
20
49.7008742
11
705.2250976
21
44.0319289
0
ARC
8
left_labelLayer
10
706.7819767
20
47.0216847
40
4.7915241
50
269.8803734
51
278.3028161
0
ARC
8
left_labelLayer
10
706.8275961
20
46.6489215
40
4.4160888
50
278.4155319
51
279.0081225
0
ARC
8
left_labelLayer
10
706.2899871
20
50.0834037
40
7.8923895
50
278.9589452
51
280.510415
0
ARC
8
left_labelLayer
10
706.8023347
20
47.3343163
40
5.0959678
50
280.484797
51
282.6268666
0
ARC
8
left_labelLayer
10
707.2516859
20
45.3379897
40
3.049696
50
282.5876995
51
285.5795307
0
ARC
8
left_labelLayer
10
707.4775754
20
44.5072777
40
2.188844
50
285.7239997
51
286.2569388
0
ARC
8
left_labelLayer
10
707.4769363
20
42.587107
40
1.4350651
50
287.9888342
51
295.3048312
0
ARC
8
left_labelLayer
10
707.1308358
20
43.6342071
40
2.5378729
50
283.3068466
51
288.1198731
0
ARC
8
left_labelLayer
10
706.7651714
20
45.1594828
40
4.1063633
50
280.0069965
51
283.3735444
0
ARC
8
left_labelLayer
10
706.5208845
20
46.4850152
40
5.4541887
50
279.1861115
51
280.1145117
0
ARC
8
left_labelLayer
10
706.3703431
20
47.3413516
40
6.3235865
50
275.5260369
51
279.2939649
0
ARC
8
left_labelLayer
10
706.5395679
20
45.5737737
40
4.5479275
50
270.8932588
51
275.5484126
0
ARC
8
left_labelLayer
10
706.5608144
20
44.7686287
40
3.7425592
50
270.00338
51
270.7601914
0
ARC
8
left_labelLayer
10
706.5021606
20
44.8362694
40
3.8106547
50
253.7847993
51
270.8852531
0
ARC
8
left_labelLayer
10
706.0507
20
43.2966146
40
2.2061823
50
190.3817746
51
253.8772315
0
ARC
8
left_labelLayer
10
708.3517975
20
43.918789
40
4.5859747
50
179.3551063
51
192.8477484
0
ARC
8
left_labelLayer
10
708.1629435
20
44.0135534
40
2.9379033
50
179.6416345
51
189.7505939
0
ARC
8
left_labelLayer
10
707.1258108
20
43.8285677
40
1.8844353
50
189.5479465
51
205.7873647
0
ARC
8
left_labelLayer
10
706.6995927
20
43.6320252
40
1.4151851
50
206.1294373
51
221.408377
0
ARC
8
left_labelLayer
10
706.6518007
20
43.595762
40
1.3553623
50
221.5949156
51
262.3505058
0
ARC
8
left_labelLayer
10
706.7654625
20
44.1802664
40
1.9501062
50
261.3266651
51
270.1912741
0
LINE
8
back_outsideCutPath
10
0
20
186
11
0
21
161.3125
0
LINE
8
back_outsideCutPath
10
0
20
161.3125
11
5
21
161.3125
0
LINE
8
back_outsideCutPath
10
5
20
161.3125
11
5
21
120.6875
0
LINE
8
back_outsideCutPath
10
5
20
120.6875
11
0
21
120.6875
0
LINE
8
back_outsideCutPath
10
0
20
120.6875
11
0
21
96
0
LINE
8
back_outsideCutPath
10
0
20
96
11
55.3125
21
96
0
LINE
8
back_outsideCutPath
10
55.3125
20
96
11
55.3125
21
101
0
LINE
8
back_outsideCutPath
10
55.3125
20
101
11
95.9375
21
101
0
LINE
8
back_outsideCutPath
10
95.9375
20
101
11
95.9375
21
96
0
LINE
8
back_outsideCutPath
10
95.9375
20
96
11
136.5625
21
96
0
LINE
8
back_outsideCutPath
10
136.5625
20
96
11
136.5625
21
101
0
LINE
8
back_outsideCutPath
10
136.5625
20
101
11
177.1875
21
101
0
LINE
8
back_outsideCutPath
10
177.1875
20
101
11
177.1875
21
96
0
LINE
8
back_outsideCutPath
10
177.1875
20
96
11
217.8125
21
96
0
LINE
8
back_outsideCutPath
10
217.8125
20
96
11
217.8125
21
101
0
LINE
8
back_outsideCutPath
10
217.8125
20
101
11
258.4375
21
101
0
LINE
8
back_outsideCutPath
10
258.4375
20
101
11
258.4375
21
96
0
LINE
8
back_outsideCutPath
10
258.4375
20
96
11
299.0625
21
96
0
LINE
8
back_outsideCutPath
10
299.0625
20
96
11
299.0625
21
101
0
LINE
8
back_outsideCutPath
10
299.0625
20
101
11
339.6875
21
101
0
LINE
8
back_outsideCutPath
10
339.6875
20
101
11
339.6875
21
96
0
LINE
8
back_outsideCutPath
10
339.6875
20
96
11
380.3125
21
96
0
LINE
8
back_outsideCutPath
10
380.3125
20
96
11
395
21
96
0
LINE
8
back_outsideCutPath
10
395
20
96
11
395
21
120.6875
0
LINE
8
back_outsideCutPath
10
395
20
120.6875
11
390
21
120.6875
0
LINE
8
back_outsideCutPath
10
390
20
120.6875
11
390
21
161.3125
0
LINE
8
back_outsideCutPath
10
390
20
161.3125
11
395
21
161.3125
0
LINE
8
back_outsideCutPath
10
395
20
161.3125
11
395
21
186
0
LINE
8
back_outsideCutPath
10
395
20
186
11
0
21
186
0
LINE
8
back_labelLayer
10
180.2998047
20
135.4893571
11
180.1943359
21
135.4893571
0
LINE
8
back_labelLayer
10
180.1943359
20
135.4893571
11
179.8867188
21
134.2500993
0
LINE
8
back_labelLayer
10
179.8867188
20
134.2500993
11
178.8408203
21
134.2500993
0
LINE
8
back_labelLayer
10
178.8408203
20
134.2500993
11
178.8408203
21
147.9258805
0
LINE
8
back_labelLayer
10
178.8408203
20
147.9258805
11
180.2998047
21
147.9258805
0
LINE
8
back_labelLayer
10
180.2998047
20
147.9258805
11
180.2998047
21
144.6036149
0
LINE
8
back_labelLayer
10
180.2294922
20
142.5997087
11
180.2998047
21
142.5997087
0
ARC
8
back_labelLayer
10
183.3670097
20
139.5821648
40
4.4591649
50
74.2393389
51
90.5623771
0
ARC
8
back_labelLayer
10
183.6618645
20
140.6638551
40
3.3380677
50
38.5631251
51
74.0670332
0
ARC
8
back_labelLayer
10
182.9030737
20
140.0738502
40
4.2991941
50
16.4709182
51
38.4075365
0
ARC
8
back_labelLayer
10
180.7171098
20
139.3883938
40
6.5899078
50
5.1338333
51
16.7973493
0
ARC
8
back_labelLayer
10
177.9575489
20
139.0952486
40
9.3647381
50
359.8779162
51
5.4093813
0
ARC
8
back_labelLayer
10
178.7680333
20
139.0248272
40
8.5543812
50
350.6562914
51
0.3380242
0
ARC
8
back_labelLayer
10
181.7502492
20
138.5175852
40
5.5294029
50
335.8305854
51
350.825498
0
ARC
8
back_labelLayer
10
183.0620556
20
137.9513896
40
4.1008214
50
321.3161425
51
335.5436233
0
ARC
8
back_labelLayer
10
183.5635674
20
137.5427336
40
3.4539233
50
274.06401
51
321.4080969
0
ARC
8
back_labelLayer
10
183.3299271
20
139.0226941
40
4.9483807
50
269.9225978
51
275.5481788
0
ARC
8
back_labelLayer
10
183.2986393
20
138.4996691
40
4.4254194
50
255.7755401
51
270.3185346
0
ARC
8
back_labelLayer
10
183.1723517
20
137.9385849
40
3.8505374
50
245.9801819
51
255.545576
0
ARC
8
back_labelLayer
10
182.9277394
20
137.3697341
40
3.2313864
50
215.5850142
51
245.8361673
0
ARC
8
back_labelLayer
10
149.8806615
20
144.5779046
40
30.419154
50
358.1123394
51
0.0484265
0
ARC
8
back_labelLayer
10
158.3468389
20
144.2936874
40
21.9482094
50
355.7238801
51
358.1258817
0
ARC
8
back_labelLayer
10
162.0346368
20
144.0406947
40
18.2518274
50
355.4717722
51
355.652667
0
ARC
8
back_labelLayer
10
183.0207466
20
140.702323
40
3.3171671
50
95.1835089
51
145.1109045
0
ARC
8
back_labelLayer
10
183.3123118
20
139.0581834
40
4.9829435
50
89.8743183
51
96.8145613
0
ARC
8
back_labelLayer
10
183.0817611
20
138.7196754
40
4.0998736
50
89.5731485
51
100.7324259
0
ARC
8
back_labelLayer
10
182.7782568
20
140.2530876
40
2.5367967
50
100.4469586
51
119.6700643
0
ARC
8
back_labelLayer
10
182.4968145
20
140.7792775
40
1.9403456
50
120.1402845
51
142.4249026
0
ARC
8
back_labelLayer
10
182.9624305
20
140.4712567
40
2.4975204
50
143.3382189
51
161.2560134
0
ARC
8
back_labelLayer
10
184.9095516
20
139.7799608
40
4.5636065
50
160.8926184
51
171.2334535
0
ARC
8
back_labelLayer
10
188.1601155
20
139.2555677
40
7.8561513
50
171.0667883
51
177.8456689
0
ARC
8
back_labelLayer
10
191.5405144
20
139.083644
40
11.2407126
50
177.6176796
51
180.0425583
0
ARC
8
back_labelLayer
10
189.9463743
20
139.0376242
40
9.6466432
50
179.7762577
51
185.7075417
0
ARC
8
back_labelLayer
10
186.1430769
20
138.6457469
40
5.8232399
50
185.5924843
51
194.2050628
0
ARC
8
back_labelLayer
10
183.7066779
20
138.013416
40
3.306202
50
193.9430153
51
208.0218632
0
ARC
8
back_labelLayer
10
182.72091
20
137.511927
40
2.2004883
50
208.5536498
51
217.5605785
0
ARC
8
back_labelLayer
10
182.6406074
20
137.4785294
40
2.116592
50
218.1690622
51
253.8047108
0
ARC
8
back_labelLayer
10
183.033194
20
138.6889169
40
3.3886738
50
253.1382555
51
266.8483068
0
ARC
8
back_labelLayer
10
183.1432842
20
139.9871946
40
4.691199
50
266.3775366
51
270.0510126
0
ARC
8
back_labelLayer
10
183.1785839
20
138.2042999
40
2.9084687
50
269.3868765
51
285.8630654
0
ARC
8
back_labelLayer
10
183.3946644
20
137.4233555
40
2.0982086
50
286.0162882
51
326.8497398
0
ARC
8
back_labelLayer
10
182.3517474
20
138.1142511
40
3.3491966
50
326.7104887
51
343.6661765
0
ARC
8
back_labelLayer
10
180.3994706
20
138.7108038
40
5.3904997
50
343.4171341
51
353.6369296
0
ARC
8
back_labelLayer
10
177.4507423
20
139.060692
40
8.3598663
50
353.4934824
51
0.2205566
0
ARC
8
back_labelLayer
10
177.1907923
20
139.127762
40
8.6198251
50
359.7680915
51
6.3095207
0
ARC
8
back_labelLayer
10
180.4377189
20
139.5003667
40
5.3516342
50
6.1648558
51
16.0396383
0
ARC
8
back_labelLayer
10
182.5293157
20
140.116759
40
3.171184
50
15.7779532
51
32.0151096
0
ARC
8
back_labelLayer
10
183.1815746
20
140.4902844
40
2.420281
50
32.7034262
51
35.5242813
0
ARC
8
back_labelLayer
10
183.420107
20
140.6598253
40
2.1276356
50
35.540832
51
79.8011279
0
ARC
8
back_labelLayer
10
183.1343878
20
139.4451844
40
3.3743231
50
78.6781094
51
90.374972
0
LINE
8
back_labelLayer
10
196.8759766
20
134.2500993
11
195.7949219
21
134.2500993
0
LINE
8
back_labelLayer
10
195.7949219
20
134.2500993
11
195.5048828
21
135.621193
0
LINE
8
back_labelLayer
10
195.5048828
20
135.621193
11
195.4345703
21
135.621193
0
LINE
8
back_labelLayer
10
193.8173828
20
139.971779
11
195.4521484
21
140.0245133
0
LINE
8
back_labelLayer
10
195.4521484
20
140.0245133
11
195.4521484
21
140.6221696
0
LINE
8
back_labelLayer
10
190.6796875
20
142.0987321
11
190.2314453
21
143.214943
0
LINE
8
back_labelLayer
10
196.8759766
20
140.824318
11
196.8759766
21
134.2500993
0
LINE
8
back_labelLayer
10
195.4169922
20
138.1172868
11
195.4169922
21
138.987404
0
LINE
8
back_labelLayer
10
195.4169922
20
138.987404
11
193.9580078
21
138.9258805
0
ARC
8
back_labelLayer
10
190.6875911
20
139.3691663
40
6.0482324
50
314.744521
51
321.7071745
0
ARC
8
back_labelLayer
10
192.1735703
20
137.8592969
40
3.9298002
50
304.8485314
51
314.8530968
0
ARC
8
back_labelLayer
10
192.8873836
20
136.8432534
40
2.6880943
50
294.3932431
51
304.7371486
0
ARC
8
back_labelLayer
10
192.6435118
20
137.4751382
40
3.3645151
50
281.2979267
51
293.7313867
0
ARC
8
back_labelLayer
10
192.3211257
20
139.0375677
40
4.9598366
50
272.9334935
51
281.413934
0
ARC
8
back_labelLayer
10
192.2142622
20
140.6401557
40
6.56584
50
269.9539439
51
273.1491063
0
ARC
8
back_labelLayer
10
192.1773556
20
138.5516341
40
4.4774278
50
258.6719758
51
270.4047436
0
ARC
8
back_labelLayer
10
191.8663476
20
137.0638953
40
2.9576094
50
238.3273103
51
258.9183725
0
ARC
8
back_labelLayer
10
191.6520333
20
136.6729004
40
2.512424
50
227.7689754
51
237.8049871
0
ARC
8
back_labelLayer
10
191.5849857
20
136.5793043
40
2.3980941
50
192.0827545
51
227.452088
0
ARC
8
back_labelLayer
10
192.8213475
20
136.88408
40
3.6710724
50
179.54574
51
192.6949387
0
ARC
8
back_labelLayer
10
191.6727787
20
137.017
40
2.5245235
50
115.4904656
51
182.3568118
0
ARC
8
back_labelLayer
10
192.937087
20
134.6979981
40
5.1638822
50
101.3568154
51
117.0798638
0
ARC
8
back_labelLayer
10
193.9524431
20
129.9531462
40
10.0159582
50
92.4696198
51
101.7064882
0
ARC
8
back_labelLayer
10
194.2442779
20
125.7261869
40
14.2519869
50
91.7164585
51
92.9095361
0
ARC
8
back_labelLayer
10
191.2616805
20
140.6446002
40
4.1905279
50
359.6933116
51
8.0036059
0
ARC
8
back_labelLayer
10
192.8468622
20
140.8755307
40
2.5886456
50
7.827254
51
20.604175
0
ARC
8
back_labelLayer
10
193.7438995
20
141.2186926
40
1.6282357
50
20.4094089
51
41.4479541
0
ARC
8
back_labelLayer
10
193.8764369
20
141.2915438
40
1.4810387
50
42.7295651
51
71.0380189
0
ARC
8
back_labelLayer
10
193.5643961
20
140.4430953
40
2.3849193
50
70.5716491
51
83.9928309
0
ARC
8
back_labelLayer
10
193.4153282
20
139.2322051
40
3.6048249
50
83.6506877
51
90.1753347
0
ARC
8
back_labelLayer
10
193.4414754
20
138.0870303
40
4.7501286
50
90.4484501
51
103.7665572
0
ARC
8
back_labelLayer
10
194.0000601
20
135.7314437
40
7.1709941
50
103.6226388
51
112.4320152
0
ARC
8
back_labelLayer
10
194.9575447
20
133.3138632
40
9.7710789
50
112.2122238
51
115.9641106
0
ARC
8
back_labelLayer
10
193.4242067
20
137.2940082
40
6.7269008
50
106.3568457
51
118.3349953
0
ARC
8
back_labelLayer
10
193.7108507
20
136.408518
40
7.6573194
50
104.5162859
51
106.5489347
0
ARC
8
back_labelLayer
10
193.500612
20
137.2844016
40
6.7567186
50
90.0714381
51
104.6521128
0
ARC
8
back_labelLayer
10
193.5271308
20
137.8792732
40
6.1619408
50
81.5679781
51
90.3249163
0
ARC
8
back_labelLayer
10
193.8834027
20
140.2002895
40
3.8137903
50
68.22736
51
81.7494068
0
ARC
8
back_labelLayer
10
194.3796376
20
141.4349682
40
2.4831257
50
47.8683072
51
68.293411
0
ARC
8
back_labelLayer
10
194.4601762
20
141.5957793
40
2.3103411
50
19.2330928
51
46.6741085
0
ARC
8
back_labelLayer
10
193.1185234
20
141.096681
40
3.741635
50
6.337899
51
19.6815428
0
ARC
8
back_labelLayer
10
191.135207
20
140.8440888
40
5.7408035
50
359.8026784
51
6.6583386
0
ARC
8
back_labelLayer
10
192.5285254
20
139.2953181
40
4.0170068
50
269.5792004
51
282.0413598
0
ARC
8
back_labelLayer
10
192.8215376
20
137.9956389
40
2.6848409
50
281.712095
51
306.4593924
0
ARC
8
back_labelLayer
10
192.9514743
20
137.781956
40
2.4358688
50
306.9880842
51
313.8559458
0
ARC
8
back_labelLayer
10
192.9360072
20
137.777541
40
2.4434429
50
314.1892032
51
347.4269944
0
ARC
8
back_labelLayer
10
191.7120146
20
138.0842671
40
3.7049992
50
346.9177788
51
0.2824459
0
ARC
8
back_labelLayer
10
190.8097415
20
138.1172154
40
4.6072507
50
359.8173867
51
0.0008874
0
ARC
8
back_labelLayer
10
194.3050584
20
128.2187626
40
10.712741
50
91.8564821
51
96.4478381
0
ARC
8
back_labelLayer
10
193.8219469
20
132.3992682
40
6.504435
50
96.3545487
51
102.9953154
0
ARC
8
back_labelLayer
10
193.1661549
20
135.1855391
40
3.6420773
50
102.799558
51
113.2433128
0
ARC
8
back_labelLayer
10
192.6255287
20
136.4785043
40
2.2407425
50
113.5886116
51
121.680516
0
ARC
8
back_labelLayer
10
192.2499324
20
137.0505265
40
1.5568195
50
120.9734094
51
172.4179819
0
ARC
8
back_labelLayer
10
192.9840704
20
136.903885
40
2.3043979
50
171.2121703
51
180.2058191
0
ARC
8
back_labelLayer
10
192.764675
20
136.8783803
40
2.0850587
50
179.5266161
51
192.7787361
0
ARC
8
back_labelLayer
10
192.0593351
20
136.7074028
40
1.3594135
50
192.3264494
51
222.0579856
0
ARC
8
back_labelLayer
10
192.0068637
20
136.6760204
40
1.2994868
50
222.5804399
51
229.2546756
0
ARC
8
back_labelLayer
10
192.1841579
20
136.904281
40
1.5882084
50
229.783695
51
254.2724252
0
ARC
8
back_labelLayer
10
192.4202819
20
137.6911416
40
2.4096552
50
253.9396684
51
266.4533657
0
ARC
8
back_labelLayer
10
192.4956406
20
138.559738
40
3.2813201
50
266.078258
51
270.0590689
0
LINE
8
back_labelLayer
10
206.3066406
20
143.5577165
11
205.8583984
21
142.3184587
0
LINE
8
back_labelLayer
10
206.1660156
20
135.8672868
11
206.1660156
21
134.5752946
0
ARC
8
back_labelLayer
10
203.6849104
20
139.526935
40
5.4528155
50
256.4243811
51
270.4889743
0
ARC
8
back_labelLayer
10
203.2491785
20
137.8263084
40
3.6975045
50
221.7976294
51
256.8020538
0
ARC
8
back_labelLayer
10
203.671136
20
138.1380764
40
4.2201514
50
196.0166714
51
221.1349196
0
ARC
8
back_labelLayer
10
205.7918465
20
138.7862731
40
6.4374989
50
183.5913669
51
196.3539458
0
ARC
8
back_labelLayer
10
208.1675237
20
138.9955672
40
8.8218256
50
179.9388521
51
183.9815133
0
ARC
8
back_labelLayer
10
207.3956486
20
139.0568102
40
8.0501123
50
169.897845
51
180.3688834
0
ARC
8
back_labelLayer
10
204.5932126
20
139.5752196
40
5.2002268
50
153.0875134
51
170.1051421
0
ARC
8
back_labelLayer
10
203.5299247
20
140.0832858
40
4.0222276
50
138.6550291
51
152.6853386
0
ARC
8
back_labelLayer
10
203.3314607
20
140.2279129
40
3.7777594
50
101.4912912
51
138.3133944
0
ARC
8
back_labelLayer
10
203.7870626
20
138.3317481
40
5.7270923
50
89.5891946
51
102.1787795
0
ARC
8
back_labelLayer
10
203.8220955
20
137.4747125
40
6.5839833
50
77.7702394
51
89.9475293
0
ARC
8
back_labelLayer
10
203.6974493
20
136.7870919
40
7.2824423
50
74.6797308
51
77.9578277
0
ARC
8
back_labelLayer
10
204.3706351
20
139.225937
40
4.7524011
50
70.0945587
51
74.7386348
0
ARC
8
back_labelLayer
10
205.010926
20
140.9806497
40
2.8845269
50
63.5034248
51
70.1861713
0
ARC
8
back_labelLayer
10
205.3078797
20
141.6035573
40
2.1945981
50
62.9286525
51
63.1863546
0
ARC
8
back_labelLayer
10
203.461671
20
136.2867314
40
6.4904573
50
68.3294317
51
74.8831467
0
ARC
8
back_labelLayer
10
203.1192603
20
135.0725938
40
7.7518902
50
74.7801967
51
77.4497679
0
ARC
8
back_labelLayer
10
203.4787381
20
136.7599283
40
6.0267809
50
77.2999232
51
81.7345047
0
ARC
8
back_labelLayer
10
203.7409553
20
138.5870365
40
4.1809565
50
81.6910329
51
87.5078723
0
ARC
8
back_labelLayer
10
203.7915434
20
139.5323829
40
3.2343183
50
87.6750054
51
89.9747492
0
ARC
8
back_labelLayer
10
203.7206421
20
139.5312691
40
3.23624
50
88.7193918
51
112.5667684
0
ARC
8
back_labelLayer
10
203.4906856
20
140.2915642
40
2.4471994
50
114.4265692
51
161.6632754
0
ARC
8
back_labelLayer
10
205.7750772
20
139.3974294
40
4.8986213
50
160.141845
51
175.1368223
0
ARC
8
back_labelLayer
10
208.9192204
20
139.0443644
40
8.0618279
50
174.5309762
51
180.1549632
0
ARC
8
back_labelLayer
10
207.9231386
20
138.9860734
40
7.0658109
50
179.7041316
51
188.0743644
0
ARC
8
back_labelLayer
10
205.3781197
20
138.6137093
40
4.4937342
50
187.9315146
51
200.3885289
0
ARC
8
back_labelLayer
10
204.0020071
20
138.1039312
40
3.0262341
50
200.4183425
51
216.6392598
0
ARC
8
back_labelLayer
10
203.4251052
20
137.6915191
40
2.3172442
50
216.9695365
51
261.3103071
0
ARC
8
back_labelLayer
10
203.6797042
20
138.8785034
40
3.5298103
50
260.1359505
51
270.2692065
0
ARC
8
back_labelLayer
10
203.6679505
20
141.4561541
40
6.1074878
50
270.2658513
51
286.2891421
0
ARC
8
back_labelLayer
10
203.2966807
20
142.8407592
40
7.5407161
50
286.0460435
51
292.3654167
0
ARC
8
back_labelLayer
10
204.285459
20
138.2747982
40
4.1500386
50
282.0344206
51
296.9454488
0
ARC
8
back_labelLayer
10
203.8586548
20
140.1982342
40
6.1202127
50
272.598037
51
282.1878513
0
ARC
8
back_labelLayer
10
203.7362618
20
142.0752204
40
8.0009039
50
269.9655082
51
272.8643307
0
LINE
8
back_labelLayer
10
209.8222656
20
139.1807633
11
209.8925781
21
139.1807633
0
LINE
8
back_labelLayer
10
211.0439453
20
140.5870133
11
214.1552734
21
143.8829118
0
LINE
8
back_labelLayer
10
214.1552734
20
143.8829118
11
215.8867188
21
143.8829118
0
LINE
8
back_labelLayer
10
215.8867188
20
143.8829118
11
211.984375
21
139.7784196
0
LINE
8
back_labelLayer
10
211.984375
20
139.7784196
11
216.1591797
21
134.2500993
0
LINE
8
back_labelLayer
10
216.1591797
20
134.2500993
11
214.3925781
21
134.2500993
0
LINE
8
back_labelLayer
10
214.3925781
20
134.2500993
11
210.9912109
21
138.8028337
0
LINE
8
back_labelLayer
10
210.9912109
20
138.8028337
11
209.8925781
21
137.8536149
0
LINE
8
back_labelLayer
10
209.8925781
20
137.8536149
11
209.8925781
21
134.2500993
0
LINE
8
back_labelLayer
10
209.8925781
20
134.2500993
11
208.4511719
21
134.2500993
0
LINE
8
back_labelLayer
10
208.4511719
20
134.2500993
11
208.4511719
21
147.9258805
0
LINE
8
back_labelLayer
10
208.4511719
20
147.9258805
11
209.8925781
21
147.9258805
0
LINE
8
back_labelLayer
10
209.8925781
20
147.9258805
11
209.8925781
21
140.674904
0
ARC
8
back_labelLayer
10
216.9422174
20
134.1907364
40
8.6370008
50
142.3234055
51
144.7075575
0
ARC
8
back_labelLayer
10
221.541568
20
130.6431516
40
14.4455613
50
140.4331182
51
142.3365812
0
ARC
8
back_labelLayer
10
227.5367029
20
125.7080667
40
22.2106479
50
139.2799303
51
140.4702811
0
ARC
8
back_labelLayer
10
234.4652584
20
119.7499814
40
31.3486811
50
138.3417532
51
139.2877378
0
ARC
8
back_labelLayer
10
200.1698503
20
140.6930987
40
9.7227449
50
358.2739671
51
359.8927788
0
ARC
8
back_labelLayer
10
192.6071236
20
140.9038485
40
17.2883964
50
357.5041607
51
358.3307653
0
ARC
8
back_labelLayer
10
181.2886331
20
141.4037494
40
28.6179198
50
356.6324643
51
357.4910625
0
ARC
8
back_labelLayer
10
162.4699539
20
142.5012756
40
47.4685748
50
356.0329096
51
356.6442838
0
ARC
8
back_labelLayer
10
150.1796774
20
143.3299623
40
59.7867392
50
356.0204747
51
356.05551
0
LINE
8
right_outsideCutPath
10
403
20
186
11
403
21
161.3125
0
LINE
8
right_outsideCutPath
10
403
20
161.3125
11
398
21
161.3125
0
LINE
8
right_outsideCutPath
10
398
20
161.3125
11
398
21
120.6875
0
LINE
8
right_outsideCutPath
10
398
20
120.6875
11
403
21
120.6875
0
LINE
8
right_outsideCutPath
10
403
20
120.6875
11
403
21
96
0
LINE
8
right_outsideCutPath
10
403
20
96
11
472.0625
21
96
0
LINE
8
right_outsideCutPath
10
472.0625
20
96
11
472.0625
21
101
0
LINE
8
right_outsideCutPath
10
472.0625
20
101
11
512.6875
21
101
0
LINE
8
right_outsideCutPath
10
512.6875
20
101
11
512.6875
21
96
0
LINE
8
right_outsideCutPath
10
512.6875
20
96
11
553.3125
21
96
0
LINE
8
right_outsideCutPath
10
553.3125
20
96
11
553.3125
21
101
0
LINE
8
right_outsideCutPath
10
553.3125
20
101
11
593.9375
21
101
0
LINE
8
right_outsideCutPath
10
593.9375
20
101
11
593.9375
21
96
0
LINE
8
right_outsideCutPath
10
593.9375
20
96
11
634.5625
21
96
0
LINE
8
right_outsideCutPath
10
634.5625
20
96
11
634.5625
21
101
0
LINE
8
right_outsideCutPath
10
634.5625
20
101
11
675.1875
21
101
0
LINE
8
right_outsideCutPath
10
675.1875
20
101
11
675.1875
21
96
0
LINE
8
right_outsideCutPath
10
675.1875
20
96
11
715.8125
21
96
0
LINE
8
right_outsideCutPath
10
715.8125
20
96
11
715.8125
21
101
0
LINE
8
right_outsideCutPath
10
715.8125
20
101
11
756.4375
21
101
0
LINE
8
right_outsideCutPath
10
756.4375
20
101
11
756.4375
21
96
0
LINE
8
right_outsideCutPath
10
756.4375
20
96
11
797.0625
21
96
0
LINE
8
right_outsideCutPath
10
797.0625
20
96
11
797.0625
21
101
0
LINE
8
right_outsideCutPath
10
797.0625
20
101
11
837.6875
21
101
0
LINE
8
right_outsideCutPath
10
837.6875
20
101
11
837.6875
21
96
0
LINE
8
right_outsideCutPath
10
837.6875
20
96
11
878.3125
21
96
0
LINE
8
right_outsideCutPath
10
878.3125
20
96
11
878.3125
21
101
0
LINE
8
right_outsideCutPath
10
878.3125
20
101
11
918.9375
21
101
0
LINE
8
right_outsideCutPath
10
918.9375
20
101
11
918.9375
21
96
0
LINE
8
right_outsideCutPath
10
918.9375
20
96
11
959.5625
21
96
0
LINE
8
right_outsideCutPath
10
959.5625
20
96
11
988
21
96
0
LINE
8
right_outsideCutPath
10
988
20
96
11
988
21
120.6875
0
LINE
8
right_outsideCutPath
10
988
20
120.6875
11
993
21
120.6875
0
LINE
8
right_outsideCutPath
10
993
20
120.6875
11
993
21
161.3125
0
LINE
8
right_outsideCutPath
10
993
20
161.3125
11
988
21
161.3125
0
LINE
8
right_outsideCutPath
10
988
20
161.3125
11
988
21
186
0
LINE
8
right_outsideCutPath
10
988
20
186
11
403
21
186
0
LINE
8
right_labelLayer
10
682.4262695
20
146.0273968
11
682.2241211
21
144.6738812
0
LINE
8
right_labelLayer
10
678.3393554
20
141.4922406
11
678.3393554
21
136.3242718
0
LINE
8
right_labelLayer
10
678.3393554
20
136.3242718
11
676.8803711
21
136.3242718
0
LINE
8
right_labelLayer
10
676.8803711
20
136.3242718
11
676.8803711
21
145.9570843
0
LINE
8
right_labelLayer
10
676.8803711
20
145.9570843
11
678.0844726
21
145.9570843
0
LINE
8
right_labelLayer
10
678.0844726
20
145.9570843
11
678.2514648
21
144.1729047
0
LINE
8
right_labelLayer
10
678.2514648
20
144.1729047
11
678.3217773
21
144.1729047
0
ARC
8
right_labelLayer
10
681.2898777
20
139.4349023
40
6.6979801
50
84.9923003
51
90.1281023
0
ARC
8
right_labelLayer
10
681.4507306
20
141.2371007
40
4.8886207
50
78.4891794
51
85.0265903
0
ARC
8
right_labelLayer
10
680.8263969
20
138.3974715
40
6.4301595
50
77.445389
51
81.6360274
0
ARC
8
right_labelLayer
10
681.1065578
20
140.3285904
40
4.4788291
50
81.5884226
51
87.1916898
0
ARC
8
right_labelLayer
10
681.1673973
20
141.3836643
40
3.4220536
50
87.3436084
51
89.9659067
0
ARC
8
right_labelLayer
10
681.1532647
20
142.2777809
40
2.5279879
50
89.6335367
51
137.0880802
0
ARC
8
right_labelLayer
10
681.7736926
20
141.5800957
40
3.4585592
50
135.6209221
51
138.8377222
0
ARC
8
right_labelLayer
10
681.682768
20
141.6688452
40
3.3316996
50
138.9575665
51
174.5422296
0
ARC
8
right_labelLayer
10
682.7677967
20
141.4990654
40
4.4284466
50
173.6907304
51
180.0882999
0
ARC
8
right_labelLayer
10
682.6144252
20
141.7544463
40
4.9270444
50
139.4139444
51
150.603287
0
ARC
8
right_labelLayer
10
681.7309973
20
142.5114498
40
3.7636444
50
124.2321387
51
139.4161072
0
ARC
8
right_labelLayer
10
681.2586414
20
143.2244702
40
2.9084408
50
89.6796604
51
124.440568
0
LINE
8
right_labelLayer
10
685.6870117
20
145.9570843
11
685.6870117
21
136.3242718
0
LINE
8
right_labelLayer
10
685.6870117
20
136.3242718
11
684.2280273
21
136.3242718
0
LINE
8
right_labelLayer
10
684.2280273
20
136.3242718
11
684.2280273
21
145.9570843
0
LINE
8
right_labelLayer
10
684.2280273
20
145.9570843
11
685.6870117
21
145.9570843
0
ARC
8
right_labelLayer
10
685.7216836
20
148.5774371
40
1.616734
50
170.8451746
51
180.3544379
0
ARC
8
right_labelLayer
10
685.1164428
20
148.6786354
40
1.0031085
50
155.9678666
51
171.051584
0
ARC
8
right_labelLayer
10
684.8232945
20
148.8086891
40
0.6824072
50
133.7879825
51
155.9171448
0
ARC
8
right_labelLayer
10
684.9315247
20
148.6890364
40
0.8436926
50
92.6446054
51
133.4710597
0
ARC
8
right_labelLayer
10
684.9657109
20
148.4205139
40
1.113719
50
89.9692521
51
93.7641305
0
ARC
8
right_labelLayer
10
684.9796295
20
148.6747206
40
0.8596154
50
46.3708364
51
90.8879096
0
ARC
8
right_labelLayer
10
685.0651797
20
148.7630412
40
0.7366592
50
17.7252289
51
46.4472805
0
ARC
8
right_labelLayer
10
684.6662243
20
148.6256575
40
1.1585402
50
4.9428326
51
18.1900537
0
ARC
8
right_labelLayer
10
684.1587111
20
148.5707921
40
1.6689291
50
359.8847791
51
5.3181785
0
ARC
8
right_labelLayer
10
684.3181363
20
148.5571842
40
1.5095352
50
349.8344973
51
0.3891172
0
ARC
8
right_labelLayer
10
684.8676938
20
148.4546654
40
0.9505188
50
332.6322009
51
350.0705974
0
ARC
8
right_labelLayer
10
685.0815905
20
148.3490445
40
0.7120232
50
313.6153748
51
332.2677313
0
ARC
8
right_labelLayer
10
684.9785068
20
148.4429065
40
0.8511439
50
269.1788333
51
314.2807374
0
ARC
8
right_labelLayer
10
684.956639
20
148.5185736
40
0.9267741
50
250.5000285
51
270.597809
0
ARC
8
right_labelLayer
10
684.9285909
20
148.4136938
40
0.8185923
50
225.1300641
51
249.9001637
0
ARC
8
right_labelLayer
10
684.8846823
20
148.3651889
40
0.7532452
50
197.7934294
51
224.8941235
0
ARC
8
right_labelLayer
10
685.2956657
20
148.5060289
40
1.1876384
50
184.9924854
51
198.204084
0
ARC
8
right_labelLayer
10
685.8276066
20
148.5638467
40
1.7226298
50
179.8806195
51
185.3685402
0
LINE
8
right_labelLayer
10
693.3334961
20
145.9570843
11
696.6645508
21
145.9570843
0
LINE
8
right_labelLayer
10
696.6645508
20
145.9570843
11
696.6645508
21
145.0342328
0
LINE
8
right_labelLayer
10
696.6645508
20
145.0342328
11
694.8803711
21
144.8232953
0
LINE
8
right_labelLayer
10
691.5932617
20
137.8535687
11
693.2983398
21
137.8535687
0
LINE
8
right_labelLayer
10
692.8325195
20
136.5439984
11
691.0834961
21
136.5439984
0
ARC
8
right_labelLayer
10
693.0211163
20
143.3519031
40
2.3710384
50
29.458442
51
38.3576736
0
ARC
8
right_labelLayer
10
692.052286
20
142.7988337
40
3.4866101
50
23.1844948
51
29.5422744
0
ARC
8
right_labelLayer
10
691.1279606
20
142.3889165
40
4.497689
50
21.2506291
51
23.3489863
0
ARC
8
right_labelLayer
10
692.699142
20
143.0137837
40
2.8068895
50
6.8504954
51
20.9871699
0
ARC
8
right_labelLayer
10
691.9086241
20
142.9066015
40
3.6045686
50
359.8710749
51
7.0432231
0
ARC
8
right_labelLayer
10
692.1687085
20
142.8637138
40
3.3446559
50
342.5649834
51
0.5957557
0
ARC
8
right_labelLayer
10
692.785565
20
142.6933772
40
2.7051945
50
310.60979
51
342.0923687
0
ARC
8
right_labelLayer
10
692.4396553
20
143.095735
40
3.2358025
50
284.9315934
51
310.6222662
0
ARC
8
right_labelLayer
10
692.0067904
20
144.6125571
40
4.8130202
50
272.5334976
51
285.2579627
0
ARC
8
right_labelLayer
10
691.8955008
20
146.1326668
40
6.3367161
50
269.9691585
51
272.9312234
0
ARC
8
right_labelLayer
10
691.8816833
20
144.4848683
40
4.6889283
50
263.4836737
51
270.1271617
0
ARC
8
right_labelLayer
10
691.8053087
20
143.7594412
40
3.9595255
50
259.4963741
51
263.3904144
0
ARC
8
right_labelLayer
10
692.2780026
20
137.5611878
40
2.5961938
50
117.3935043
51
128.4095748
0
ARC
8
right_labelLayer
10
691.6096432
20
138.3903332
40
1.5312708
50
128.0881927
51
147.1400209
0
ARC
8
right_labelLayer
10
691.2495653
20
138.631973
40
1.0977211
50
147.5368814
51
180.2592421
0
ARC
8
right_labelLayer
10
690.9079728
20
138.6176611
40
0.7561751
50
179.2918979
51
198.358052
0
ARC
8
right_labelLayer
10
690.7663928
20
138.5804527
40
0.6101521
50
199.2291838
51
239.5690923
0
ARC
8
right_labelLayer
10
690.8841565
20
138.7432783
40
0.8104185
50
238.2207582
51
239.8450561
0
ARC
8
right_labelLayer
10
690.9774315
20
138.9353038
40
1.0234352
50
240.7302005
51
254.5027067
0
ARC
8
right_labelLayer
10
691.2567544
20
139.8978307
40
2.0256361
50
254.1636387
51
262.2123684
0
ARC
8
right_labelLayer
10
691.4780122
20
141.4431911
40
3.586738
50
262.0555298
51
267.2083515
0
ARC
8
right_labelLayer
10
691.5848963
20
143.4035276
40
5.5499652
50
267.0918933
51
270.0863608
0
ARC
8
right_labelLayer
10
693.330234
20
131.8814268
40
5.9722271
50
81.5744191
51
90.3059843
0
ARC
8
right_labelLayer
10
693.657824
20
134.0178973
40
3.8108314
50
68.3671554
51
81.7399343
0
ARC
8
right_labelLayer
10
694.0856898
20
135.1113675
40
2.6366488
50
52.1879547
51
68.250098
0
ARC
8
right_labelLayer
10
694.3850764
20
135.5147706
40
2.1344312
50
8.6201309
51
51.8982482
0
ARC
8
right_labelLayer
10
693.3357852
20
135.2927494
40
3.2057509
50
359.7430603
51
9.7326512
0
ARC
8
right_labelLayer
10
693.3827737
20
135.238669
40
3.1589797
50
340.5268817
51
0.7201557
0
ARC
8
right_labelLayer
10
693.8469035
20
135.1231068
40
2.6832652
50
302.9903756
51
339.5494497
0
ARC
8
right_labelLayer
10
693.3595476
20
135.7424376
40
3.4688386
50
303.1870655
51
304.1722895
0
ARC
8
right_labelLayer
10
692.9056169
20
136.5284001
40
4.3753606
50
286.2542267
51
302.5280203
0
ARC
8
right_labelLayer
10
692.0792849
20
139.254027
40
7.2233959
50
276.4939902
51
286.4953615
0
ARC
8
right_labelLayer
10
691.5637056
20
143.5639882
40
11.5640413
50
269.7545186
51
276.6169593
0
ARC
8
right_labelLayer
10
691.4756564
20
140.1742888
40
8.1743264
50
262.5634839
51
270.2698824
0
ARC
8
right_labelLayer
10
691.0752925
20
137.2067962
40
5.1799917
50
251.2102039
51
262.7064036
0
ARC
8
right_labelLayer
10
690.4982376
20
135.5130499
40
3.3906432
50
235.9668095
51
251.2228932
0
ARC
8
right_labelLayer
10
689.8866077
20
134.6404937
40
2.3253051
50
208.9036237
51
236.423142
0
ARC
8
right_labelLayer
10
689.9427566
20
134.616956
40
2.3635654
50
182.207983
51
207.7461562
0
ARC
8
right_labelLayer
10
690.6573529
20
134.6883432
40
3.0806929
50
179.978369
51
183.0226718
0
ARC
8
right_labelLayer
10
689.8071747
20
134.7286449
40
2.230858
50
138.3916179
51
181.0052623
0
ARC
8
right_labelLayer
10
690.0427556
20
134.516928
40
2.5475902
50
113.8121362
51
138.3496311
0
ARC
8
right_labelLayer
10
690.4896251
20
133.5519494
40
3.6108941
50
102.2870657
51
114.1172665
0
ARC
8
right_labelLayer
10
690.3492108
20
138.4579936
40
1.5142368
50
216.5861613
51
245.4968549
0
ARC
8
right_labelLayer
10
690.5658061
20
138.641772
40
1.797787
50
215.4650053
51
217.1747967
0
ARC
8
right_labelLayer
10
690.2049176
20
138.381107
40
1.3526179
50
182.1767408
51
215.3415578
0
ARC
8
right_labelLayer
10
690.526346
20
138.4155917
40
1.6752719
50
179.9836849
51
182.9377768
0
ARC
8
right_labelLayer
10
690.5194475
20
138.4301716
40
1.6684329
50
161.7225885
51
180.4843147
0
ARC
8
right_labelLayer
10
690.336003
20
138.4802286
40
1.4785785
50
144.4963427
51
161.3350807
0
ARC
8
right_labelLayer
10
690.825008
20
138.1157774
40
2.0883623
50
132.7259142
51
144.1479119
0
ARC
8
right_labelLayer
10
691.6087436
20
137.2788382
40
3.2349524
50
125.2213113
51
132.8655121
0
ARC
8
right_labelLayer
10
692.3966199
20
136.1847719
40
4.5831427
50
121.2352092
51
125.3794845
0
ARC
8
right_labelLayer
10
690.9998554
20
142.4661607
40
2.5577176
50
215.1640829
51
247.474786
0
ARC
8
right_labelLayer
10
691.4772813
20
142.8514645
40
3.170173
50
212.4713894
51
215.8875648
0
ARC
8
right_labelLayer
10
691.3517438
20
142.7616517
40
3.0160551
50
183.0160786
51
212.3123266
0
ARC
8
right_labelLayer
10
692.0135654
20
142.8354216
40
3.6810463
50
179.9759439
51
183.6207187
0
ARC
8
right_labelLayer
10
692.5476308
20
142.8725689
40
4.2152616
50
166.8195921
51
180.4839215
0
ARC
8
right_labelLayer
10
691.1492548
20
143.2256276
40
2.7733312
50
132.3287738
51
167.3340879
0
ARC
8
right_labelLayer
10
691.3363365
20
142.9567135
40
3.0984106
50
106.2188865
51
131.5377685
0
ARC
8
right_labelLayer
10
691.8096912
20
141.4240297
40
4.7023821
50
93.6329693
51
106.5408701
0
ARC
8
right_labelLayer
10
691.9642245
20
139.6891362
40
6.4437333
50
89.9380529
51
94.0268003
0
ARC
8
right_labelLayer
10
691.9892422
20
140.5405278
40
5.5923669
50
82.5852022
51
90.1849376
0
ARC
8
right_labelLayer
10
692.1601192
20
141.86263
40
4.2592687
50
74.0089092
51
82.5694431
0
ARC
8
right_labelLayer
10
690.4480837
20
134.6871565
40
1.465309
50
179.2207671
51
200.9355424
0
ARC
8
right_labelLayer
10
690.2738279
20
134.646807
40
1.288374
50
202.028668
51
236.1457662
0
ARC
8
right_labelLayer
10
690.536526
20
134.9803766
40
1.7120391
50
235.0635956
51
238.5039945
0
ARC
8
right_labelLayer
10
690.8417589
20
135.5255872
40
2.3365223
50
239.1066152
51
254.4862993
0
ARC
8
right_labelLayer
10
691.248824
20
136.9291259
40
3.7978397
50
254.2323712
51
263.4937571
0
ARC
8
right_labelLayer
10
691.5045281
20
139.0948717
40
5.9786175
50
263.4108285
51
270.1457407
0
ARC
8
right_labelLayer
10
691.5317315
20
140.6112005
40
7.4949365
50
269.9082963
51
270.0000519
0
ARC
8
right_labelLayer
10
691.5667022
20
142.9242651
40
9.8080634
50
269.7957504
51
275.3991055
0
ARC
8
right_labelLayer
10
691.9337886
20
139.1557611
40
6.0217483
50
275.2956908
51
283.3516053
0
ARC
8
right_labelLayer
10
692.5318479
20
136.6924776
40
3.4869611
50
283.1370452
51
295.8573015
0
ARC
8
right_labelLayer
10
692.9749528
20
135.7251082
40
2.4233004
50
296.4048387
51
301.8007829
0
ARC
8
right_labelLayer
10
693.1487325
20
135.4855601
40
2.1282438
50
301.2230672
51
318.623822
0
ARC
8
right_labelLayer
10
693.5406029
20
135.1235743
40
1.5949669
50
319.0765558
51
1.1407082
0
ARC
8
right_labelLayer
10
693.16135
20
135.1709651
40
1.9739658
50
359.5460748
51
10.9904491
0
ARC
8
right_labelLayer
10
693.9238224
20
135.3260496
40
1.1959314
50
10.6609175
51
30.9361699
0
ARC
8
right_labelLayer
10
694.1655819
20
135.460218
40
0.9196369
50
31.509534
51
58.0778334
0
ARC
8
right_labelLayer
10
693.9389933
20
135.0545026
40
1.3839858
50
58.9972551
51
73.858567
0
ARC
8
right_labelLayer
10
693.4810188
20
133.5552271
40
2.951569
50
73.4099953
51
81.5906942
0
ARC
8
right_labelLayer
10
693.0929779
20
131.0440841
40
5.4924872
50
81.4172154
51
86.5756415
0
ARC
8
right_labelLayer
10
692.8551871
20
127.2606512
40
9.283375
50
86.5054118
51
90.1399014
0
ARC
8
right_labelLayer
10
691.0626294
20
133.1902767
40
3.3537866
50
89.6435136
51
100.02089
0
ARC
8
right_labelLayer
10
690.8518393
20
134.336968
40
2.1879245
50
99.8102954
51
116.8229568
0
ARC
8
right_labelLayer
10
690.6465122
20
134.7699789
40
1.7088959
50
117.2304869
51
130.5022948
0
ARC
8
right_labelLayer
10
690.5410813
20
134.9054841
40
1.5374053
50
130.7944831
51
169.0413282
0
ARC
8
right_labelLayer
10
691.3174362
20
134.7226513
40
2.3345778
50
168.2580879
51
180.3820519
0
ARC
8
right_labelLayer
10
692.6217367
20
142.8503407
40
2.8478942
50
179.5617565
51
191.6529281
0
ARC
8
right_labelLayer
10
691.6315617
20
142.6364081
40
1.8349418
50
191.3555125
51
213.3660292
0
ARC
8
right_labelLayer
10
691.3937588
20
142.4990963
40
1.5608985
50
213.957346
51
227.7972098
0
ARC
8
right_labelLayer
10
691.6006535
20
142.7500245
40
1.885824
50
228.2620945
51
254.7341342
0
ARC
8
right_labelLayer
10
691.8649598
20
143.6560673
40
2.8295358
50
254.4016298
51
267.4348929
0
ARC
8
right_labelLayer
10
691.9339136
20
144.5808291
40
3.7565577
50
267.0154942
51
270.0323586
0
ARC
8
right_labelLayer
10
691.9789897
20
144.0024454
40
3.1784638
50
269.2256665
51
284.3773371
0
ARC
8
right_labelLayer
10
692.4122097
20
142.4931069
40
1.6094499
50
282.7796607
51
346.4828609
0
ARC
8
right_labelLayer
10
691.1170005
20
142.8599853
40
2.9550277
50
345.4361982
51
0.7466092
0
ARC
8
right_labelLayer
10
690.9349322
20
142.9433534
40
3.1371659
50
359.1806185
51
15.0431732
0
ARC
8
right_labelLayer
10
692.3564364
20
143.3580212
40
1.6570497
50
13.9535689
51
77.6673846
0
ARC
8
right_labelLayer
10
691.948591
20
141.896473
40
3.1731548
50
76.1095203
51
90.7028277
0
ARC
8
right_labelLayer
10
691.8875452
20
142.0080944
40
3.0613746
50
89.5859531
51
101.3333751
0
ARC
8
right_labelLayer
10
691.6687684
20
143.0515717
40
1.9952736
50
101.06203
51
121.9739192
0
ARC
8
right_labelLayer
10
691.515013
20
143.3281646
40
1.6793008
50
122.5210582
51
134.996689
0
ARC
8
right_labelLayer
10
691.5783211
20
143.290232
40
1.7509796
50
135.5839764
51
163.0015868
0
ARC
8
right_labelLayer
10
692.502963
20
142.987166
40
2.7238962
50
162.5911728
51
175.7343313
0
ARC
8
right_labelLayer
10
693.6119788
20
142.8779133
40
3.8380573
50
175.3393222
51
180.0864331
0
LINE
8
right_labelLayer
10
706.6928711
20
136.3242718
11
705.2338867
21
136.3242718
0
LINE
8
right_labelLayer
10
705.2338867
20
136.3242718
11
705.2338867
21
142.5557172
0
LINE
8
right_labelLayer
10
700.1010742
20
141.3604047
11
700.1010742
21
136.3242718
0
LINE
8
right_labelLayer
10
700.1010742
20
136.3242718
11
698.6420898
21
136.3242718
0
LINE
8
right_labelLayer
10
698.6420898
20
136.3242718
11
698.6420898
21
150.0000531
0
LINE
8
right_labelLayer
10
698.6420898
20
150.0000531
11
700.1010742
21
150.0000531
0
LINE
8
right_labelLayer
10
700.1010742
20
150.0000531
11
700.1010742
21
145.8604047
0
LINE
8
right_labelLayer
10
700.0307617
20
144.6211468
11
700.1186523
21
144.6211468
0
LINE
8
right_labelLayer
10
706.6928711
20
142.6084515
11
706.6928711
21
136.3242718
0
ARC
8
right_labelLayer
10
701.1097804
20
142.5793691
40
4.1241741
50
359.67141
51
8.6877393
0
ARC
8
right_labelLayer
10
702.6383079
20
142.8217842
40
2.5765829
50
8.4931487
51
22.6579776
0
ARC
8
right_labelLayer
10
703.4149192
20
143.1445204
40
1.7355828
50
22.7024044
51
42.3419863
0
ARC
8
right_labelLayer
10
703.5022103
20
143.1837872
40
1.6448838
50
43.3790737
51
71.5386348
0
ARC
8
right_labelLayer
10
703.1757745
20
142.2716417
40
2.6135415
50
71.0828169
51
84.3691335
0
ARC
8
right_labelLayer
10
703.0292389
20
141.0257617
40
3.8678597
50
84.0197742
51
90.151036
0
ARC
8
right_labelLayer
10
702.9875986
20
140.4786226
40
4.4150972
50
89.5919363
51
100.3595088
0
ARC
8
right_labelLayer
10
702.6749703
20
142.1215286
40
2.742781
50
100.1067808
51
118.0847188
0
ARC
8
right_labelLayer
10
702.3569993
20
142.7454659
40
2.04266
50
118.4550977
51
139.6706285
0
ARC
8
right_labelLayer
10
702.6762217
20
142.5272711
40
2.4275603
50
140.6208188
51
160.5049006
0
ARC
8
right_labelLayer
10
704.3588677
20
141.90436
40
4.2216999
50
160.1566955
51
171.5312669
0
ARC
8
right_labelLayer
10
707.0814362
20
141.4730055
40
6.9781551
50
171.3202553
51
178.3406807
0
ARC
8
right_labelLayer
10
709.5174739
20
141.3641782
40
9.4164005
50
178.107987
51
180.0229605
0
ARC
8
right_labelLayer
10
686.9763305
20
145.84476
40
13.124753
50
357.8674363
51
0.0682965
0
ARC
8
right_labelLayer
10
691.4348314
20
145.6746691
40
8.6630116
50
354.9829043
51
357.8943209
0
ARC
8
right_labelLayer
10
694.3798356
20
145.4182258
40
5.7068643
50
351.9712365
51
354.9619343
0
ARC
8
right_labelLayer
10
702.5899251
20
143.0752795
40
2.9149434
50
119.8315945
51
147.9725844
0
ARC
8
right_labelLayer
10
702.9428631
20
142.533109
40
3.5610282
50
116.6657671
51
120.4183406
0
ARC
8
right_labelLayer
10
703.0087996
20
142.3599351
40
3.7454217
50
96.6652584
51
116.3782576
0
ARC
8
right_labelLayer
10
703.1508042
20
141.3801846
40
4.7351112
50
89.8927469
51
96.9959182
0
ARC
8
right_labelLayer
10
703.1962121
20
140.1961011
40
5.9192992
50
80.6863016
51
90.3537309
0
ARC
8
right_labelLayer
10
703.5647861
20
142.3639977
40
3.7203541
50
65.6022683
51
80.8844043
0
ARC
8
right_labelLayer
10
704.0073777
20
143.3608104
40
2.6297506
50
46.7400641
51
65.4130721
0
ARC
8
right_labelLayer
10
704.0374571
20
143.4557861
40
2.5403378
50
19.220429
51
45.7660652
0
ARC
8
right_labelLayer
10
702.5726699
20
142.9127792
40
4.1023497
50
6.4733953
51
19.646782
0
ARC
8
right_labelLayer
10
700.383947
20
142.6310787
40
6.3089646
50
359.7945073
51
6.7743964
0
LINE
8
right_labelLayer
10
714.1196289
20
137.5283734
11
714.1196289
21
136.4121625
0
LINE
8
right_labelLayer
10
709.7954101
20
139.0928265
11
709.7954101
21
144.8232953
0
LINE
8
right_labelLayer
10
709.7954101
20
144.8232953
11
708.4155273
21
144.8232953
0
LINE
8
right_labelLayer
10
708.4155273
20
144.8232953
11
708.4155273
21
145.5264203
0
LINE
8
right_labelLayer
10
708.4155273
20
145.5264203
11
709.7954101
21
146.1328656
0
LINE
8
right_labelLayer
10
709.7954101
20
146.1328656
11
710.4106445
21
148.1895062
0
LINE
8
right_labelLayer
10
710.4106445
20
148.1895062
11
711.2543945
21
148.1895062
0
LINE
8
right_labelLayer
10
711.2543945
20
148.1895062
11
711.2543945
21
145.9570843
0
LINE
8
right_labelLayer
10
711.2543945
20
145.9570843
11
714.0493164
21
145.9570843
0
LINE
8
right_labelLayer
10
714.0493164
20
145.9570843
11
714.0493164
21
144.8232953
0
LINE
8
right_labelLayer
10
714.0493164
20
144.8232953
11
711.2543945
21
144.8232953
0
LINE
8
right_labelLayer
10
711.2543945
20
144.8232953
11
711.2543945
21
139.15435
0
ARC
8
right_labelLayer
10
712.8112736
20
142.1441058
40
4.7915241
50
269.8803734
51
278.3028161
0
ARC
8
right_labelLayer
10
712.856893
20
141.7713426
40
4.4160888
50
278.4155319
51
279.0081225
0
ARC
8
right_labelLayer
10
712.319284
20
145.2058248
40
7.8923895
50
278.9589452
51
280.510415
0
ARC
8
right_labelLayer
10
712.8316315
20
142.4567374
40
5.0959678
50
280.484797
51
282.6268666
0
ARC
8
right_labelLayer
10
713.2809828
20
140.4604108
40
3.049696
50
282.5876995
51
285.5795307
0
ARC
8
right_labelLayer
10
713.5068723
20
139.6296988
40
2.188844
50
285.7239997
51
286.2569388
0
ARC
8
right_labelLayer
10
713.5062331
20
137.7095281
40
1.4350651
50
287.9888342
51
295.3048312
0
ARC
8
right_labelLayer
10
713.1601327
20
138.7566282
40
2.5378729
50
283.3068466
51
288.1198731
0
ARC
8
right_labelLayer
10
712.7944683
20
140.2819039
40
4.1063633
50
280.0069965
51
283.3735444
0
ARC
8
right_labelLayer
10
712.5501814
20
141.6074363
40
5.4541887
50
279.1861115
51
280.1145117
0
ARC
8
right_labelLayer
10
712.39964
20
142.4637727
40
6.3235865
50
275.5260369
51
279.2939649
0
ARC
8
right_labelLayer
10
712.5688647
20
140.6961948
40
4.5479275
50
270.8932588
51
275.5484126
0
ARC
8
right_labelLayer
10
712.5901112
20
139.8910498
40
3.7425592
50
270.00338
51
270.7601914
0
ARC
8
right_labelLayer
10
712.5314575
20
139.9586905
40
3.8106547
50
253.7847993
51
270.8852531
0
ARC
8
right_labelLayer
10
712.0799969
20
138.4190357
40
2.2061823
50
190.3817746
51
253.8772315
0
ARC
8
right_labelLayer
10
714.3810943
20
139.0412101
40
4.5859747
50
179.3551063
51
192.8477484
0
ARC
8
right_labelLayer
10
714.1922403
20
139.1359745
40
2.9379033
50
179.6416345
51
189.7505939
0
ARC
8
right_labelLayer
10
713.1551077
20
138.9509888
40
1.8844353
50
189.5479465
51
205.7873647
0
ARC
8
right_labelLayer
10
712.7288896
20
138.7544463
40
1.4151851
50
206.1294373
51
221.408377
0
ARC
8
right_labelLayer
10
712.6810976
20
138.7181831
40
1.3553623
50
221.5949156
51
262.3505058
0
ARC
8
right_labelLayer
10
712.7947594
20
139.3026875
40
1.9501062
50
261.3266651
51
270.1912741
0
LINE
8
bottom_outsideCutPath
10
1001
20
593
11
1001
21
523.9375
0
LINE
8
bottom_outsideCutPath
10
1001
20
523.9375
11
996
21
523.9375
0
LINE
8
bottom_outsideCutPath
10
996
20
523.9375
11
996
21
483.3125
0
LINE
8
bottom_outsideCutPath
10
996
20
483.3125
11
1001
21
483.3125
0
LINE
8
bottom_outsideCutPath
10
1001
20
483.3125
11
1001
21
442.6875
0
LINE
8
bottom_outsideCutPath
10
1001
20
442.6875
11
996
21
442.6875
0
LINE
8
bottom_outsideCutPath
10
996
20
442.6875
11
996
21
402.0625
0
LINE
8
bottom_outsideCutPath
10
996
20
402.0625
11
1001
21
402.0625
0
LINE
8
bottom_outsideCutPath
10
1001
20
402.0625
11
1001
21
361.4375
0
LINE
8
bottom_outsideCutPath
10
1001
20
361.4375
11
996
21
361.4375
0
LINE
8
bottom_outsideCutPath
10
996
20
361.4375
11
996
21
320.8125
0
LINE
8
bottom_outsideCutPath
10
996
20
320.8125
11
1001
21
320.8125
0
LINE
8
bottom_outsideCutPath
10
1001
20
320.8125
11
1001
21
280.1875
0
LINE
8
bottom_outsideCutPath
10
1001
20
280.1875
11
996
21
280.1875
0
LINE
8
bottom_outsideCutPath
10
996
20
280.1875
11
996
21
239.5625
0
LINE
8
bottom_outsideCutPath
10
996
20
239.5625
11
1001
21
239.5625
0
LINE
8
bottom_outsideCutPath
10
1001
20
239.5625
11
1001
21
198.9375
0
LINE
8
bottom_outsideCutPath
10
1001
20
198.9375
11
996
21
198.9375
0
LINE
8
bottom_outsideCutPath
10
996
20
198.9375
11
996
21
158.3125
0
LINE
8
bottom_outsideCutPath
10
996
20
158.3125
11
1001
21
158.3125
0
LINE
8
bottom_outsideCutPath
10
1001
20
158.3125
11
1001
21
117.6875
0
LINE
8
bottom_outsideCutPath
10
1001
20
117.6875
11
996
21
117.6875
0
LINE
8
bottom_outsideCutPath
10
996
20
117.6875
11
996
21
77.0625
0
LINE
8
bottom_outsideCutPath
10
996
20
77.0625
11
1001
21
77.0625
0
LINE
8
bottom_outsideCutPath
10
1001
20
77.0625
11
1001
21
36.4375
0
LINE
8
bottom_outsideCutPath
10
1001
20
36.4375
11
1001
21
8
0
LINE
8
bottom_outsideCutPath
10
1001
20
8
11
1051.3125
21
8
0
LINE
8
bottom_outsideCutPath
10
1051.3125
20
8
11
1051.3125
21
3
0
LINE
8
bottom_outsideCutPath
10
1051.3125
20
3
11
1091.9375
21
3
0
LINE
8
bottom_outsideCutPath
10
1091.9375
20
3
11
1091.9375
21
8
0
LINE
8
bottom_outsideCutPath
10
1091.9375
20
8
11
1132.5625
21
8
0
LINE
8
bottom_outsideCutPath
10
1132.5625
20
8
11
1132.5625
21
3
0
LINE
8
bottom_outsideCutPath
10
1132.5625
20
3
11
1173.1875
21
3
0
LINE
8
bottom_outsideCutPath
10
1173.1875
20
3
11
1173.1875
21
8
0
LINE
8
bottom_outsideCutPath
10
1173.1875
20
8
11
1213.8125
21
8
0
LINE
8
bottom_outsideCutPath
10
1213.8125
20
8
11
1213.8125
21
3
0
LINE
8
bottom_outsideCutPath
10
1213.8125
20
3
11
1254.4375
21
3
0
LINE
8
bottom_outsideCutPath
10
1254.4375
20
3
11
1254.4375
21
8
0
LINE
8
bottom_outsideCutPath
10
1254.4375
20
8
11
1295.0625
21
8
0
LINE
8
bottom_outsideCutPath
10
1295.0625
20
8
11
1295.0625
21
3
0
LINE
8
bottom_outsideCutPath
10
1295.0625
20
3
11
1335.6875
21
3
0
LINE
8
bottom_outsideCutPath
10
1335.6875
20
3
11
1335.6875
21
8
0
LINE
8
bottom_outsideCutPath
10
1335.6875
20
8
11
1376.3125
21
8
0
LINE
8
bottom_outsideCutPath
10
1376.3125
20
8
11
1386
21
8
0
LINE
8
bottom_outsideCutPath
10
1386
20
8
11
1386
21
77.0625
0
LINE
8
bottom_outsideCutPath
10
1386
20
77.0625
11
1391
21
77.0625
0
LINE
8
bottom_outsideCutPath
10
1391
20
77.0625
11
1391
21
117.6875
0
LINE
8
bottom_outsideCutPath
10
1391
20
117.6875
11
1386
21
117.6875
0
LINE
8
bottom_outsideCutPath
10
1386
20
117.6875
11
1386
21
158.3125
0
LINE
8
bottom_outsideCutPath
10
1386
20
158.3125
11
1391
21
158.3125
0
LINE
8
bottom_outsideCutPath
10
1391
20
158.3125
11
1391
21
198.9375
0
LINE
8
bottom_outsideCutPath
10
1391
20
198.9375
11
1386
21
198.9375
0
LINE
8
bottom_outsideCutPath
10
1386
20
198.9375
11
1386
21
239.5625
0
LINE
8
bottom_outsideCutPath
10
1386
20
239.5625
11
1391
21
239.5625
0
LINE
8
bottom_outsideCutPath
10
1391
20
239.5625
11
1391
21
280.1875
0
LINE
8
bottom_outsideCutPath
10
1391
20
280.1875
11
1386
21
280.1875
0
LINE
8
bottom_outsideCutPath
10
1386
20
280.1875
11
1386
21
320.8125
0
LINE
8
bottom_outsideCutPath
10
1386
20
320.8125
11
1391
21
320.8125
0
LINE
8
bottom_outsideCutPath
10
1391
20
320.8125
11
1391
21
361.4375
0
LINE
8
bottom_outsideCutPath
10
1391
20
361.4375
11
1386
21
361.4375
0
LINE
8
bottom_outsideCutPath
10
1386
20
361.4375
11
1386
21
402.0625
0
LINE
8
bottom_outsideCutPath
10
1386
20
402.0625
11
1391
21
402.0625
0
LINE
8
bottom_outsideCutPath
10
1391
20
402.0625
11
1391
21
442.6875
0
LINE
8
bottom_outsideCutPath
10
1391
20
442.6875
11
1386
21
442.6875
0
LINE
8
bottom_outsideCutPath
10
1386
20
442.6875
11
1386
21
483.3125
0
LINE
8
bottom_outsideCutPath
10
1386
20
483.3125
11
1391
21
483.3125
0
LINE
8
bottom_outsideCutPath
10
1391
20
483.3125
11
1391
21
523.9375
0
LINE
8
bottom_outsideCutPath
10
1391
20
523.9375
11
1386
21
523.9375
0
LINE
8
bottom_outsideCutPath
10
1386
20
523.9375
11
1386
21
564.5625
0
LINE
8
bottom_outsideCutPath
10
1386
20
564.5625
11
1386
21
593
0
LINE
8
bottom_outsideCutPath
10
1386
20
593
11
1335.6875
21
593
0
LINE
8
bottom_outsideCutPath
10
1335.6875
20
593
11
1335.6875
21
598
0
LINE
8
bottom_outsideCutPath
10
1335.6875
20
598
11
1295.0625
21
598
0
LINE
8
bottom_outsideCutPath
10
1295.0625
20
598
11
1295.0625
21
593
0
LINE
8
bottom_outsideCutPath
10
1295.0625
20
593
11
1254.4375
21
593
0
LINE
8
bottom_outsideCutPath
10
1254.4375
20
593
11
1254.4375
21
598
0
LINE
8
bottom_outsideCutPath
10
1254.4375
20
598
11
1213.8125
21
598
0
LINE
8
bottom_outsideCutPath
10
1213.8125
20
598
11
1213.8125
21
593
0
LINE
8
bottom_outsideCutPath
10
1213.8125
20
593
11
1173.1875
21
593
0
LINE
8
bottom_outsideCutPath
10
1173.1875
20
593
11
1173.1875
21
598
0
LINE
8
bottom_outsideCutPath
10
1173.1875
20
598
11
1132.5625
21
598
0
LINE
8
bottom_outsideCutPath
10
1132.5625
20
598
11
1132.5625
21
593
0
LINE
8
bottom_outsideCutPath
10
1132.5625
20
593
11
1091.9375
21
593
0
LINE
8
bottom_outsideCutPath
10
1091.9375
20
593
11
1091.9375
21
598
0
LINE
8
bottom_outsideCutPath
10
1091.9375
20
598
11
1051.3125
21
598
0
LINE
8
bottom_outsideCutPath
10
1051.3125
20
598
11
1051.3125
21
593
0
LINE
8
bottom_outsideCutPath
10
1051.3125
20
593
11
1010.6875
21
593
0
LINE
8
bottom_outsideCutPath
10
1010.6875
20
593
11
1001
21
593
0
LINE
8
bottom_labelLayer
10
1069.9465902
20
276.314963
11
1069.4836995
21
276.314963
0
LINE
8
bottom_labelLayer
10
1069.4836995
20
276.314963
11
1068.1336019
21
270.8759981
0
LINE
8
bottom_labelLayer
10
1068.1336019
20
270.8759981
11
1063.5432698
21
270.8759981
0
LINE
8
bottom_labelLayer
10
1063.5432698
20
270.8759981
11
1063.5432698
21
330.8974825
0
LINE
8
bottom_labelLayer
10
1063.5432698
20
330.8974825
11
1069.9465902
21
330.8974825
0
LINE
8
bottom_labelLayer
10
1069.9465902
20
330.8974825
11
1069.9465902
21
316.3164278
0
LINE
8
bottom_labelLayer
10
1069.6379964
20
307.5215059
11
1069.9465902
21
307.5215059
0
ARC
8
bottom_labelLayer
10
1083.408213
20
294.2778558
40
19.5707648
50
74.23933
51
90.5623805
0
ARC
8
bottom_labelLayer
10
1084.7022983
20
299.0252594
40
14.6504085
50
38.5631299
51
74.0670385
0
ARC
8
bottom_labelLayer
10
1081.3720322
20
296.4357851
40
18.8687032
50
16.470929
51
38.4075262
0
ARC
8
bottom_labelLayer
10
1071.7780455
20
293.4273905
40
28.9224242
50
5.1338466
51
16.7973419
0
ARC
8
bottom_labelLayer
10
1059.6664605
20
292.1408112
40
41.1010238
50
359.8779295
51
5.4093638
0
ARC
8
bottom_labelLayer
10
1063.2238915
20
291.8317442
40
37.5441529
50
350.6562787
51
0.3380311
0
ARC
8
bottom_labelLayer
10
1076.3123945
20
289.6055316
40
24.2679719
50
335.8305939
51
350.8254835
0
ARC
8
bottom_labelLayer
10
1082.069791
20
287.1205578
40
17.9980635
50
321.316146
51
335.5436156
0
ARC
8
bottom_labelLayer
10
1084.2708837
20
285.327001
40
15.1588818
50
274.0640041
51
321.408103
0
ARC
8
bottom_labelLayer
10
1083.245469
20
291.8223468
40
21.7178529
50
269.9225755
51
275.5481667
0
ARC
8
bottom_labelLayer
10
1083.1081375
20
289.5268628
40
19.4226493
50
255.7755352
51
270.3185485
0
ARC
8
bottom_labelLayer
10
1082.5538719
20
287.0643223
40
16.8995503
50
245.9801659
51
255.5455771
0
ARC
8
bottom_labelLayer
10
1081.4803061
20
284.5677325
40
14.1822003
50
215.5850206
51
245.8361645
0
ARC
8
bottom_labelLayer
10
936.4423541
20
316.2035694
40
133.5042837
50
358.1123191
51
0.0484352
0
ARC
8
bottom_labelLayer
10
973.5986041
20
314.9561295
40
96.3271095
50
355.7238656
51
358.1258957
0
ARC
8
bottom_labelLayer
10
989.9412327
20
313.833599
40
79.9463361
50
355.4715486
51
355.6528029
0
ARC
8
bottom_labelLayer
10
1081.8885033
20
299.1940887
40
14.5586801
50
95.1835129
51
145.1108993
0
ARC
8
bottom_labelLayer
10
1083.1681543
20
291.9780316
40
21.8696987
50
89.8743322
51
96.8145392
0
ARC
8
bottom_labelLayer
10
1082.1562842
20
290.4924937
40
17.993867
50
89.5731373
51
100.7324289
0
ARC
8
bottom_labelLayer
10
1080.8242338
20
297.2224652
40
11.1336995
50
100.44694
51
119.6700797
0
ARC
8
bottom_labelLayer
10
1079.5890281
20
299.5318291
40
8.5159698
50
120.140298
51
142.4248928
0
ARC
8
bottom_labelLayer
10
1081.6325822
20
298.1799532
40
10.961366
50
143.3382334
51
161.2559844
0
ARC
8
bottom_labelLayer
10
1090.178323
20
295.1459281
40
20.0292303
50
160.8926318
51
171.2334315
0
ARC
8
bottom_labelLayer
10
1104.4445418
20
292.8444529
40
34.4796953
50
171.0667847
51
177.8456811
0
ARC
8
bottom_labelLayer
10
1119.2810712
20
292.0898688
40
49.3344946
50
177.6176688
51
180.0425348
0
ARC
8
bottom_labelLayer
10
1112.2845153
20
291.8879191
40
42.338248
50
179.7762673
51
185.7075228
0
ARC
8
bottom_labelLayer
10
1095.5920287
20
290.1680031
40
25.557519
50
185.5924825
51
194.2050726
0
ARC
8
bottom_labelLayer
10
1084.8990224
20
287.3927935
40
14.5106003
50
193.943036
51
208.0218382
0
ARC
8
bottom_labelLayer
10
1080.5726042
20
285.1918274
40
9.6577585
50
208.55366
51
217.560533
0
ARC
8
bottom_labelLayer
10
1080.2201106
20
285.0452133
40
9.2894814
50
218.1690451
51
253.8047172
0
ARC
8
bottom_labelLayer
10
1081.9431296
20
290.3574587
40
14.8724959
50
253.1382463
51
266.8483133
0
ARC
8
bottom_labelLayer
10
1082.426289
20
296.0553635
40
20.5890415
50
266.3775641
51
270.0510595
0
ARC
8
bottom_labelLayer
10
1082.5812294
20
288.2305538
40
12.7649544
50
269.3868906
51
285.8630679
0
ARC
8
bottom_labelLayer
10
1083.5295849
20
284.8030686
40
9.208806
50
286.0162886
51
326.8497327
0
ARC
8
bottom_labelLayer
10
1078.9523366
20
287.8353301
40
14.6992533
50
326.7104966
51
343.6661824
0
ARC
8
bottom_labelLayer
10
1070.3839516
20
290.4535491
40
23.6583672
50
343.4171427
51
353.6369111
0
ARC
8
bottom_labelLayer
10
1057.4422987
20
291.9891637
40
36.6905984
50
353.493482
51
0.2205427
0
ARC
8
bottom_labelLayer
10
1056.3015651
20
292.283523
40
37.8313701
50
359.7680828
51
6.3095267
0
ARC
8
bottom_labelLayer
10
1070.5518638
20
293.9188327
40
23.4877449
50
6.1648649
51
16.0396401
0
ARC
8
bottom_labelLayer
10
1079.7316867
20
296.6241235
40
13.9179525
50
15.7779447
51
32.0151264
0
ARC
8
bottom_labelLayer
10
1082.5941579
20
298.2633488
40
10.6225822
50
32.7034255
51
35.5242174
0
ARC
8
bottom_labelLayer
10
1083.6412496
20
299.0075716
40
9.3379577
50
35.5408386
51
79.8011264
0
ARC
8
bottom_labelLayer
10
1082.3872574
20
293.6766089
40
14.8095696
50
78.6781292
51
90.3749596
0
ARC
8
bottom_labelLayer
10
1115.3700912
20
291.8302643
40
33.0757857
50
349.1761943
51
0.3862616
0
ARC
8
bottom_labelLayer
10
1126.5059398
20
289.6103125
40
21.7213515
50
330.2507046
51
349.4116488
0
ARC
8
bottom_labelLayer
10
1129.9329708
20
287.829079
40
17.8627919
50
318.1439783
51
329.7566169
0
ARC
8
bottom_labelLayer
10
1130.5515152
20
287.3333772
40
17.0713783
50
278.8959166
51
317.9979141
0
ARC
8
bottom_labelLayer
10
1128.9577915
20
294.969048
40
24.8647703
50
269.7502844
51
279.8033232
0
ARC
8
bottom_labelLayer
10
1128.6993193
20
290.6668254
40
20.5628596
50
253.5436954
51
270.4182462
0
ARC
8
bottom_labelLayer
10
1128.0148258
20
288.0190239
40
17.8298621
50
238.8115535
51
253.2428296
0
ARC
8
bottom_labelLayer
10
1127.7939112
20
287.5747682
40
17.3354624
50
207.7947021
51
238.6757978
0
ARC
8
bottom_labelLayer
10
1130.9640631
20
289.5163094
40
21.0465653
50
205.6560344
51
208.4461079
0
ARC
8
bottom_labelLayer
10
1133.4054391
20
290.5335257
40
23.688081
50
188.9102475
51
205.3171447
0
ARC
8
bottom_labelLayer
10
1141.6338534
20
291.9271527
40
32.0332144
50
179.7744676
51
189.093286
0
ARC
8
bottom_labelLayer
10
1142.8476539
20
292.2784365
40
33.2475295
50
169.2442925
51
180.388079
0
ARC
8
bottom_labelLayer
10
1131.5570649
20
294.5101797
40
21.7389716
50
150.7111497
51
169.4695447
0
ARC
8
bottom_labelLayer
10
1127.9527626
20
296.3611193
40
17.6905508
50
138.1759491
51
150.2287382
0
ARC
8
bottom_labelLayer
10
1127.3532032
20
296.8212097
40
16.937048
50
99.1759367
51
137.983275
0
ARC
8
bottom_labelLayer
10
1129.0033882
20
289.055259
40
24.869838
50
89.7326318
51
100.0759827
0
ARC
8
bottom_labelLayer
10
1129.3332048
20
292.4091089
40
21.5167792
50
73.5222744
51
90.5692266
0
ARC
8
bottom_labelLayer
10
1130.5950355
20
296.9936764
40
16.7628341
50
41.1445663
51
73.2133823
0
ARC
8
bottom_labelLayer
10
1128.1863021
20
294.9234027
40
19.9389118
50
13.501435
51
41.070343
0
ARC
8
bottom_labelLayer
10
1118.8801901
20
292.4881149
40
29.5570519
50
1.1277197
51
13.8800056
0
ARC
8
bottom_labelLayer
10
1110.8641567
20
292.0585496
40
37.5809691
50
359.9919114
51
1.5419824
0
ARC
8
bottom_labelLayer
10
1148.6615356
20
291.8868372
40
32.4263099
50
179.7059652
51
187.9160753
0
ARC
8
bottom_labelLayer
10
1136.7685579
20
290.1784239
40
20.4114471
50
187.7639234
51
200.097687
0
ARC
8
bottom_labelLayer
10
1130.2167797
20
287.7778433
40
13.4337275
50
200.0845888
51
216.9131612
0
ARC
8
bottom_labelLayer
10
1127.8243015
20
286.0695017
40
10.4950331
50
217.3009556
51
261.709908
0
ARC
8
bottom_labelLayer
10
1128.934972
20
291.3695084
40
15.9033268
50
260.5033177
51
270.2476795
0
ARC
8
bottom_labelLayer
10
1129.1469673
20
290.3389044
40
14.8732641
50
269.4481609
51
284.7255715
0
ARC
8
bottom_labelLayer
10
1130.3243949
20
285.9722068
40
10.3507434
50
284.566234
51
322.6333813
0
ARC
8
bottom_labelLayer
10
1127.5715061
20
287.961046
40
13.7459998
50
323.0089257
51
342.639048
0
ARC
8
bottom_labelLayer
10
1119.6976456
20
290.5344484
40
22.0292949
50
342.3615736
51
353.7537582
0
ARC
8
bottom_labelLayer
10
1108.0810651
20
291.9346731
40
33.729503
50
353.5363111
51
0.2014153
0
ARC
8
bottom_labelLayer
10
1109.8609232
20
292.2163145
40
31.9498526
50
359.7075642
51
7.8972713
0
ARC
8
bottom_labelLayer
10
1121.5618425
20
293.8937496
40
20.1295017
50
7.7439927
51
20.0690163
0
ARC
8
bottom_labelLayer
10
1128.0820676
20
296.2864266
40
13.1841372
50
20.025704
51
37.4350505
0
ARC
8
bottom_labelLayer
10
1130.2454248
20
297.8215124
40
10.5336571
50
37.9577639
51
80.4006212
0
ARC
8
bottom_labelLayer
10
1129.0160582
20
292.3361948
40
16.1499144
50
79.3453491
51
90.3174809
0
ARC
8
bottom_labelLayer
10
1128.7884242
20
293.2473273
40
15.2391603
50
89.4805937
51
103.8805006
0
ARC
8
bottom_labelLayer
10
1127.5079418
20
298.1234037
40
10.1985529
50
103.4685236
51
142.3118894
0
ARC
8
bottom_labelLayer
10
1129.9973019
20
296.3727087
40
13.2395224
50
142.9025739
51
162.3749619
0
ARC
8
bottom_labelLayer
10
1137.841292
20
293.7587195
40
21.5070979
50
162.0653167
51
173.1674834
0
ARC
8
bottom_labelLayer
10
1150.0721176
20
292.1987494
40
33.8367778
50
173.0086163
51
180.2463846
0
LINE
8
bottom_labelLayer
10
1179.1116292
20
276.1606661
11
1179.1116292
21
271.2617403
0
LINE
8
bottom_labelLayer
10
1160.1331136
20
283.026877
11
1160.1331136
21
308.1772676
0
LINE
8
bottom_labelLayer
10
1160.1331136
20
308.1772676
11
1154.0769613
21
308.1772676
0
LINE
8
bottom_labelLayer
10
1154.0769613
20
308.1772676
11
1154.0769613
21
311.2632051
0
LINE
8
bottom_labelLayer
10
1154.0769613
20
311.2632051
11
1160.1331136
21
313.9248262
0
LINE
8
bottom_labelLayer
10
1160.1331136
20
313.9248262
11
1162.8333089
21
322.9511934
0
LINE
8
bottom_labelLayer
10
1162.8333089
20
322.9511934
11
1166.5364339
21
322.9511934
0
LINE
8
bottom_labelLayer
10
1166.5364339
20
322.9511934
11
1166.5364339
21
313.1533419
0
LINE
8
bottom_labelLayer
10
1166.5364339
20
313.1533419
11
1178.8030355
21
313.1533419
0
LINE
8
bottom_labelLayer
10
1178.8030355
20
313.1533419
11
1178.8030355
21
308.1772676
0
LINE
8
bottom_labelLayer
10
1178.8030355
20
308.1772676
11
1166.5364339
21
308.1772676
0
LINE
8
bottom_labelLayer
10
1166.5364339
20
308.1772676
11
1166.5364339
21
283.2968965
0
ARC
8
bottom_labelLayer
10
1173.3694097
20
296.41852
40
21.0293842
50
269.8803557
51
278.3028316
0
ARC
8
bottom_labelLayer
10
1173.5699868
20
294.7802517
40
19.3793603
50
278.4154743
51
279.0081372
0
ARC
8
bottom_labelLayer
10
1171.2100613
20
309.8563428
40
34.6390222
50
278.9589835
51
280.5104442
0
ARC
8
bottom_labelLayer
10
1173.4587248
20
297.7908957
40
22.365826
50
280.4847778
51
282.6268292
0
ARC
8
bottom_labelLayer
10
1175.4309355
20
289.0289696
40
13.3846891
50
282.587648
51
285.5794988
0
ARC
8
bottom_labelLayer
10
1176.4210853
20
285.3876302
40
9.6112377
50
285.7237805
51
286.2564621
0
ARC
8
bottom_labelLayer
10
1176.4195102
20
276.9557259
40
6.2983313
50
287.9887973
51
295.3048058
0
ARC
8
bottom_labelLayer
10
1174.900391
20
281.5517478
40
11.1388658
50
283.3069445
51
288.1197879
0
ARC
8
bottom_labelLayer
10
1173.2956272
20
288.2457326
40
18.0225005
50
280.0069866
51
283.3735105
0
ARC
8
bottom_labelLayer
10
1172.2216637
20
294.0740653
40
23.9488272
50
279.1863025
51
280.1142763
0
ARC
8
bottom_labelLayer
10
1171.5627935
20
297.8215835
40
27.7535161
50
275.5260283
51
279.2939565
0
ARC
8
bottom_labelLayer
10
1172.3054941
20
290.0640272
40
19.9604935
50
270.8932625
51
275.5483825
0
ARC
8
bottom_labelLayer
10
1172.3988282
20
286.5167636
40
16.4122498
50
270.0030964
51
270.7605269
0
ARC
8
bottom_labelLayer
10
1172.1413208
20
286.8270497
40
16.7245322
50
253.7847941
51
270.8852561
0
ARC
8
bottom_labelLayer
10
1170.1599092
20
280.0696822
40
9.6826868
50
190.3817661
51
253.8772394
0
ARC
8
bottom_labelLayer
10
1180.2591417
20
282.8003355
40
20.1273031
50
179.3550977
51
192.8477602
0
ARC
8
bottom_labelLayer
10
1179.4303467
20
283.2162533
40
12.8941649
50
179.6416557
51
189.7505883
0
ARC
8
bottom_labelLayer
10
1174.8784614
20
282.40437
40
8.2705862
50
189.547958
51
205.7873583
0
ARC
8
bottom_labelLayer
10
1173.0078226
20
281.5417617
40
6.2110836
50
206.1294444
51
221.4084002
0
ARC
8
bottom_labelLayer
10
1172.7980742
20
281.3826076
40
5.948533
50
221.5949163
51
262.3505154
0
ARC
8
bottom_labelLayer
10
1173.2969199
20
283.9478627
40
8.5587288
50
261.3266211
51
270.1913035
0
LINE
8
bottom_labelLayer
10
1207.0007894
20
276.1606661
11
1207.0007894
21
271.2617403
0
LINE
8
bottom_labelLayer
10
1188.0222738
20
283.026877
11
1188.0222738
21
308.1772676
0
LINE
8
bottom_labelLayer
10
1188.0222738
20
308.1772676
11
1181.9661214
21
308.1772676
0
LINE
8
bottom_labelLayer
10
1181.9661214
20
308.1772676
11
1181.9661214
21
311.2632051
0
LINE
8
bottom_labelLayer
10
1181.9661214
20
311.2632051
11
1188.0222738
21
313.9248262
0
LINE
8
bottom_labelLayer
10
1188.0222738
20
313.9248262
11
1190.7224691
21
322.9511934
0
LINE
8
bottom_labelLayer
10
1190.7224691
20
322.9511934
11
1194.4255941
21
322.9511934
0
LINE
8
bottom_labelLayer
10
1194.4255941
20
322.9511934
11
1194.4255941
21
313.1533419
0
LINE
8
bottom_labelLayer
10
1194.4255941
20
313.1533419
11
1206.6921956
21
313.1533419
0
LINE
8
bottom_labelLayer
10
1206.6921956
20
313.1533419
11
1206.6921956
21
308.1772676
0
LINE
8
bottom_labelLayer
10
1206.6921956
20
308.1772676
11
1194.4255941
21
308.1772676
0
LINE
8
bottom_labelLayer
10
1194.4255941
20
308.1772676
11
1194.4255941
21
283.2968965
0
ARC
8
bottom_labelLayer
10
1201.2585698
20
296.41852
40
21.0293842
50
269.8803557
51
278.3028316
0
ARC
8
bottom_labelLayer
10
1201.4591469
20
294.7802517
40
19.3793603
50
278.4154743
51
279.0081372
0
ARC
8
bottom_labelLayer
10
1199.0992215
20
309.8563428
40
34.6390222
50
278.9589835
51
280.5104442
0
ARC
8
bottom_labelLayer
10
1201.347885
20
297.7908957
40
22.365826
50
280.4847778
51
282.6268292
0
ARC
8
bottom_labelLayer
10
1203.3200957
20
289.0289696
40
13.3846891
50
282.587648
51
285.5794988
0
ARC
8
bottom_labelLayer
10
1204.3102455
20
285.3876302
40
9.6112377
50
285.7237805
51
286.2564621
0
ARC
8
bottom_labelLayer
10
1204.3086704
20
276.9557259
40
6.2983313
50
287.9887973
51
295.3048058
0
ARC
8
bottom_labelLayer
10
1202.7895511
20
281.5517478
40
11.1388658
50
283.3069445
51
288.1197879
0
ARC
8
bottom_labelLayer
10
1201.1847873
20
288.2457326
40
18.0225005
50
280.0069866
51
283.3735105
0
ARC
8
bottom_labelLayer
10
1200.1108238
20
294.0740653
40
23.9488272
50
279.1863025
51
280.1142763
0
ARC
8
bottom_labelLayer
10
1199.4519537
20
297.8215835
40
27.7535161
50
275.5260283
51
279.2939565
0
ARC
8
bottom_labelLayer
10
1200.1946543
20
290.0640272
40
19.9604935
50
270.8932625
51
275.5483825
0
ARC
8
bottom_labelLayer
10
1200.2879884
20
286.5167636
40
16.4122498
50
270.0030964
51
270.7605269
0
ARC
8
bottom_labelLayer
10
1200.030481
20
286.8270497
40
16.7245322
50
253.7847941
51
270.8852561
0
ARC
8
bottom_labelLayer
10
1198.0490694
20
280.0696822
40
9.6826868
50
190.3817661
51
253.8772394
0
ARC
8
bottom_labelLayer
10
1208.1483018
20
282.8003355
40
20.1273031
50
179.3550977
51
192.8477602
0
ARC
8
bottom_labelLayer
10
1207.3195068
20
283.2162533
40
12.8941649
50
179.6416557
51
189.7505883
0
ARC
8
bottom_labelLayer
10
1202.7676215
20
282.40437
40
8.2705862
50
189.547958
51
205.7873583
0
ARC
8
bottom_labelLayer
10
1200.8969828
20
281.5417617
40
6.2110836
50
206.1294444
51
221.4084002
0
ARC
8
bottom_labelLayer
10
1200.6872344
20
281.3826076
40
5.948533
50
221.5949163
51
262.3505154
0
ARC
8
bottom_labelLayer
10
1201.1860801
20
283.9478627
40
8.5587288
50
261.3266211
51
270.1913035
0
ARC
8
bottom_labelLayer
10
1218.8647201
20
291.8302643
40
33.0757857
50
349.1761943
51
0.3862616
0
ARC
8
bottom_labelLayer
10
1230.0005687
20
289.6103125
40
21.7213515
50
330.2507046
51
349.4116488
0
ARC
8
bottom_labelLayer
10
1233.4275998
20
287.829079
40
17.8627919
50
318.1439783
51
329.7566169
0
ARC
8
bottom_labelLayer
10
1234.0461441
20
287.3333772
40
17.0713783
50
278.8959166
51
317.9979141
0
ARC
8
bottom_labelLayer
10
1232.4524204
20
294.969048
40
24.8647703
50
269.7502844
51
279.8033232
0
ARC
8
bottom_labelLayer
10
1232.1939482
20
290.6668254
40
20.5628596
50
253.5436954
51
270.4182462
0
ARC
8
bottom_labelLayer
10
1231.5094547
20
288.0190239
40
17.8298621
50
238.8115535
51
253.2428296
0
ARC
8
bottom_labelLayer
10
1231.2885401
20
287.5747682
40
17.3354624
50
207.7947021
51
238.6757978
0
ARC
8
bottom_labelLayer
10
1234.458692
20
289.5163094
40
21.0465653
50
205.6560344
51
208.4461079
0
ARC
8
bottom_labelLayer
10
1236.900068
20
290.5335257
40
23.688081
50
188.9102475
51
205.3171447
0
ARC
8
bottom_labelLayer
10
1245.1284823
20
291.9271527
40
32.0332144
50
179.7744676
51
189.093286
0
ARC
8
bottom_labelLayer
10
1246.3422828
20
292.2784365
40
33.2475295
50
169.2442925
51
180.388079
0
ARC
8
bottom_labelLayer
10
1235.0516938
20
294.5101797
40
21.7389716
50
150.7111497
51
169.4695447
0
ARC
8
bottom_labelLayer
10
1231.4473915
20
296.3611193
40
17.6905508
50
138.1759491
51
150.2287382
0
ARC
8
bottom_labelLayer
10
1230.8478321
20
296.8212097
40
16.937048
50
99.1759367
51
137.983275
0
ARC
8
bottom_labelLayer
10
1232.4980171
20
289.055259
40
24.869838
50
89.7326318
51
100.0759827
0
ARC
8
bottom_labelLayer
10
1232.8278337
20
292.4091089
40
21.5167792
50
73.5222744
51
90.5692266
0
ARC
8
bottom_labelLayer
10
1234.0896644
20
296.9936764
40
16.7628341
50
41.1445663
51
73.2133823
0
ARC
8
bottom_labelLayer
10
1231.680931
20
294.9234027
40
19.9389118
50
13.501435
51
41.070343
0
ARC
8
bottom_labelLayer
10
1222.374819
20
292.4881149
40
29.5570519
50
1.1277197
51
13.8800056
0
ARC
8
bottom_labelLayer
10
1214.3587857
20
292.0585496
40
37.5809691
50
359.9919114
51
1.5419824
0
ARC
8
bottom_labelLayer
10
1252.1561645
20
291.8868372
40
32.4263099
50
179.7059652
51
187.9160753
0
ARC
8
bottom_labelLayer
10
1240.2631868
20
290.1784239
40
20.4114471
50
187.7639234
51
200.097687
0
ARC
8
bottom_labelLayer
10
1233.7114086
20
287.7778433
40
13.4337275
50
200.0845888
51
216.9131612
0
ARC
8
bottom_labelLayer
10
1231.3189304
20
286.0695017
40
10.4950331
50
217.3009556
51
261.709908
0
ARC
8
bottom_labelLayer
10
1232.4296009
20
291.3695084
40
15.9033268
50
260.5033177
51
270.2476795
0
ARC
8
bottom_labelLayer
10
1232.6415962
20
290.3389044
40
14.8732641
50
269.4481609
51
284.7255715
0
ARC
8
bottom_labelLayer
10
1233.8190238
20
285.9722068
40
10.3507434
50
284.566234
51
322.6333813
0
ARC
8
bottom_labelLayer
10
1231.066135
20
287.961046
40
13.7459998
50
323.0089257
51
342.639048
0
ARC
8
bottom_labelLayer
10
1223.1922745
20
290.5344484
40
22.0292949
50
342.3615736
51
353.7537582
0
ARC
8
bottom_labelLayer
10
1211.575694
20
291.9346731
40
33.729503
50
353.5363111
51
0.2014153
0
ARC
8
bottom_labelLayer
10
1213.3555521
20
292.2163145
40
31.9498526
50
359.7075642
51
7.8972713
0
ARC
8
bottom_labelLayer
10
1225.0564714
20
293.8937496
40
20.1295017
50
7.7439927
51
20.0690163
0
ARC
8
bottom_labelLayer
10
1231.5766965
20
296.2864266
40
13.1841372
50
20.025704
51
37.4350505
0
ARC
8
bottom_labelLayer
10
1233.7400537
20
297.8215124
40
10.5336571
50
37.9577639
51
80.4006212
0
ARC
8
bottom_labelLayer
10
1232.5106872
20
292.3361948
40
16.1499144
50
79.3453491
51
90.3174809
0
ARC
8
bottom_labelLayer
10
1232.2830531
20
293.2473273
40
15.2391603
50
89.4805937
51
103.8805006
0
ARC
8
bottom_labelLayer
10
1231.0025708
20
298.1234037
40
10.1985529
50
103.4685236
51
142.3118894
0
ARC
8
bottom_labelLayer
10
1233.4919308
20
296.3727087
40
13.2395224
50
142.9025739
51
162.3749619
0
ARC
8
bottom_labelLayer
10
1241.3359209
20
293.7587195
40
21.5070979
50
162.0653167
51
173.1674834
0
ARC
8
bottom_labelLayer
10
1253.5667465
20
292.1987494
40
33.8367778
50
173.0086163
51
180.2463846
0
LINE
8
bottom_labelLayer
10
1323.4563558
20
270.8759981
11
1317.0530355
21
270.8759981
0
LINE
8
bottom_labelLayer
10
1317.0530355
20
270.8759981
11
1317.0530355
21
298.3794161
0
LINE
8
bottom_labelLayer
10
1296.4929769
20
294.48342
11
1296.4929769
21
270.8759981
0
LINE
8
bottom_labelLayer
10
1296.4929769
20
270.8759981
11
1290.0896566
21
270.8759981
0
LINE
8
bottom_labelLayer
10
1290.0896566
20
270.8759981
11
1290.0896566
21
298.3794161
0
LINE
8
bottom_labelLayer
10
1269.5681722
20
293.0561739
11
1269.5681722
21
270.8759981
0
LINE
8
bottom_labelLayer
10
1269.5681722
20
270.8759981
11
1263.1648519
21
270.8759981
0
LINE
8
bottom_labelLayer
10
1263.1648519
20
270.8759981
11
1263.1648519
21
313.1533419
0
LINE
8
bottom_labelLayer
10
1263.1648519
20
313.1533419
11
1268.3723714
21
313.1533419
0
LINE
8
bottom_labelLayer
10
1268.3723714
20
313.1533419
11
1269.4138753
21
307.367209
0
LINE
8
bottom_labelLayer
10
1269.4138753
20
307.367209
11
1269.7224691
21
307.367209
0
LINE
8
bottom_labelLayer
10
1295.1814534
20
306.7500215
11
1295.4900472
21
306.7500215
0
LINE
8
bottom_labelLayer
10
1323.4563558
20
298.4565645
11
1323.4563558
21
270.8759981
0
ARC
8
bottom_labelLayer
10
1298.1630045
20
298.4800293
40
18.8902989
50
359.6948307
51
8.1471494
0
ARC
8
bottom_labelLayer
10
1305.1208904
20
299.5097168
40
11.8567598
50
7.9864632
51
20.7949583
0
ARC
8
bottom_labelLayer
10
1308.9670108
20
300.9830217
40
7.7381371
50
20.7071315
51
40.0217487
0
ARC
8
bottom_labelLayer
10
1309.8107736
20
301.5350848
40
6.7380291
50
41.0408049
51
73.1792682
0
ARC
8
bottom_labelLayer
10
1308.5898683
20
297.8424428
40
10.6264556
50
72.6395471
51
86.2568052
0
ARC
8
bottom_labelLayer
10
1308.1987405
20
293.6218162
40
14.8640557
50
85.8144738
51
90.0685177
0
ARC
8
bottom_labelLayer
10
1308.0550474
20
292.0095996
40
16.4767429
50
89.5621327
51
101.2961741
0
ARC
8
bottom_labelLayer
10
1306.8140687
20
297.9505809
40
10.4079042
50
101.0032244
51
121.7840548
0
ARC
8
bottom_labelLayer
10
1305.8706248
20
299.6348974
40
8.479667
50
122.3597305
51
140.2884054
0
ARC
8
bottom_labelLayer
10
1307.5679893
20
298.3903322
40
10.5813441
50
140.9765286
51
161.1699454
0
ARC
8
bottom_labelLayer
10
1313.9623621
20
296.1147215
40
17.3682046
50
160.8731818
51
172.5272469
0
ARC
8
bottom_labelLayer
10
1324.6472074
20
294.639067
40
28.1543134
50
172.3776549
51
180.1829557
0
ARC
8
bottom_labelLayer
10
1331.9969796
20
294.4834593
40
35.5040029
50
179.8939646
51
180.0000635
0
ARC
8
bottom_labelLayer
10
1271.1996256
20
298.4800293
40
18.8902989
50
359.6948307
51
8.1471494
0
ARC
8
bottom_labelLayer
10
1278.1575115
20
299.5097168
40
11.8567598
50
7.9864632
51
20.7949583
0
ARC
8
bottom_labelLayer
10
1282.0036318
20
300.9830217
40
7.7381371
50
20.7071315
51
40.0217487
0
ARC
8
bottom_labelLayer
10
1282.8649381
20
301.5472071
40
6.7168381
50
41.0610703
51
72.8993583
0
ARC
8
bottom_labelLayer
10
1281.6209056
20
297.8435905
40
10.6229962
50
72.3600958
51
85.9561845
0
ARC
8
bottom_labelLayer
10
1281.1997784
20
293.4912776
40
14.9945982
50
85.523798
51
90.0793503
0
ARC
8
bottom_labelLayer
10
1281.0561355
20
292.5823243
40
15.9040118
50
89.5573209
51
101.4832109
0
ARC
8
bottom_labelLayer
10
1279.8354469
20
298.3015222
40
10.0564442
50
101.1546284
51
123.0655702
0
ARC
8
bottom_labelLayer
10
1279.0056935
20
299.7469161
40
8.3929421
50
123.7020508
51
142.3022016
0
ARC
8
bottom_labelLayer
10
1280.9493497
20
298.428316
40
10.7381555
50
143.0769761
51
161.3913809
0
ARC
8
bottom_labelLayer
10
1288.7841047
20
295.6612604
40
19.046678
50
161.0234479
51
171.4469115
0
ARC
8
bottom_labelLayer
10
1301.754404
20
293.629504
40
32.1750023
50
171.3041968
51
178.3501574
0
ARC
8
bottom_labelLayer
10
1314.1507587
20
293.0758691
40
44.5825909
50
178.0976233
51
180.0253115
0
ARC
8
bottom_labelLayer
10
1280.5705598
20
300.9879957
40
12.5847302
50
117.1209548
51
149.5423684
0
ARC
8
bottom_labelLayer
10
1281.8549385
20
298.7051773
40
15.2023999
50
93.8343282
51
117.5072167
0
ARC
8
bottom_labelLayer
10
1282.209683
20
295.5630316
40
18.3617977
50
89.9661973
51
94.2831364
0
ARC
8
bottom_labelLayer
10
1282.4222334
20
292.9612848
40
20.9645119
50
77.5572253
51
90.5513002
0
ARC
8
bottom_labelLayer
10
1284.3675116
20
301.3282845
40
12.3752791
50
52.7027034
51
78.0053826
0
ARC
8
bottom_labelLayer
10
1285.0605744
20
302.6177493
40
10.9319653
50
22.2097926
51
51.4970543
0
ARC
8
bottom_labelLayer
10
1307.0899421
20
300.1020954
40
13.3698348
50
119.4041762
51
150.18288
0
ARC
8
bottom_labelLayer
10
1308.5726977
20
297.8472729
40
16.0632333
50
118.258371
51
120.0629955
0
ARC
8
bottom_labelLayer
10
1308.5684971
20
297.6823958
40
16.206678
50
95.8635138
51
117.9693194
0
ARC
8
bottom_labelLayer
10
1309.1169969
20
293.7163459
40
20.2085003
50
89.9196958
51
96.2617595
0
ARC
8
bottom_labelLayer
10
1309.2930864
20
291.6670289
40
22.2582878
50
79.9360995
51
90.3803715
0
ARC
8
bottom_labelLayer
10
1310.7761891
20
299.6993419
40
14.0905114
50
62.9723264
51
80.1665155
0
ARC
8
bottom_labelLayer
10
1312.326576
20
302.8801395
40
10.5527658
50
44.229004
51
62.6229068
0
ARC
8
bottom_labelLayer
10
1311.8654539
20
302.6764344
40
11.026676
50
19.5612041
51
43.3161181
0
ARC
8
bottom_labelLayer
10
1305.1684645
20
300.1610393
40
18.1797835
50
7.5041892
51
19.9645337
0
ARC
8
bottom_labelLayer
10
1294.0867989
20
298.6048406
40
29.3699312
50
359.7107371
51
7.6907268
0
ENDSEC
0
EOF