  0
SECTION
  2
HEADER
  9
$ACADVER
  1
AC1015
  9
$ACADMAINTVER
 70
     6
  9
$DWGCODEPAGE
  3
ANSI_1250
  9
$INSBASE
 10
0.0
 20
0.0
 30
0.0
  9
$EXTMIN
 10
996.0
 20
3.0
 30
0.0
  9
$EXTMAX
 10
1391.0
 20
598.0
 30
0.0
  9
$LIMMIN
 10
0.0
 20
0.0
  9
$LIMMAX
 10
12.0
 20
9.0
  9
$ORTHOMODE
 70
     0
  9
$REGENMODE
 70
     1
  9
$FILLMODE
 70
     1
  9
$QTEXTMODE
 70
     0
  9
$MIRRTEXT
 70
     1
  9
$LTSCALE
 40
1.0
  9
$ATTMODE
 70
     1
  9
$TEXTSIZE
 40
0.2
  9
$TRACEWID
 40
0.05
  9
$TEXTSTYLE
  7
Standard
  9
$CLAYER
  8
0
  9
$CELTYPE
  6
ByBlock
  9
$CECOLOR
 62
   256
  9
$CELTSCALE
 40
1.0
  9
$DISPSILH
 70
     0
  9
$DIMSCALE
 40
1.0
  9
$DIMASZ
 40
0.18
  9
$DIMEXO
 40
0.0625
  9
$DIMDLI
 40
0.38
  9
$DIMRND
 40
0.0
  9
$DIMDLE
 40
0.0
  9
$DIMEXE
 40
0.18
  9
$DIMTP
 40
0.0
  9
$DIMTM
 40
0.0
  9
$DIMTXT
 40
0.18
  9
$DIMCEN
 40
0.09
  9
$DIMTSZ
 40
0.0
  9
$DIMTOL
 70
     0
  9
$DIMLIM
 70
     0
  9
$DIMTIH
 70
     1
  9
$DIMTOH
 70
     1
  9
$DIMSE1
 70
     0
  9
$DIMSE2
 70
     0
  9
$DIMTAD
 70
     0
  9
$DIMZIN
 70
     0
  9
$DIMBLK
  1

  9
$DIMASO
 70
     1
  9
$DIMSHO
 70
     1
  9
$DIMPOST
  1

  9
$DIMAPOST
  1

  9
$DIMALT
 70
     0
  9
$DIMALTD
 70
     2
  9
$DIMALTF
 40
25.4
  9
$DIMLFAC
 40
1.0
  9
$DIMTOFL
 70
     0
  9
$DIMTVP
 40
0.0
  9
$DIMTIX
 70
     0
  9
$DIMSOXD
 70
     0
  9
$DIMSAH
 70
     0
  9
$DIMBLK1
  1

  9
$DIMBLK2
  1

  9
$DIMSTYLE
  2
Standard
  9
$DIMCLRD
 70
     0
  9
$DIMCLRE
 70
     0
  9
$DIMCLRT
 70
     0
  9
$DIMTFAC
 40
1.0
  9
$DIMGAP
 40
0.09
  9
$DIMJUST
 70
     0
  9
$DIMSD1
 70
     0
  9
$DIMSD2
 70
     0
  9
$DIMTOLJ
 70
     1
  9
$DIMTZIN
 70
     0
  9
$DIMALTZ
 70
     0
  9
$DIMALTTZ
 70
     0
  9
$DIMUPT
 70
     0
  9
$DIMDEC
 70
     4
  9
$DIMTDEC
 70
     4
  9
$DIMALTU
 70
     2
  9
$DIMALTTD
 70
     2
  9
$DIMTXSTY
  7
Standard
  9
$DIMAUNIT
 70
     0
  9
$DIMADEC
 70
     0
  9
$DIMALTRND
 40
0.0
  9
$DIMAZIN
 70
     0
  9
$DIMDSEP
 70
    46
  9
$DIMATFIT
 70
     3
  9
$DIMFRAC
 70
     0
  9
$DIMLDRBLK
  1

  9
$DIMLUNIT
 70
     2
  9
$DIMLWD
 70
    -2
  9
$DIMLWE
 70
    -2
  9
$DIMTMOVE
 70
     2
  9
$LUNITS
 70
     2
  9
$LUPREC
 70
     4
  9
$SKETCHINC
 40
0.1
  9
$FILLETRAD
 40
0.5
  9
$AUNITS
 70
     0
  9
$AUPREC
 70
     0
  9
$MENU
  1
.
  9
$ELEVATION
 40
0.0
  9
$PELEVATION
 40
0.0
  9
$THICKNESS
 40
0.0
  9
$LIMCHECK
 70
     0
  9
$CHAMFERA
 40
0.0
  9
$CHAMFERB
 40
0.0
  9
$CHAMFERC
 40
0.0
  9
$CHAMFERD
 40
0.0
  9
$SKPOLY
 70
     0
  9
$TDCREATE
 40
2460417.739410463
  9
$TDUCREATE
 40
2460417.65607713
  9
$TDUPDATE
 40
2460417.740294051
  9
$TDUUPDATE
 40
2460417.656960717
  9
$TDINDWG
 40
0.0008774421
  9
$TDUSRTIMER
 40
0.0008774306
  9
$USRTIMER
 70
     1
  9
$ANGBASE
 50
0.0
  9
$ANGDIR
 70
     0
  9
$PDMODE
 70
     0
  9
$PDSIZE
 40
0.0
  9
$PLINEWID
 40
0.0
  9
$SPLFRAME
 70
     0
  9
$SPLINETYPE
 70
     6
  9
$SPLINESEGS
 70
     8
  9
$HANDSEED
  5
4D6
  9
$SURFTAB1
 70
     6
  9
$SURFTAB2
 70
     6
  9
$SURFTYPE
 70
     6
  9
$SURFU
 70
     6
  9
$SURFV
 70
     6
  9
$UCSBASE
  2

  9
$UCSNAME
  2

  9
$UCSORG
 10
0.0
 20
0.0
 30
0.0
  9
$UCSXDIR
 10
1.0
 20
0.0
 30
0.0
  9
$UCSYDIR
 10
0.0
 20
1.0
 30
0.0
  9
$UCSORTHOREF
  2

  9
$UCSORTHOVIEW
 70
     0
  9
$UCSORGTOP
 10
0.0
 20
0.0
 30
0.0
  9
$UCSORGBOTTOM
 10
0.0
 20
0.0
 30
0.0
  9
$UCSORGLEFT
 10
0.0
 20
0.0
 30
0.0
  9
$UCSORGRIGHT
 10
0.0
 20
0.0
 30
0.0
  9
$UCSORGFRONT
 10
0.0
 20
0.0
 30
0.0
  9
$UCSORGBACK
 10
0.0
 20
0.0
 30
0.0
  9
$PUCSBASE
  2

  9
$PUCSNAME
  2

  9
$PUCSORG
 10
0.0
 20
0.0
 30
0.0
  9
$PUCSXDIR
 10
1.0
 20
0.0
 30
0.0
  9
$PUCSYDIR
 10
0.0
 20
1.0
 30
0.0
  9
$PUCSORTHOREF
  2

  9
$PUCSORTHOVIEW
 70
     0
  9
$PUCSORGTOP
 10
0.0
 20
0.0
 30
0.0
  9
$PUCSORGBOTTOM
 10
0.0
 20
0.0
 30
0.0
  9
$PUCSORGLEFT
 10
0.0
 20
0.0
 30
0.0
  9
$PUCSORGRIGHT
 10
0.0
 20
0.0
 30
0.0
  9
$PUCSORGFRONT
 10
0.0
 20
0.0
 30
0.0
  9
$PUCSORGBACK
 10
0.0
 20
0.0
 30
0.0
  9
$USERI1
 70
     0
  9
$USERI2
 70
     0
  9
$USERI3
 70
     0
  9
$USERI4
 70
     0
  9
$USERI5
 70
     0
  9
$USERR1
 40
0.0
  9
$USERR2
 40
0.0
  9
$USERR3
 40
0.0
  9
$USERR4
 40
0.0
  9
$USERR5
 40
0.0
  9
$WORLDVIEW
 70
     1
  9
$SHADEDGE
 70
     3
  9
$SHADEDIF
 70
    70
  9
$TILEMODE
 70
     1
  9
$MAXACTVP
 70
    64
  9
$PINSBASE
 10
0.0
 20
0.0
 30
0.0
  9
$PLIMCHECK
 70
     0
  9
$PEXTMIN
 10
1.000000000000000E+20
 20
1.000000000000000E+20
 30
1.000000000000000E+20
  9
$PEXTMAX
 10
-1.000000000000000E+20
 20
-1.000000000000000E+20
 30
-1.000000000000000E+20
  9
$PLIMMIN
 10
0.0
 20
0.0
  9
$PLIMMAX
 10
0.0
 20
0.0
  9
$UNITMODE
 70
     0
  9
$VISRETAIN
 70
     1
  9
$PLINEGEN
 70
     0
  9
$PSLTSCALE
 70
     1
  9
$TREEDEPTH
 70
  3020
  9
$CMLSTYLE
  2
Standard
  9
$CMLJUST
 70
     0
  9
$CMLSCALE
 40
1.0
  9
$PROXYGRAPHICS
 70
     1
  9
$MEASUREMENT
 70
     0
  9
$CELWEIGHT
370
    -1
  9
$ENDCAPS
280
     0
  9
$JOINSTYLE
280
     0
  9
$LWDISPLAY
290
     0
  9
$INSUNITS
 70
     4
  9
$HYPERLINKBASE
  1

  9
$STYLESHEET
  1

  9
$XEDIT
290
     1
  9
$CEPSNTYPE
380
     0
  9
$PSTYLEMODE
290
     1
  9
$FINGERPRINTGUID
  2
{f38271fa-5b1f-40a3-b060-80245b17c30c}
  9
$VERSIONGUID
  2
{FAEB1C32-E019-11D5-929B-00C0DF256EC4}
  9
$EXTNAMES
290
     1
  9
$PSVPSCALE
 40
0.0
  9
$OLESTARTUP
290
     0
  0
ENDSEC
  0
SECTION
  2
CLASSES
  0
CLASS
  1
ACDBDICTIONARYWDFLT
  2
AcDbDictionaryWithDefault
  3
ObjectDBX Classes
 90
        0
280
     0
281
     0
  0
CLASS
  1
SCALE
  2
AcDbScale
  3
ObjectDBX Classes
 90
     1153
280
     0
281
     0
  0
CLASS
  1
VISUALSTYLE
  2
AcDbVisualStyle
  3
ObjectDBX Classes
 90
     4095
280
     0
281
     0
  0
CLASS
  1
MATERIAL
  2
AcDbMaterial
  3
ObjectDBX Classes
 90
     1153
280
     0
281
     0
  0
CLASS
  1
TABLESTYLE
  2
AcDbTableStyle
  3
ObjectDBX Classes
 90
     4095
280
     0
281
     0
  0
CLASS
  1
MLEADERSTYLE
  2
AcDbMLeaderStyle
  3
ACDB_MLEADERSTYLE_CLASS
 90
     4095
280
     0
281
     0
  0
CLASS
  1
ACDBPLACEHOLDER
  2
AcDbPlaceHolder
  3
ObjectDBX Classes
 90
        0
280
     0
281
     0
  0
CLASS
  1
LAYOUT
  2
AcDbLayout
  3
ObjectDBX Classes
 90
        0
280
     0
281
     0
  0
ENDSEC
  0
SECTION
  2
TABLES
  0
TABLE
  2
VPORT
  5
8
330
0
100
AcDbSymbolTable
 70
     1
  0
VPORT
  5
22
330
8
100
AcDbSymbolTableRecord
100
AcDbViewportTableRecord
  2
*Active
 70
     0
 10
0.0
 20
0.0
 11
1.0
 21
1.0
 12
1206.391427177188
 22
129.9208812581013
 13
0.0
 23
0.0
 14
0.5
 24
0.5
 15
0.5
 25
0.5
 16
0.0
 26
0.0
 36
1.0
 17
0.0
 27
0.0
 37
0.0
 40
624.5004513516496
 41
2.246676514032496
 42
50.0
 43
0.0
 44
0.0
 50
0.0
 51
0.0
 71
    16
 72
   100
 73
     1
 74
     3
 75
     0
 76
     0
 77
     0
 78
     0
281
     0
 65
     1
110
0.0
120
0.0
130
0.0
111
1.0
121
0.0
131
0.0
112
0.0
122
1.0
132
0.0
 79
     0
146
0.0
  0
ENDTAB
  0
TABLE
  2
LTYPE
  5
5
330
0
100
AcDbSymbolTable
 70
     1
  0
LTYPE
  5
14
330
5
100
AcDbSymbolTableRecord
100
AcDbLinetypeTableRecord
  2
ByBlock
 70
     0
  3

 72
    65
 73
     0
 40
0.0
  0
LTYPE
  5
15
330
5
100
AcDbSymbolTableRecord
100
AcDbLinetypeTableRecord
  2
ByLayer
 70
     0
  3

 72
    65
 73
     0
 40
0.0
  0
LTYPE
  5
16
330
5
100
AcDbSymbolTableRecord
100
AcDbLinetypeTableRecord
  2
CONTINUOUS
 70
     0
  3
______
 72
    65
 73
     0
 40
0.0
  0
ENDTAB
  0
TABLE
  2
LAYER
  5
2
330
0
100
AcDbSymbolTable
 70
    11
  0
LAYER
  5
10
330
2
100
AcDbSymbolTableRecord
100
AcDbLayerTableRecord
  2
0
 70
     0
 62
     7
  6
CONTINUOUS
370
    -3
390
F
  0
LAYER
  5
481
330
2
100
AcDbSymbolTableRecord
100
AcDbLayerTableRecord
  2
bottom_labelLayer
 70
     0
 62
     7
  6
CONTINUOUS
370
    -3
390
F
  0
LAYER
  5
482
330
2
100
AcDbSymbolTableRecord
100
AcDbLayerTableRecord
  2
bottom_outsideCutPath
 70
     0
 62
     7
  6
CONTINUOUS
370
    -3
390
F
  0
LAYER
  5
483
330
2
100
AcDbSymbolTableRecord
100
AcDbLayerTableRecord
  2
right_labelLayer
 70
     0
 62
     7
  6
CONTINUOUS
370
    -3
390
F
  0
LAYER
  5
484
330
2
100
AcDbSymbolTableRecord
100
AcDbLayerTableRecord
  2
right_outsideCutPath
 70
     0
 62
     7
  6
CONTINUOUS
370
    -3
390
F
  0
LAYER
  5
485
330
2
100
AcDbSymbolTableRecord
100
AcDbLayerTableRecord
  2
back_labelLayer
 70
     0
 62
     7
  6
CONTINUOUS
370
    -3
390
F
  0
LAYER
  5
486
330
2
100
AcDbSymbolTableRecord
100
AcDbLayerTableRecord
  2
back_outsideCutPath
 70
     0
 62
     7
  6
CONTINUOUS
370
    -3
390
F
  0
LAYER
  5
487
330
2
100
AcDbSymbolTableRecord
100
AcDbLayerTableRecord
  2
left_labelLayer
 70
     0
 62
     7
  6
CONTINUOUS
370
    -3
390
F
  0
LAYER
  5
488
330
2
100
AcDbSymbolTableRecord
100
AcDbLayerTableRecord
  2
left_outsideCutPath
 70
     0
 62
     7
  6
CONTINUOUS
370
    -3
390
F
  0
LAYER
  5
489
330
2
100
AcDbSymbolTableRecord
100
AcDbLayerTableRecord
  2
front_labelLayer
 70
     0
 62
     7
  6
CONTINUOUS
370
    -3
390
F
  0
LAYER
  5
48A
330
2
100
AcDbSymbolTableRecord
100
AcDbLayerTableRecord
  2
front_outsideCutPath
 70
     0
 62
     7
  6
CONTINUOUS
370
    -3
390
F
  0
ENDTAB
  0
TABLE
  2
STYLE
  5
3
330
0
100
AcDbSymbolTable
 70
     1
  0
STYLE
  5
11
330
3
100
AcDbSymbolTableRecord
100
AcDbTextStyleTableRecord
  2
Standard
 70
     0
 40
0.0
 41
1.0
 50
0.0
 71
     0
 42
0.2
  3
txt
  4

  0
ENDTAB
  0
TABLE
  2
VIEW
  5
6
330
0
100
AcDbSymbolTable
 70
     0
  0
ENDTAB
  0
TABLE
  2
UCS
  5
7
330
0
100
AcDbSymbolTable
 70
     0
  0
ENDTAB
  0
TABLE
  2
APPID
  5
9
330
0
100
AcDbSymbolTable
 70
     1
  0
APPID
  5
12
330
9
100
AcDbSymbolTableRecord
100
AcDbRegAppTableRecord
  2
ACAD
 70
     0
  0
ENDTAB
  0
TABLE
  2
DIMSTYLE
  5
A
330
0
100
AcDbSymbolTable
 70
     1
100
AcDbDimStyleTable
  0
DIMSTYLE
105
21
330
A
100
AcDbSymbolTableRecord
100
AcDbDimStyleTableRecord
  2
Standard
 70
     0
178
     0
340
11
  0
ENDTAB
  0
TABLE
  2
BLOCK_RECORD
  5
1
330
0
100
AcDbSymbolTable
 70
     0
  0
BLOCK_RECORD
  5
1D
102
{ACAD_XDICTIONARY
360
4D3
102
}
330
1
100
AcDbSymbolTableRecord
100
AcDbBlockTableRecord
  2
*Model_Space
340
1E
  0
BLOCK_RECORD
  5
1B
330
1
100
AcDbSymbolTableRecord
100
AcDbBlockTableRecord
  2
*Paper_Space
340
1C
  0
ENDTAB
  0
ENDSEC
  0
SECTION
  2
BLOCKS
  0
BLOCK
  5
4AD
330
1D
100
AcDbEntity
  8
0
100
AcDbBlockBegin
  2
*Model_Space
 70
     0
 10
0.0
 20
0.0
 30
0.0
  3
*Model_Space
  1

  0
ENDBLK
  5
4AE
330
1D
100
AcDbEntity
  8
0
100
AcDbBlockEnd
  0
BLOCK
  5
4AF
330
1B
100
AcDbEntity
 67
     1
  8
0
100
AcDbBlockBegin
  2
*Paper_Space
 70
     0
 10
0.0
 20
0.0
 30
0.0
  3
*Paper_Space
  1

  0
ENDBLK
  5
4B0
330
1B
100
AcDbEntity
 67
     1
  8
0
100
AcDbBlockEnd
  0
ENDSEC
  0
SECTION
  2
ENTITIES
  0
LINE
  5
32C
330
1D
100
AcDbEntity
  8
bottom_outsideCutPath
100
AcDbLine
 10
1001.0
 20
593.0
 30
0.0
 11
1001.0
 21
523.9375
 31
0.0
  0
LINE
  5
32D
330
1D
100
AcDbEntity
  8
bottom_outsideCutPath
100
AcDbLine
 10
1001.0
 20
523.9375
 30
0.0
 11
996.0
 21
523.9375
 31
0.0
  0
LINE
  5
32E
330
1D
100
AcDbEntity
  8
bottom_outsideCutPath
100
AcDbLine
 10
996.0
 20
523.9375
 30
0.0
 11
996.0
 21
483.3125
 31
0.0
  0
LINE
  5
32F
330
1D
100
AcDbEntity
  8
bottom_outsideCutPath
100
AcDbLine
 10
996.0
 20
483.3125
 30
0.0
 11
1001.0
 21
483.3125
 31
0.0
  0
LINE
  5
330
330
1D
100
AcDbEntity
  8
bottom_outsideCutPath
100
AcDbLine
 10
1001.0
 20
483.3125
 30
0.0
 11
1001.0
 21
442.6875
 31
0.0
  0
LINE
  5
331
330
1D
100
AcDbEntity
  8
bottom_outsideCutPath
100
AcDbLine
 10
1001.0
 20
442.6875
 30
0.0
 11
996.0
 21
442.6875
 31
0.0
  0
LINE
  5
332
330
1D
100
AcDbEntity
  8
bottom_outsideCutPath
100
AcDbLine
 10
996.0
 20
442.6875
 30
0.0
 11
996.0
 21
402.0625
 31
0.0
  0
LINE
  5
333
330
1D
100
AcDbEntity
  8
bottom_outsideCutPath
100
AcDbLine
 10
996.0
 20
402.0625
 30
0.0
 11
1001.0
 21
402.0625
 31
0.0
  0
LINE
  5
334
330
1D
100
AcDbEntity
  8
bottom_outsideCutPath
100
AcDbLine
 10
1001.0
 20
402.0625
 30
0.0
 11
1001.0
 21
361.4375
 31
0.0
  0
LINE
  5
335
330
1D
100
AcDbEntity
  8
bottom_outsideCutPath
100
AcDbLine
 10
1001.0
 20
361.4375
 30
0.0
 11
996.0
 21
361.4375
 31
0.0
  0
LINE
  5
336
330
1D
100
AcDbEntity
  8
bottom_outsideCutPath
100
AcDbLine
 10
996.0
 20
361.4375
 30
0.0
 11
996.0
 21
320.8125
 31
0.0
  0
LINE
  5
337
330
1D
100
AcDbEntity
  8
bottom_outsideCutPath
100
AcDbLine
 10
996.0
 20
320.8125
 30
0.0
 11
1001.0
 21
320.8125
 31
0.0
  0
LINE
  5
338
330
1D
100
AcDbEntity
  8
bottom_outsideCutPath
100
AcDbLine
 10
1001.0
 20
320.8125
 30
0.0
 11
1001.0
 21
280.1875
 31
0.0
  0
LINE
  5
339
330
1D
100
AcDbEntity
  8
bottom_outsideCutPath
100
AcDbLine
 10
1001.0
 20
280.1875
 30
0.0
 11
996.0
 21
280.1875
 31
0.0
  0
LINE
  5
33A
330
1D
100
AcDbEntity
  8
bottom_outsideCutPath
100
AcDbLine
 10
996.0
 20
280.1875
 30
0.0
 11
996.0
 21
239.5625
 31
0.0
  0
LINE
  5
33B
330
1D
100
AcDbEntity
  8
bottom_outsideCutPath
100
AcDbLine
 10
996.0
 20
239.5625
 30
0.0
 11
1001.0
 21
239.5625
 31
0.0
  0
LINE
  5
33C
330
1D
100
AcDbEntity
  8
bottom_outsideCutPath
100
AcDbLine
 10
1001.0
 20
239.5625
 30
0.0
 11
1001.0
 21
198.9375
 31
0.0
  0
LINE
  5
33D
330
1D
100
AcDbEntity
  8
bottom_outsideCutPath
100
AcDbLine
 10
1001.0
 20
198.9375
 30
0.0
 11
996.0
 21
198.9375
 31
0.0
  0
LINE
  5
33E
330
1D
100
AcDbEntity
  8
bottom_outsideCutPath
100
AcDbLine
 10
996.0
 20
198.9375
 30
0.0
 11
996.0
 21
158.3125
 31
0.0
  0
LINE
  5
33F
330
1D
100
AcDbEntity
  8
bottom_outsideCutPath
100
AcDbLine
 10
996.0
 20
158.3125
 30
0.0
 11
1001.0
 21
158.3125
 31
0.0
  0
LINE
  5
340
330
1D
100
AcDbEntity
  8
bottom_outsideCutPath
100
AcDbLine
 10
1001.0
 20
158.3125
 30
0.0
 11
1001.0
 21
117.6875
 31
0.0
  0
LINE
  5
341
330
1D
100
AcDbEntity
  8
bottom_outsideCutPath
100
AcDbLine
 10
1001.0
 20
117.6875
 30
0.0
 11
996.0
 21
117.6875
 31
0.0
  0
LINE
  5
342
330
1D
100
AcDbEntity
  8
bottom_outsideCutPath
100
AcDbLine
 10
996.0
 20
117.6875
 30
0.0
 11
996.0
 21
77.0625
 31
0.0
  0
LINE
  5
343
330
1D
100
AcDbEntity
  8
bottom_outsideCutPath
100
AcDbLine
 10
996.0
 20
77.0625
 30
0.0
 11
1001.0
 21
77.0625
 31
0.0
  0
LINE
  5
344
330
1D
100
AcDbEntity
  8
bottom_outsideCutPath
100
AcDbLine
 10
1001.0
 20
77.0625
 30
0.0
 11
1001.0
 21
36.4375
 31
0.0
  0
LINE
  5
345
330
1D
100
AcDbEntity
  8
bottom_outsideCutPath
100
AcDbLine
 10
1001.0
 20
36.4375
 30
0.0
 11
1001.0
 21
8.0
 31
0.0
  0
LINE
  5
346
330
1D
100
AcDbEntity
  8
bottom_outsideCutPath
100
AcDbLine
 10
1001.0
 20
8.0
 30
0.0
 11
1051.3125
 21
8.0
 31
0.0
  0
LINE
  5
347
330
1D
100
AcDbEntity
  8
bottom_outsideCutPath
100
AcDbLine
 10
1051.3125
 20
8.0
 30
0.0
 11
1051.3125
 21
3.0
 31
0.0
  0
LINE
  5
348
330
1D
100
AcDbEntity
  8
bottom_outsideCutPath
100
AcDbLine
 10
1051.3125
 20
3.0
 30
0.0
 11
1091.9375
 21
3.0
 31
0.0
  0
LINE
  5
349
330
1D
100
AcDbEntity
  8
bottom_outsideCutPath
100
AcDbLine
 10
1091.9375
 20
3.0
 30
0.0
 11
1091.9375
 21
8.0
 31
0.0
  0
LINE
  5
34A
330
1D
100
AcDbEntity
  8
bottom_outsideCutPath
100
AcDbLine
 10
1091.9375
 20
8.0
 30
0.0
 11
1132.5625
 21
8.0
 31
0.0
  0
LINE
  5
34B
330
1D
100
AcDbEntity
  8
bottom_outsideCutPath
100
AcDbLine
 10
1132.5625
 20
8.0
 30
0.0
 11
1132.5625
 21
3.0
 31
0.0
  0
LINE
  5
34C
330
1D
100
AcDbEntity
  8
bottom_outsideCutPath
100
AcDbLine
 10
1132.5625
 20
3.0
 30
0.0
 11
1173.1875
 21
3.0
 31
0.0
  0
LINE
  5
34D
330
1D
100
AcDbEntity
  8
bottom_outsideCutPath
100
AcDbLine
 10
1173.1875
 20
3.0
 30
0.0
 11
1173.1875
 21
8.0
 31
0.0
  0
LINE
  5
34E
330
1D
100
AcDbEntity
  8
bottom_outsideCutPath
100
AcDbLine
 10
1173.1875
 20
8.0
 30
0.0
 11
1213.8125
 21
8.0
 31
0.0
  0
LINE
  5
34F
330
1D
100
AcDbEntity
  8
bottom_outsideCutPath
100
AcDbLine
 10
1213.8125
 20
8.0
 30
0.0
 11
1213.8125
 21
3.0
 31
0.0
  0
LINE
  5
350
330
1D
100
AcDbEntity
  8
bottom_outsideCutPath
100
AcDbLine
 10
1213.8125
 20
3.0
 30
0.0
 11
1254.4375
 21
3.0
 31
0.0
  0
LINE
  5
351
330
1D
100
AcDbEntity
  8
bottom_outsideCutPath
100
AcDbLine
 10
1254.4375
 20
3.0
 30
0.0
 11
1254.4375
 21
8.0
 31
0.0
  0
LINE
  5
352
330
1D
100
AcDbEntity
  8
bottom_outsideCutPath
100
AcDbLine
 10
1254.4375
 20
8.0
 30
0.0
 11
1295.0625
 21
8.0
 31
0.0
  0
LINE
  5
353
330
1D
100
AcDbEntity
  8
bottom_outsideCutPath
100
AcDbLine
 10
1295.0625
 20
8.0
 30
0.0
 11
1295.0625
 21
3.0
 31
0.0
  0
LINE
  5
354
330
1D
100
AcDbEntity
  8
bottom_outsideCutPath
100
AcDbLine
 10
1295.0625
 20
3.0
 30
0.0
 11
1335.6875
 21
3.0
 31
0.0
  0
LINE
  5
355
330
1D
100
AcDbEntity
  8
bottom_outsideCutPath
100
AcDbLine
 10
1335.6875
 20
3.0
 30
0.0
 11
1335.6875
 21
8.0
 31
0.0
  0
LINE
  5
356
330
1D
100
AcDbEntity
  8
bottom_outsideCutPath
100
AcDbLine
 10
1335.6875
 20
8.0
 30
0.0
 11
1376.3125
 21
8.0
 31
0.0
  0
LINE
  5
357
330
1D
100
AcDbEntity
  8
bottom_outsideCutPath
100
AcDbLine
 10
1376.3125
 20
8.0
 30
0.0
 11
1386.0
 21
8.0
 31
0.0
  0
LINE
  5
358
330
1D
100
AcDbEntity
  8
bottom_outsideCutPath
100
AcDbLine
 10
1386.0
 20
8.0
 30
0.0
 11
1386.0
 21
77.0625
 31
0.0
  0
LINE
  5
359
330
1D
100
AcDbEntity
  8
bottom_outsideCutPath
100
AcDbLine
 10
1386.0
 20
77.0625
 30
0.0
 11
1391.0
 21
77.0625
 31
0.0
  0
LINE
  5
35A
330
1D
100
AcDbEntity
  8
bottom_outsideCutPath
100
AcDbLine
 10
1391.0
 20
77.0625
 30
0.0
 11
1391.0
 21
117.6875
 31
0.0
  0
LINE
  5
35B
330
1D
100
AcDbEntity
  8
bottom_outsideCutPath
100
AcDbLine
 10
1391.0
 20
117.6875
 30
0.0
 11
1386.0
 21
117.6875
 31
0.0
  0
LINE
  5
35C
330
1D
100
AcDbEntity
  8
bottom_outsideCutPath
100
AcDbLine
 10
1386.0
 20
117.6875
 30
0.0
 11
1386.0
 21
158.3125
 31
0.0
  0
LINE
  5
35D
330
1D
100
AcDbEntity
  8
bottom_outsideCutPath
100
AcDbLine
 10
1386.0
 20
158.3125
 30
0.0
 11
1391.0
 21
158.3125
 31
0.0
  0
LINE
  5
35E
330
1D
100
AcDbEntity
  8
bottom_outsideCutPath
100
AcDbLine
 10
1391.0
 20
158.3125
 30
0.0
 11
1391.0
 21
198.9375
 31
0.0
  0
LINE
  5
35F
330
1D
100
AcDbEntity
  8
bottom_outsideCutPath
100
AcDbLine
 10
1391.0
 20
198.9375
 30
0.0
 11
1386.0
 21
198.9375
 31
0.0
  0
LINE
  5
360
330
1D
100
AcDbEntity
  8
bottom_outsideCutPath
100
AcDbLine
 10
1386.0
 20
198.9375
 30
0.0
 11
1386.0
 21
239.5625
 31
0.0
  0
LINE
  5
361
330
1D
100
AcDbEntity
  8
bottom_outsideCutPath
100
AcDbLine
 10
1386.0
 20
239.5625
 30
0.0
 11
1391.0
 21
239.5625
 31
0.0
  0
LINE
  5
362
330
1D
100
AcDbEntity
  8
bottom_outsideCutPath
100
AcDbLine
 10
1391.0
 20
239.5625
 30
0.0
 11
1391.0
 21
280.1875
 31
0.0
  0
LINE
  5
363
330
1D
100
AcDbEntity
  8
bottom_outsideCutPath
100
AcDbLine
 10
1391.0
 20
280.1875
 30
0.0
 11
1386.0
 21
280.1875
 31
0.0
  0
LINE
  5
364
330
1D
100
AcDbEntity
  8
bottom_outsideCutPath
100
AcDbLine
 10
1386.0
 20
280.1875
 30
0.0
 11
1386.0
 21
320.8125
 31
0.0
  0
LINE
  5
365
330
1D
100
AcDbEntity
  8
bottom_outsideCutPath
100
AcDbLine
 10
1386.0
 20
320.8125
 30
0.0
 11
1391.0
 21
320.8125
 31
0.0
  0
LINE
  5
366
330
1D
100
AcDbEntity
  8
bottom_outsideCutPath
100
AcDbLine
 10
1391.0
 20
320.8125
 30
0.0
 11
1391.0
 21
361.4375
 31
0.0
  0
LINE
  5
367
330
1D
100
AcDbEntity
  8
bottom_outsideCutPath
100
AcDbLine
 10
1391.0
 20
361.4375
 30
0.0
 11
1386.0
 21
361.4375
 31
0.0
  0
LINE
  5
368
330
1D
100
AcDbEntity
  8
bottom_outsideCutPath
100
AcDbLine
 10
1386.0
 20
361.4375
 30
0.0
 11
1386.0
 21
402.0625
 31
0.0
  0
LINE
  5
369
330
1D
100
AcDbEntity
  8
bottom_outsideCutPath
100
AcDbLine
 10
1386.0
 20
402.0625
 30
0.0
 11
1391.0
 21
402.0625
 31
0.0
  0
LINE
  5
36A
330
1D
100
AcDbEntity
  8
bottom_outsideCutPath
100
AcDbLine
 10
1391.0
 20
402.0625
 30
0.0
 11
1391.0
 21
442.6875
 31
0.0
  0
LINE
  5
36B
330
1D
100
AcDbEntity
  8
bottom_outsideCutPath
100
AcDbLine
 10
1391.0
 20
442.6875
 30
0.0
 11
1386.0
 21
442.6875
 31
0.0
  0
LINE
  5
36C
330
1D
100
AcDbEntity
  8
bottom_outsideCutPath
100
AcDbLine
 10
1386.0
 20
442.6875
 30
0.0
 11
1386.0
 21
483.3125
 31
0.0
  0
LINE
  5
36D
330
1D
100
AcDbEntity
  8
bottom_outsideCutPath
100
AcDbLine
 10
1386.0
 20
483.3125
 30
0.0
 11
1391.0
 21
483.3125
 31
0.0
  0
LINE
  5
36E
330
1D
100
AcDbEntity
  8
bottom_outsideCutPath
100
AcDbLine
 10
1391.0
 20
483.3125
 30
0.0
 11
1391.0
 21
523.9375
 31
0.0
  0
LINE
  5
36F
330
1D
100
AcDbEntity
  8
bottom_outsideCutPath
100
AcDbLine
 10
1391.0
 20
523.9375
 30
0.0
 11
1386.0
 21
523.9375
 31
0.0
  0
LINE
  5
370
330
1D
100
AcDbEntity
  8
bottom_outsideCutPath
100
AcDbLine
 10
1386.0
 20
523.9375
 30
0.0
 11
1386.0
 21
564.5625
 31
0.0
  0
LINE
  5
371
330
1D
100
AcDbEntity
  8
bottom_outsideCutPath
100
AcDbLine
 10
1386.0
 20
564.5625
 30
0.0
 11
1386.0
 21
593.0
 31
0.0
  0
LINE
  5
372
330
1D
100
AcDbEntity
  8
bottom_outsideCutPath
100
AcDbLine
 10
1386.0
 20
593.0
 30
0.0
 11
1335.6875
 21
593.0
 31
0.0
  0
LINE
  5
373
330
1D
100
AcDbEntity
  8
bottom_outsideCutPath
100
AcDbLine
 10
1335.6875
 20
593.0
 30
0.0
 11
1335.6875
 21
598.0
 31
0.0
  0
LINE
  5
374
330
1D
100
AcDbEntity
  8
bottom_outsideCutPath
100
AcDbLine
 10
1335.6875
 20
598.0
 30
0.0
 11
1295.0625
 21
598.0
 31
0.0
  0
LINE
  5
375
330
1D
100
AcDbEntity
  8
bottom_outsideCutPath
100
AcDbLine
 10
1295.0625
 20
598.0
 30
0.0
 11
1295.0625
 21
593.0
 31
0.0
  0
LINE
  5
376
330
1D
100
AcDbEntity
  8
bottom_outsideCutPath
100
AcDbLine
 10
1295.0625
 20
593.0
 30
0.0
 11
1254.4375
 21
593.0
 31
0.0
  0
LINE
  5
377
330
1D
100
AcDbEntity
  8
bottom_outsideCutPath
100
AcDbLine
 10
1254.4375
 20
593.0
 30
0.0
 11
1254.4375
 21
598.0
 31
0.0
  0
LINE
  5
378
330
1D
100
AcDbEntity
  8
bottom_outsideCutPath
100
AcDbLine
 10
1254.4375
 20
598.0
 30
0.0
 11
1213.8125
 21
598.0
 31
0.0
  0
LINE
  5
379
330
1D
100
AcDbEntity
  8
bottom_outsideCutPath
100
AcDbLine
 10
1213.8125
 20
598.0
 30
0.0
 11
1213.8125
 21
593.0
 31
0.0
  0
LINE
  5
37A
330
1D
100
AcDbEntity
  8
bottom_outsideCutPath
100
AcDbLine
 10
1213.8125
 20
593.0
 30
0.0
 11
1173.1875
 21
593.0
 31
0.0
  0
LINE
  5
37B
330
1D
100
AcDbEntity
  8
bottom_outsideCutPath
100
AcDbLine
 10
1173.1875
 20
593.0
 30
0.0
 11
1173.1875
 21
598.0
 31
0.0
  0
LINE
  5
37C
330
1D
100
AcDbEntity
  8
bottom_outsideCutPath
100
AcDbLine
 10
1173.1875
 20
598.0
 30
0.0
 11
1132.5625
 21
598.0
 31
0.0
  0
LINE
  5
37D
330
1D
100
AcDbEntity
  8
bottom_outsideCutPath
100
AcDbLine
 10
1132.5625
 20
598.0
 30
0.0
 11
1132.5625
 21
593.0
 31
0.0
  0
LINE
  5
37E
330
1D
100
AcDbEntity
  8
bottom_outsideCutPath
100
AcDbLine
 10
1132.5625
 20
593.0
 30
0.0
 11
1091.9375
 21
593.0
 31
0.0
  0
LINE
  5
37F
330
1D
100
AcDbEntity
  8
bottom_outsideCutPath
100
AcDbLine
 10
1091.9375
 20
593.0
 30
0.0
 11
1091.9375
 21
598.0
 31
0.0
  0
LINE
  5
380
330
1D
100
AcDbEntity
  8
bottom_outsideCutPath
100
AcDbLine
 10
1091.9375
 20
598.0
 30
0.0
 11
1051.3125
 21
598.0
 31
0.0
  0
LINE
  5
381
330
1D
100
AcDbEntity
  8
bottom_outsideCutPath
100
AcDbLine
 10
1051.3125
 20
598.0
 30
0.0
 11
1051.3125
 21
593.0
 31
0.0
  0
LINE
  5
382
330
1D
100
AcDbEntity
  8
bottom_outsideCutPath
100
AcDbLine
 10
1051.3125
 20
593.0
 30
0.0
 11
1010.6875
 21
593.0
 31
0.0
  0
LINE
  5
383
330
1D
100
AcDbEntity
  8
bottom_outsideCutPath
100
AcDbLine
 10
1010.6875
 20
593.0
 30
0.0
 11
1001.0
 21
593.0
 31
0.0
  0
ENDSEC
  0
SECTION
  2
OBJECTS
  0
DICTIONARY
  5
C
330
0
100
AcDbDictionary
281
     1
  3
ACAD_GROUP
350
D
  3
ACAD_LAYOUT
350
1A
  3
ACAD_MLINESTYLE
350
17
  3
ACAD_PLOTSETTINGS
350
19
  3
ACAD_PLOTSTYLENAME
350
E
  3
ACAD_SCALELIST
350
48B
  3
APPDATA
350
4D2
  3
DWGPROPS
350
4D5
  0
DICTIONARY
  5
4D3
330
1D
100
AcDbDictionary
280
     1
281
     1
  3
DIM_BOUNDING_BOXES_V1
360
4D4
  0
DICTIONARY
  5
D
102
{ACAD_REACTORS
330
C
102
}
330
C
100
AcDbDictionary
281
     1
  0
DICTIONARY
  5
1A
102
{ACAD_REACTORS
330
C
102
}
330
C
100
AcDbDictionary
281
     1
  3
Arkusz1
350
1C
  3
Model
350
1E
  0
DICTIONARY
  5
17
102
{ACAD_REACTORS
330
C
102
}
330
C
100
AcDbDictionary
281
     1
  3
Standard
350
18
  0
DICTIONARY
  5
19
102
{ACAD_REACTORS
330
C
102
}
330
C
100
AcDbDictionary
281
     1
  0
ACDBDICTIONARYWDFLT
  5
E
102
{ACAD_REACTORS
330
C
102
}
330
C
100
AcDbDictionary
281
     1
  3
Normal
350
F
100
AcDbDictionaryWithDefault
340
F
  0
DICTIONARY
  5
48B
102
{ACAD_REACTORS
330
C
102
}
330
C
100
AcDbDictionary
281
     1
  3
A0
350
48C
  3
A1
350
48D
  3
A2
350
48E
  3
A3
350
48F
  3
A4
350
490
  3
A5
350
491
  3
A6
350
492
  3
A7
350
493
  3
A8
350
494
  3
A9
350
495
  3
B0
350
496
  3
B1
350
497
  3
B2
350
498
  3
B3
350
499
  3
B4
350
49A
  3
B5
350
49B
  3
B6
350
49C
  3
B7
350
49D
  3
B8
350
49E
  3
B9
350
49F
  3
C0
350
4A0
  3
C1
350
4A1
  3
C2
350
4A2
  3
C3
350
4A3
  3
C4
350
4A4
  3
C5
350
4A5
  3
C6
350
4A6
  3
C7
350
4A7
  3
C8
350
4A8
  3
C9
350
4A9
  3
D0
350
4AA
  3
D1
350
4AB
  3
D2
350
4AC
  0
DICTIONARY
  5
4D2
102
{ACAD_REACTORS
330
C
102
}
330
C
100
AcDbDictionary
281
     1
  0
XRECORD
  5
4D5
102
{ACAD_REACTORS
330
C
102
}
330
C
100
AcDbXrecord
280
     1
  1
DWGPROPS COOKIE
  2

  3

  4

  6

  7

  8
dbank
  9

300
=
301
=
302
=
303
=
304
=
305
=
306
=
307
=
308
=
309
=
 40
0.0
 41
2460417.65607713
 42
2460417.656960717
  1

 90
        0
  0
DICTIONARY
  5
4D4
102
{ACAD_REACTORS
330
4D3
102
}
330
4D3
100
AcDbDictionary
281
     1
  0
LAYOUT
  5
1C
102
{ACAD_REACTORS
330
1A
102
}
330
1A
100
AcDbPlotSettings
  1

  2
none_device
  4

  6

 40
0.0
 41
0.0
 42
0.0
 43
0.0
 44
0.0
 45
0.0
 46
0.0
 47
0.0
 48
0.0
 49
0.0
140
0.0
141
0.0
142
1.0
143
1.0
 70
   688
 72
     0
 73
     0
 74
     5
  7

 75
    16
147
1.0
148
0.0
149
0.0
100
AcDbLayout
  1
Arkusz1
 70
     1
 71
     1
 10
0.0
 20
0.0
 11
0.0
 21
0.0
 12
0.0
 22
0.0
 32
0.0
 14
1.000000000000000E+20
 24
1.000000000000000E+20
 34
1.000000000000000E+20
 15
-1.000000000000000E+20
 25
-1.000000000000000E+20
 35
-1.000000000000000E+20
146
0.0
 13
0.0
 23
0.0
 33
0.0
 16
1.0
 26
0.0
 36
0.0
 17
0.0
 27
1.0
 37
0.0
 76
     0
330
1B
  0
LAYOUT
  5
1E
102
{ACAD_REACTORS
330
1A
102
}
330
1A
100
AcDbPlotSettings
  1

  2
none_device
  4
Letter_(8.50_x_11.00_Inches)
  6

 40
6.35
 41
6.35
 42
6.35
 43
6.35
 44
215.9
 45
279.4
 46
0.0
 47
0.0
 48
0.0
 49
0.0
140
0.0
141
0.0
142
1.0
143
1.0
 70
  1712
 72
     0
 73
     0
 74
     0
  7

 75
     0
147
1.0
148
0.0
149
0.0
100
AcDbLayout
  1
Model
 70
     1
 71
     0
 10
0.0
 20
0.0
 11
12.0
 21
9.0
 12
0.0
 22
0.0
 32
0.0
 14
996.0
 24
3.0
 34
0.0
 15
1391.0
 25
598.0
 35
0.0
146
0.0
 13
0.0
 23
0.0
 33
0.0
 16
1.0
 26
0.0
 36
0.0
 17
0.0
 27
1.0
 37
0.0
 76
     0
330
1D
331
22
  0
MLINESTYLE
  5
18
102
{ACAD_REACTORS
330
17
102
}
330
17
100
AcDbMlineStyle
  2
Standard
 70
     0
  3

 62
   256
 51
90.0
 52
90.0
 71
     2
 49
0.5
 62
   256
  6
BYLAYER
 49
-0.5
 62
   256
  6
BYLAYER
  0
ACDBPLACEHOLDER
  5
F
102
{ACAD_REACTORS
330
E
102
}
330
E
  0
SCALE
  5
48C
102
{ACAD_REACTORS
330
48B
102
}
330
48B
100
AcDbScale
 70
     0
300
1:1
140
1.0
141
1.0
290
     1
  0
SCALE
  5
48D
102
{ACAD_REACTORS
330
48B
102
}
330
48B
100
AcDbScale
 70
     0
300
1:2
140
1.0
141
2.0
290
     0
  0
SCALE
  5
48E
102
{ACAD_REACTORS
330
48B
102
}
330
48B
100
AcDbScale
 70
     0
300
1:4
140
1.0
141
4.0
290
     0
  0
SCALE
  5
48F
102
{ACAD_REACTORS
330
48B
102
}
330
48B
100
AcDbScale
 70
     0
300
1:5
140
1.0
141
5.0
290
     0
  0
SCALE
  5
490
102
{ACAD_REACTORS
330
48B
102
}
330
48B
100
AcDbScale
 70
     0
300
1:8
140
1.0
141
8.0
290
     0
  0
SCALE
  5
491
102
{ACAD_REACTORS
330
48B
102
}
330
48B
100
AcDbScale
 70
     0
300
1:10
140
1.0
141
10.0
290
     0
  0
SCALE
  5
492
102
{ACAD_REACTORS
330
48B
102
}
330
48B
100
AcDbScale
 70
     0
300
1:16
140
1.0
141
16.0
290
     0
  0
SCALE
  5
493
102
{ACAD_REACTORS
330
48B
102
}
330
48B
100
AcDbScale
 70
     0
300
1:20
140
1.0
141
20.0
290
     0
  0
SCALE
  5
494
102
{ACAD_REACTORS
330
48B
102
}
330
48B
100
AcDbScale
 70
     0
300
1:30
140
1.0
141
30.0
290
     0
  0
SCALE
  5
495
102
{ACAD_REACTORS
330
48B
102
}
330
48B
100
AcDbScale
 70
     0
300
1:40
140
1.0
141
40.0
290
     0
  0
SCALE
  5
496
102
{ACAD_REACTORS
330
48B
102
}
330
48B
100
AcDbScale
 70
     0
300
1:50
140
1.0
141
50.0
290
     0
  0
SCALE
  5
497
102
{ACAD_REACTORS
330
48B
102
}
330
48B
100
AcDbScale
 70
     0
300
1:100
140
1.0
141
100.0
290
     0
  0
SCALE
  5
498
102
{ACAD_REACTORS
330
48B
102
}
330
48B
100
AcDbScale
 70
     0
300
2:1
140
2.0
141
1.0
290
     0
  0
SCALE
  5
499
102
{ACAD_REACTORS
330
48B
102
}
330
48B
100
AcDbScale
 70
     0
300
4:1
140
4.0
141
1.0
290
     0
  0
SCALE
  5
49A
102
{ACAD_REACTORS
330
48B
102
}
330
48B
100
AcDbScale
 70
     0
300
8:1
140
8.0
141
1.0
290
     0
  0
SCALE
  5
49B
102
{ACAD_REACTORS
330
48B
102
}
330
48B
100
AcDbScale
 70
     0
300
10:1
140
10.0
141
1.0
290
     0
  0
SCALE
  5
49C
102
{ACAD_REACTORS
330
48B
102
}
330
48B
100
AcDbScale
 70
     0
300
100:1
140
100.0
141
1.0
290
     0
  0
SCALE
  5
49D
102
{ACAD_REACTORS
330
48B
102
}
330
48B
100
AcDbScale
 70
     0
300
1/128" = 1'-0"
140
0.0078125
141
12.0
290
     0
  0
SCALE
  5
49E
102
{ACAD_REACTORS
330
48B
102
}
330
48B
100
AcDbScale
 70
     0
300
1/64" = 1'-0"
140
0.015625
141
12.0
290
     0
  0
SCALE
  5
49F
102
{ACAD_REACTORS
330
48B
102
}
330
48B
100
AcDbScale
 70
     0
300
1/32" = 1'-0"
140
0.03125
141
12.0
290
     0
  0
SCALE
  5
4A0
102
{ACAD_REACTORS
330
48B
102
}
330
48B
100
AcDbScale
 70
     0
300
1/16" = 1'-0"
140
0.0625
141
12.0
290
     0
  0
SCALE
  5
4A1
102
{ACAD_REACTORS
330
48B
102
}
330
48B
100
AcDbScale
 70
     0
300
3/32" = 1'-0"
140
0.09375
141
12.0
290
     0
  0
SCALE
  5
4A2
102
{ACAD_REACTORS
330
48B
102
}
330
48B
100
AcDbScale
 70
     0
300
1/8" = 1'-0"
140
0.125
141
12.0
290
     0
  0
SCALE
  5
4A3
102
{ACAD_REACTORS
330
48B
102
}
330
48B
100
AcDbScale
 70
     0
300
3/16" = 1'-0"
140
0.1875
141
12.0
290
     0
  0
SCALE
  5
4A4
102
{ACAD_REACTORS
330
48B
102
}
330
48B
100
AcDbScale
 70
     0
300
1/4" = 1'-0"
140
0.25
141
12.0
290
     0
  0
SCALE
  5
4A5
102
{ACAD_REACTORS
330
48B
102
}
330
48B
100
AcDbScale
 70
     0
300
3/8" = 1'-0"
140
0.375
141
12.0
290
     0
  0
SCALE
  5
4A6
102
{ACAD_REACTORS
330
48B
102
}
330
48B
100
AcDbScale
 70
     0
300
1/2" = 1'-0"
140
0.5
141
12.0
290
     0
  0
SCALE
  5
4A7
102
{ACAD_REACTORS
330
48B
102
}
330
48B
100
AcDbScale
 70
     0
300
3/4" = 1'-0"
140
0.75
141
12.0
290
     0
  0
SCALE
  5
4A8
102
{ACAD_REACTORS
330
48B
102
}
330
48B
100
AcDbScale
 70
     0
300
1" = 1'-0"
140
1.0
141
12.0
290
     0
  0
SCALE
  5
4A9
102
{ACAD_REACTORS
330
48B
102
}
330
48B
100
AcDbScale
 70
     0
300
1-1/2" = 1'-0"
140
1.5
141
12.0
290
     0
  0
SCALE
  5
4AA
102
{ACAD_REACTORS
330
48B
102
}
330
48B
100
AcDbScale
 70
     0
300
3" = 1'-0"
140
3.0
141
12.0
290
     0
  0
SCALE
  5
4AB
102
{ACAD_REACTORS
330
48B
102
}
330
48B
100
AcDbScale
 70
     0
300
6" = 1'-0"
140
6.0
141
12.0
290
     0
  0
SCALE
  5
4AC
102
{ACAD_REACTORS
330
48B
102
}
330
48B
100
AcDbScale
 70
     0
300
1'-0" = 1'-0"
140
12.0
141
12.0
290
     0
  0
ENDSEC
  0
EOF
