M48
; DRILL file {KiCad 9.0.4} date 2025-10-19T21:34:00+0200
; FORMAT={-:-/ absolute / metric / decimal}
; #@! TF.CreationDate,2025-10-19T21:34:00+02:00
; #@! TF.GenerationSoftware,Kicad,Pcbnew,9.0.4
; #@! TF.FileFunction,Plated,1,2,PTH
FMAT,2
METRIC
; #@! TA.AperFunction,Plated,PTH,ComponentDrill
T1C0.800
; #@! TA.AperFunction,Plated,PTH,ViaDrill
T2C1.000
; #@! TA.AperFunction,Plated,PTH,ComponentDrill
T3C1.000
%
G90
G05
T1
X84.44Y-81.165
X84.44Y-83.705
X84.44Y-86.245
X84.44Y-88.785
X84.44Y-91.325
X84.44Y-93.865
X84.44Y-96.405
X84.44Y-98.945
X84.44Y-101.485
X84.44Y-104.025
X84.44Y-106.565
X84.44Y-109.105
X84.44Y-111.645
X84.44Y-114.185
X84.44Y-116.725
X84.44Y-119.265
X84.44Y-121.805
X84.44Y-124.345
X84.44Y-126.885
X109.836Y-124.342
X109.836Y-126.882
X109.84Y-81.165
X109.84Y-83.705
X109.84Y-86.245
X109.84Y-88.785
X109.84Y-91.325
X109.84Y-93.865
X109.84Y-96.405
X109.84Y-98.945
X109.84Y-101.485
X109.84Y-104.025
X109.84Y-106.565
X109.84Y-109.105
X109.84Y-111.645
X109.84Y-114.185
X109.84Y-116.725
X109.84Y-119.265
X109.84Y-121.805
T2
X80.0Y-131.2
X82.5Y-130.0
X95.0Y-132.08
X112.5Y-130.0
T3
X75.0Y-109.5
X75.0Y-112.04
X75.0Y-114.58
X75.0Y-117.12
X75.0Y-119.66
X76.0Y-84.0
X76.0Y-86.54
X76.0Y-89.08
X76.725Y-102.0
X77.5Y-75.5
X77.54Y-109.5
X77.54Y-112.04
X77.54Y-114.58
X77.54Y-117.12
X77.54Y-119.66
X78.54Y-84.0
X78.54Y-86.54
X78.54Y-89.08
X79.265Y-102.0
X80.04Y-75.5
M30
