%TF.GenerationSoftware,KiCad,Pcbnew,9.0.4*%
%TF.CreationDate,2025-10-19T21:34:06+02:00*%
%TF.ProjectId,esp32 bluetooth,65737033-3220-4626-9c75-65746f6f7468,rev?*%
%TF.SameCoordinates,Original*%
%TF.FileFunction,Copper,L2,Bot*%
%TF.FilePolarity,Positive*%
%FSLAX46Y46*%
G04 Gerber Fmt 4.6, Leading zero omitted, Abs format (unit mm)*
G04 Created by KiCad (PCBNEW 9.0.4) date 2025-10-19 21:34:06*
%MOMM*%
%LPD*%
G01*
G04 APERTURE LIST*
G04 Aperture macros list*
%AMRoundRect*
0 Rectangle with rounded corners*
0 $1 Rounding radius*
0 $2 $3 $4 $5 $6 $7 $8 $9 X,Y pos of 4 corners*
0 Add a 4 corners polygon primitive as box body*
4,1,4,$2,$3,$4,$5,$6,$7,$8,$9,$2,$3,0*
0 Add four circle primitives for the rounded corners*
1,1,$1+$1,$2,$3*
1,1,$1+$1,$4,$5*
1,1,$1+$1,$6,$7*
1,1,$1+$1,$8,$9*
0 Add four rect primitives between the rounded corners*
20,1,$1+$1,$2,$3,$4,$5,0*
20,1,$1+$1,$4,$5,$6,$7,0*
20,1,$1+$1,$6,$7,$8,$9,0*
20,1,$1+$1,$8,$9,$2,$3,0*%
G04 Aperture macros list end*
%TA.AperFunction,ComponentPad*%
%ADD10RoundRect,0.250000X-0.600000X-0.600000X0.600000X-0.600000X0.600000X0.600000X-0.600000X0.600000X0*%
%TD*%
%TA.AperFunction,ComponentPad*%
%ADD11C,1.700000*%
%TD*%
%TA.AperFunction,ComponentPad*%
%ADD12R,2.000000X1.200000*%
%TD*%
%TA.AperFunction,ComponentPad*%
%ADD13O,2.000000X1.200000*%
%TD*%
%TA.AperFunction,ComponentPad*%
%ADD14R,1.700000X1.700000*%
%TD*%
%TA.AperFunction,ViaPad*%
%ADD15C,1.500000*%
%TD*%
%TA.AperFunction,Conductor*%
%ADD16C,0.700000*%
%TD*%
G04 APERTURE END LIST*
D10*
%TO.P,J3,1,Pin_1*%
%TO.N,/VDD*%
X75000000Y-109500000D03*
D11*
%TO.P,J3,2,Pin_2*%
%TO.N,/Debug_TMS*%
X77540000Y-109500000D03*
%TO.P,J3,3,Pin_3*%
%TO.N,GNDD*%
X75000000Y-112040000D03*
%TO.P,J3,4,Pin_4*%
%TO.N,/Debug_TCK*%
X77540000Y-112040000D03*
%TO.P,J3,5,Pin_5*%
%TO.N,GNDD*%
X75000000Y-114580000D03*
%TO.P,J3,6,Pin_6*%
%TO.N,/Debug_TDO*%
X77540000Y-114580000D03*
%TO.P,J3,7,Pin_7*%
%TO.N,GNDD*%
X75000000Y-117120000D03*
%TO.P,J3,8,Pin_8*%
%TO.N,/Debug_TDI*%
X77540000Y-117120000D03*
%TO.P,J3,9,Pin_9*%
%TO.N,GNDD*%
X75000000Y-119660000D03*
%TO.P,J3,10,Pin_10*%
%TO.N,unconnected-(J3-Pin_10-Pad10)*%
X77540000Y-119660000D03*
%TD*%
D12*
%TO.P,U2,1,3V3*%
%TO.N,/ESP_3V3*%
X84440000Y-81165000D03*
D13*
%TO.P,U2,2,CHIP_PU*%
%TO.N,/ESP_EN*%
X84440000Y-83705000D03*
%TO.P,U2,3,SENSOR_VP/GPIO36/ADC1_CH0*%
%TO.N,unconnected-(U2-SENSOR_VP{slash}GPIO36{slash}ADC1_CH0-Pad3)*%
X84440000Y-86245000D03*
%TO.P,U2,4,SENSOR_VN/GPIO39/ADC1_CH3*%
%TO.N,unconnected-(U2-SENSOR_VN{slash}GPIO39{slash}ADC1_CH3-Pad4)*%
X84440000Y-88785000D03*
%TO.P,U2,5,VDET_1/GPIO34/ADC1_CH6*%
%TO.N,unconnected-(U2-VDET_1{slash}GPIO34{slash}ADC1_CH6-Pad5)*%
X84440000Y-91325000D03*
%TO.P,U2,6,VDET_2/GPIO35/ADC1_CH7*%
%TO.N,unconnected-(U2-VDET_2{slash}GPIO35{slash}ADC1_CH7-Pad6)*%
X84440000Y-93865000D03*
%TO.P,U2,7,32K_XP/GPIO32/ADC1_CH4*%
%TO.N,unconnected-(U2-32K_XP{slash}GPIO32{slash}ADC1_CH4-Pad7)*%
X84440000Y-96405000D03*
%TO.P,U2,8,32K_XN/GPIO33/ADC1_CH5*%
%TO.N,unconnected-(U2-32K_XN{slash}GPIO33{slash}ADC1_CH5-Pad8)*%
X84440000Y-98945000D03*
%TO.P,U2,9,DAC_1/ADC2_CH8/GPIO25*%
%TO.N,unconnected-(U2-DAC_1{slash}ADC2_CH8{slash}GPIO25-Pad9)*%
X84440000Y-101485000D03*
%TO.P,U2,10,DAC_2/ADC2_CH9/GPIO26*%
%TO.N,unconnected-(U2-DAC_2{slash}ADC2_CH9{slash}GPIO26-Pad10)*%
X84440000Y-104025000D03*
%TO.P,U2,11,ADC2_CH7/GPIO27*%
%TO.N,unconnected-(U2-ADC2_CH7{slash}GPIO27-Pad11)*%
X84440000Y-106565000D03*
%TO.P,U2,12,MTMS/GPIO14/ADC2_CH6*%
%TO.N,/Debug_TMS*%
X84440000Y-109105000D03*
%TO.P,U2,13,MTDI/GPIO12/ADC2_CH5*%
%TO.N,/Debug_TDI*%
X84440000Y-111645000D03*
%TO.P,U2,14,GND*%
%TO.N,GNDD*%
X84440000Y-114185000D03*
%TO.P,U2,15,MTCK/GPIO13/ADC2_CH4*%
%TO.N,/Debug_TCK*%
X84440000Y-116725000D03*
%TO.P,U2,16,SD_DATA2/GPIO9*%
%TO.N,unconnected-(U2-SD_DATA2{slash}GPIO9-Pad16)*%
X84440000Y-119265000D03*
%TO.P,U2,17,SD_DATA3/GPIO10*%
%TO.N,unconnected-(U2-SD_DATA3{slash}GPIO10-Pad17)*%
X84440000Y-121805000D03*
%TO.P,U2,18,CMD*%
%TO.N,unconnected-(U2-CMD-Pad18)*%
X84440000Y-124345000D03*
%TO.P,U2,19,5V*%
%TO.N,unconnected-(U2-5V-Pad19)*%
X84440000Y-126885000D03*
%TO.P,U2,20,SD_CLK/GPIO6*%
%TO.N,unconnected-(U2-SD_CLK{slash}GPIO6-Pad20)*%
X109836320Y-126882280D03*
%TO.P,U2,21,SD_DATA0/GPIO7*%
%TO.N,unconnected-(U2-SD_DATA0{slash}GPIO7-Pad21)*%
X109836320Y-124342280D03*
%TO.P,U2,22,SD_DATA1/GPIO8*%
%TO.N,unconnected-(U2-SD_DATA1{slash}GPIO8-Pad22)*%
X109840000Y-121805000D03*
%TO.P,U2,23,MTDO/GPIO15/ADC2_CH3*%
%TO.N,/Debug_TDO*%
X109840000Y-119265000D03*
%TO.P,U2,24,ADC2_CH2/GPIO2*%
%TO.N,unconnected-(U2-ADC2_CH2{slash}GPIO2-Pad24)*%
X109840000Y-116725000D03*
%TO.P,U2,25,GPIO0/BOOT/ADC2_CH1*%
%TO.N,/BOOT*%
X109840000Y-114185000D03*
%TO.P,U2,26,ADC2_CH0/GPIO4*%
%TO.N,unconnected-(U2-ADC2_CH0{slash}GPIO4-Pad26)*%
X109840000Y-111645000D03*
%TO.P,U2,27,GPIO16*%
%TO.N,unconnected-(U2-GPIO16-Pad27)*%
X109840000Y-109105000D03*
%TO.P,U2,28,GPIO17*%
%TO.N,unconnected-(U2-GPIO17-Pad28)*%
X109840000Y-106565000D03*
%TO.P,U2,29,GPIO5*%
%TO.N,unconnected-(U2-GPIO5-Pad29)*%
X109840000Y-104025000D03*
%TO.P,U2,30,GPIO18*%
%TO.N,unconnected-(U2-GPIO18-Pad30)*%
X109840000Y-101485000D03*
%TO.P,U2,31,GPIO19*%
%TO.N,unconnected-(U2-GPIO19-Pad31)*%
X109840000Y-98945000D03*
%TO.P,U2,32,GND*%
%TO.N,GNDD*%
X109840000Y-96405000D03*
%TO.P,U2,33,GPIO21*%
%TO.N,unconnected-(U2-GPIO21-Pad33)*%
X109840000Y-93865000D03*
%TO.P,U2,34,U0RXD/GPIO3*%
%TO.N,/BT_UATR_RX*%
X109840000Y-91325000D03*
%TO.P,U2,35,U0TXD/GPIO1*%
%TO.N,/BT_UATR_TX*%
X109840000Y-88785000D03*
%TO.P,U2,36,GPIO22*%
%TO.N,unconnected-(U2-GPIO22-Pad36)*%
X109840000Y-86245000D03*
%TO.P,U2,37,GPIO23*%
%TO.N,unconnected-(U2-GPIO23-Pad37)*%
X109840000Y-83705000D03*
%TO.P,U2,38,GND*%
%TO.N,GNDD*%
X109840000Y-81165000D03*
%TD*%
D10*
%TO.P,ESP-Prog1,1,Pin_1*%
%TO.N,/ESP_EN*%
X76000000Y-84000000D03*
D11*
%TO.P,ESP-Prog1,2,Pin_2*%
%TO.N,+3V3*%
X78540000Y-84000000D03*
%TO.P,ESP-Prog1,3,Pin_3*%
%TO.N,/BT_UATR_TX*%
X76000000Y-86540000D03*
%TO.P,ESP-Prog1,4,Pin_4*%
%TO.N,GNDD*%
X78540000Y-86540000D03*
%TO.P,ESP-Prog1,5,Pin_5*%
%TO.N,/BT_UATR_RX*%
X76000000Y-89080000D03*
%TO.P,ESP-Prog1,6,Pin_6*%
%TO.N,/BOOT*%
X78540000Y-89080000D03*
%TD*%
D14*
%TO.P,J1,1,Pin_1*%
%TO.N,/VDD*%
X76725000Y-102000000D03*
D11*
%TO.P,J1,2,Pin_2*%
%TO.N,/ESP_3V3*%
X79265000Y-102000000D03*
%TD*%
D14*
%TO.P,J5,1,Pin_1*%
%TO.N,+3V3*%
X77500000Y-75500000D03*
D11*
%TO.P,J5,2,Pin_2*%
%TO.N,/ESP_3V3*%
X80040000Y-75500000D03*
%TD*%
D15*
%TO.N,/Debug_TDI*%
X80000000Y-131200000D03*
X95000000Y-132080000D03*
%TO.N,/Debug_TDO*%
X112500000Y-130000000D03*
X82500000Y-130000000D03*
%TD*%
D16*
%TO.N,GNDD*%
X75000000Y-133350000D02*
X75000000Y-119660000D01*
X87500000Y-117245000D02*
X87500000Y-133350000D01*
X84440000Y-114185000D02*
X87500000Y-117245000D01*
X87500000Y-133350000D02*
X75000000Y-133350000D01*
%TO.N,/Debug_TDI*%
X95000000Y-122205000D02*
X84440000Y-111645000D01*
X95000000Y-132080000D02*
X95000000Y-122205000D01*
X80000000Y-131200000D02*
X80000000Y-119580000D01*
X80000000Y-119580000D02*
X77540000Y-117120000D01*
%TO.N,GNDD*%
X75000000Y-112040000D02*
X75000000Y-114580000D01*
X79941000Y-87941000D02*
X79941000Y-95982000D01*
X79941000Y-95982000D02*
X73599000Y-102324000D01*
X73599000Y-110639000D02*
X75000000Y-112040000D01*
X73599000Y-102324000D02*
X73599000Y-110639000D01*
X75000000Y-117120000D02*
X75000000Y-119660000D01*
X75000000Y-114580000D02*
X75000000Y-117120000D01*
X78540000Y-86540000D02*
X79941000Y-87941000D01*
%TO.N,/ESP_EN*%
X85991000Y-79469686D02*
X85991000Y-82154000D01*
X85991000Y-82154000D02*
X84440000Y-83705000D01*
X76000000Y-84000000D02*
X76000000Y-74000000D01*
X76500000Y-73500000D02*
X80021314Y-73500000D01*
X80021314Y-73500000D02*
X85991000Y-79469686D01*
X76000000Y-74000000D02*
X76500000Y-73500000D01*
%TO.N,/VDD*%
X75000000Y-109500000D02*
X75000000Y-103725000D01*
X75000000Y-103725000D02*
X76725000Y-102000000D01*
%TO.N,/ESP_3V3*%
X81020000Y-100245000D02*
X81020000Y-76480000D01*
X80040000Y-75500000D02*
X81020000Y-76480000D01*
X81020000Y-76480000D02*
X84440000Y-79900000D01*
X84440000Y-79900000D02*
X84440000Y-81165000D01*
X79265000Y-102000000D02*
X81020000Y-100245000D01*
%TO.N,/Debug_TMS*%
X77540000Y-109500000D02*
X77935000Y-109105000D01*
X77935000Y-109105000D02*
X84440000Y-109105000D01*
%TO.N,/Debug_TCK*%
X82225000Y-116725000D02*
X84440000Y-116725000D01*
X77540000Y-112040000D02*
X82225000Y-116725000D01*
%TO.N,/Debug_TDO*%
X112500000Y-121925000D02*
X109840000Y-119265000D01*
X82500000Y-119540000D02*
X82500000Y-130000000D01*
X112500000Y-130000000D02*
X112500000Y-121925000D01*
X77540000Y-114580000D02*
X82500000Y-119540000D01*
%TO.N,/BT_UATR_RX*%
X73698001Y-73027793D02*
X75725794Y-71000000D01*
X112401000Y-75626794D02*
X112401000Y-88764000D01*
X112401000Y-88764000D02*
X109840000Y-91325000D01*
X73698001Y-86778001D02*
X73698001Y-73027793D01*
X75725794Y-71000000D02*
X107774206Y-71000000D01*
X76000000Y-89080000D02*
X73698001Y-86778001D01*
X107774206Y-71000000D02*
X112401000Y-75626794D01*
%TO.N,/BT_UATR_TX*%
X74599000Y-73401000D02*
X76000000Y-72000000D01*
X111500000Y-76000000D02*
X111500000Y-87125000D01*
X107500000Y-72000000D02*
X111500000Y-76000000D01*
X76000000Y-72000000D02*
X107500000Y-72000000D01*
X76000000Y-86540000D02*
X74599000Y-85139000D01*
X74599000Y-85139000D02*
X74599000Y-73401000D01*
X111500000Y-87125000D02*
X109840000Y-88785000D01*
%TO.N,/BOOT*%
X113302000Y-110723000D02*
X109840000Y-114185000D01*
X75451588Y-70000000D02*
X108048412Y-70000000D01*
X108048412Y-70000000D02*
X113302000Y-75253588D01*
X78540000Y-89080000D02*
X77120000Y-90500000D01*
X113302000Y-75253588D02*
X113302000Y-110723000D01*
X72797002Y-72654586D02*
X75451588Y-70000000D01*
X75438686Y-90500000D02*
X72797002Y-87858316D01*
X77120000Y-90500000D02*
X75438686Y-90500000D01*
X72797002Y-87858316D02*
X72797002Y-72654586D01*
%TO.N,+3V3*%
X78540000Y-80040000D02*
X77500000Y-79000000D01*
X78540000Y-84000000D02*
X78540000Y-80040000D01*
X77500000Y-79000000D02*
X77500000Y-75500000D01*
%TD*%
%TA.AperFunction,Conductor*%
%TO.N,GNDD*%
G36*
X114845788Y-55019454D02*
G01*
X114926570Y-55073430D01*
X114980546Y-55154212D01*
X114999500Y-55249500D01*
X114999500Y-134250500D01*
X114980546Y-134345788D01*
X114926570Y-134426570D01*
X114845788Y-134480546D01*
X114750500Y-134499500D01*
X72176612Y-134499500D01*
X72081324Y-134480546D01*
X72000542Y-134426570D01*
X71946566Y-134345788D01*
X71927612Y-134250503D01*
X71969771Y-88410516D01*
X71988813Y-88315249D01*
X72042863Y-88234518D01*
X72123694Y-88180615D01*
X72219000Y-88161749D01*
X72314271Y-88180791D01*
X72394837Y-88234676D01*
X75100671Y-90940510D01*
X75100673Y-90940511D01*
X75226195Y-91012981D01*
X75226198Y-91012982D01*
X75226201Y-91012984D01*
X75366211Y-91050500D01*
X75366212Y-91050500D01*
X77192474Y-91050500D01*
X77192475Y-91050500D01*
X77332485Y-91012984D01*
X77458015Y-90940510D01*
X78201873Y-90196650D01*
X78282652Y-90142676D01*
X78377940Y-90123722D01*
X78426513Y-90128506D01*
X78436535Y-90130500D01*
X78436540Y-90130500D01*
X78643463Y-90130500D01*
X78643465Y-90130500D01*
X78846420Y-90090130D01*
X79037598Y-90010941D01*
X79209655Y-89895977D01*
X79355977Y-89749655D01*
X79470941Y-89577598D01*
X79550130Y-89386420D01*
X79590500Y-89183465D01*
X79590500Y-88976535D01*
X79550130Y-88773580D01*
X79470941Y-88582402D01*
X79450295Y-88551503D01*
X79355981Y-88410350D01*
X79355979Y-88410348D01*
X79355977Y-88410345D01*
X79209655Y-88264023D01*
X79209648Y-88264018D01*
X79095805Y-88187951D01*
X79027106Y-88119252D01*
X78989927Y-88029493D01*
X78989926Y-87932338D01*
X79027106Y-87842578D01*
X79095805Y-87773879D01*
X79121099Y-87759054D01*
X79247553Y-87694622D01*
X79301716Y-87655270D01*
X78669408Y-87022962D01*
X78732993Y-87005925D01*
X78847007Y-86940099D01*
X78940099Y-86847007D01*
X79005925Y-86732993D01*
X79022962Y-86669408D01*
X79655270Y-87301716D01*
X79694624Y-87247551D01*
X79791091Y-87058224D01*
X79791095Y-87058215D01*
X79856758Y-86856123D01*
X79889999Y-86646256D01*
X79890000Y-86646244D01*
X79890000Y-86433755D01*
X79889999Y-86433743D01*
X79856758Y-86223876D01*
X79791095Y-86021784D01*
X79791091Y-86021774D01*
X79694624Y-85832448D01*
X79655270Y-85778282D01*
X79655269Y-85778282D01*
X79022962Y-86410589D01*
X79005925Y-86347007D01*
X78940099Y-86232993D01*
X78847007Y-86139901D01*
X78732993Y-86074075D01*
X78669408Y-86057037D01*
X79301717Y-85424729D01*
X79247553Y-85385377D01*
X79121098Y-85320945D01*
X79044801Y-85260797D01*
X78997329Y-85176029D01*
X78985910Y-85079548D01*
X79012281Y-84986040D01*
X79072429Y-84909743D01*
X79095795Y-84892054D01*
X79209655Y-84815977D01*
X79355977Y-84669655D01*
X79470941Y-84497598D01*
X79550130Y-84306420D01*
X79590500Y-84103465D01*
X79590500Y-83896535D01*
X79550130Y-83693580D01*
X79470941Y-83502402D01*
X79450295Y-83471503D01*
X79355981Y-83330350D01*
X79355979Y-83330348D01*
X79355977Y-83330345D01*
X79209655Y-83184023D01*
X79209651Y-83184020D01*
X79209650Y-83184019D01*
X79209651Y-83184019D01*
X79201157Y-83178344D01*
X79132460Y-83109643D01*
X79095283Y-83019882D01*
X79090500Y-82971312D01*
X79090500Y-79967525D01*
X79071389Y-79896203D01*
X79052984Y-79827515D01*
X78980510Y-79701985D01*
X78568935Y-79290410D01*
X78123430Y-78844904D01*
X78069454Y-78764123D01*
X78050500Y-78668835D01*
X78050500Y-76799500D01*
X78069454Y-76704212D01*
X78123430Y-76623430D01*
X78204212Y-76569454D01*
X78299500Y-76550500D01*
X78369745Y-76550500D01*
X78369748Y-76550500D01*
X78428231Y-76538867D01*
X78494552Y-76494552D01*
X78538867Y-76428231D01*
X78550500Y-76369748D01*
X78550500Y-75900925D01*
X78569454Y-75805637D01*
X78623430Y-75724855D01*
X78704212Y-75670879D01*
X78799500Y-75651925D01*
X78894788Y-75670879D01*
X78975570Y-75724855D01*
X79029546Y-75805637D01*
X79109056Y-75997593D01*
X79109062Y-75997603D01*
X79224018Y-76169649D01*
X79224020Y-76169651D01*
X79224023Y-76169655D01*
X79370345Y-76315977D01*
X79370348Y-76315979D01*
X79370350Y-76315981D01*
X79538346Y-76428231D01*
X79542402Y-76430941D01*
X79542404Y-76430941D01*
X79542406Y-76430943D01*
X79669854Y-76483733D01*
X79733580Y-76510130D01*
X79936535Y-76550500D01*
X79936537Y-76550500D01*
X80143466Y-76550500D01*
X80143466Y-76550499D01*
X80151519Y-76548897D01*
X80153475Y-76548509D01*
X80178001Y-76548508D01*
X80202058Y-76543723D01*
X80226107Y-76548506D01*
X80250630Y-76548506D01*
X80273291Y-76557892D01*
X80297346Y-76562677D01*
X80317735Y-76576300D01*
X80340390Y-76585684D01*
X80378128Y-76616653D01*
X80396570Y-76635095D01*
X80450546Y-76715877D01*
X80469500Y-76811165D01*
X80469500Y-99913835D01*
X80450546Y-100009123D01*
X80396570Y-100089905D01*
X80396569Y-100089905D01*
X79603127Y-100883346D01*
X79522346Y-100937322D01*
X79427058Y-100956276D01*
X79378490Y-100951493D01*
X79368473Y-100949500D01*
X79368465Y-100949500D01*
X79161535Y-100949500D01*
X79103052Y-100961133D01*
X78958578Y-100989870D01*
X78767406Y-101069056D01*
X78767396Y-101069062D01*
X78595350Y-101184018D01*
X78449018Y-101330350D01*
X78334062Y-101502396D01*
X78334056Y-101502406D01*
X78254546Y-101694362D01*
X78200569Y-101775144D01*
X78119788Y-101829120D01*
X78024500Y-101848074D01*
X77929212Y-101829120D01*
X77848430Y-101775143D01*
X77794454Y-101694362D01*
X77775500Y-101599074D01*
X77775500Y-101130254D01*
X77770640Y-101105821D01*
X77763867Y-101071769D01*
X77762058Y-101069062D01*
X77719554Y-101005451D01*
X77719552Y-101005448D01*
X77719548Y-101005445D01*
X77653232Y-100961133D01*
X77628813Y-100956276D01*
X77594748Y-100949500D01*
X75855252Y-100949500D01*
X75821187Y-100956276D01*
X75796767Y-100961133D01*
X75730451Y-101005445D01*
X75730445Y-101005451D01*
X75686133Y-101071767D01*
X75674500Y-101130254D01*
X75674500Y-102168835D01*
X75655546Y-102264123D01*
X75601570Y-102344905D01*
X74559488Y-103386987D01*
X74487018Y-103512509D01*
X74487015Y-103512516D01*
X74449500Y-103652525D01*
X74449500Y-108228720D01*
X74430546Y-108324008D01*
X74376570Y-108404790D01*
X74295788Y-108458766D01*
X74282741Y-108463746D01*
X74187121Y-108497205D01*
X74187116Y-108497208D01*
X74077853Y-108577847D01*
X74077847Y-108577853D01*
X73997208Y-108687116D01*
X73997206Y-108687119D01*
X73952353Y-108815304D01*
X73949500Y-108845726D01*
X73949500Y-110154273D01*
X73952353Y-110184695D01*
X73952353Y-110184697D01*
X73952354Y-110184699D01*
X73997207Y-110312882D01*
X74077850Y-110422150D01*
X74187118Y-110502793D01*
X74187122Y-110502794D01*
X74199634Y-110509407D01*
X74275025Y-110570688D01*
X74321226Y-110656155D01*
X74331203Y-110752796D01*
X74303438Y-110845899D01*
X74242157Y-110921290D01*
X74238317Y-110924270D01*
X74238281Y-110924728D01*
X74870591Y-111557037D01*
X74807007Y-111574075D01*
X74692993Y-111639901D01*
X74599901Y-111732993D01*
X74534075Y-111847007D01*
X74517037Y-111910590D01*
X73884728Y-111278281D01*
X73845380Y-111332441D01*
X73845372Y-111332454D01*
X73748908Y-111521774D01*
X73748904Y-111521784D01*
X73683241Y-111723876D01*
X73650000Y-111933743D01*
X73650000Y-112146256D01*
X73683241Y-112356123D01*
X73748904Y-112558215D01*
X73748908Y-112558225D01*
X73845371Y-112747545D01*
X73845375Y-112747551D01*
X73884729Y-112801717D01*
X74517037Y-112169408D01*
X74534075Y-112232993D01*
X74599901Y-112347007D01*
X74692993Y-112440099D01*
X74807007Y-112505925D01*
X74870589Y-112522962D01*
X74238282Y-113155269D01*
X74240298Y-113180889D01*
X74273559Y-113271049D01*
X74272399Y-113355674D01*
X74249884Y-113476331D01*
X74870591Y-114097037D01*
X74807007Y-114114075D01*
X74692993Y-114179901D01*
X74599901Y-114272993D01*
X74534075Y-114387007D01*
X74517037Y-114450590D01*
X73884728Y-113818281D01*
X73845380Y-113872441D01*
X73845372Y-113872454D01*
X73748908Y-114061774D01*
X73748904Y-114061784D01*
X73683241Y-114263876D01*
X73650000Y-114473743D01*
X73650000Y-114686256D01*
X73683241Y-114896123D01*
X73748904Y-115098215D01*
X73748908Y-115098225D01*
X73845371Y-115287545D01*
X73845375Y-115287551D01*
X73884729Y-115341717D01*
X74517037Y-114709408D01*
X74534075Y-114772993D01*
X74599901Y-114887007D01*
X74692993Y-114980099D01*
X74807007Y-115045925D01*
X74870589Y-115062962D01*
X74238282Y-115695269D01*
X74240298Y-115720889D01*
X74273559Y-115811049D01*
X74272399Y-115895674D01*
X74249884Y-116016331D01*
X74870591Y-116637037D01*
X74807007Y-116654075D01*
X74692993Y-116719901D01*
X74599901Y-116812993D01*
X74534075Y-116927007D01*
X74517037Y-116990590D01*
X73884728Y-116358281D01*
X73845380Y-116412441D01*
X73845372Y-116412454D01*
X73748908Y-116601774D01*
X73748904Y-116601784D01*
X73683241Y-116803876D01*
X73650000Y-117013743D01*
X73650000Y-117226256D01*
X73683241Y-117436123D01*
X73748904Y-117638215D01*
X73748908Y-117638225D01*
X73845371Y-117827545D01*
X73845375Y-117827551D01*
X73884729Y-117881717D01*
X74517037Y-117249408D01*
X74534075Y-117312993D01*
X74599901Y-117427007D01*
X74692993Y-117520099D01*
X74807007Y-117585925D01*
X74870589Y-117602962D01*
X74238282Y-118235269D01*
X74240298Y-118260889D01*
X74273559Y-118351049D01*
X74272399Y-118435674D01*
X74249884Y-118556331D01*
X74870591Y-119177037D01*
X74807007Y-119194075D01*
X74692993Y-119259901D01*
X74599901Y-119352993D01*
X74534075Y-119467007D01*
X74517037Y-119530590D01*
X73884728Y-118898281D01*
X73845380Y-118952441D01*
X73845372Y-118952454D01*
X73748908Y-119141774D01*
X73748904Y-119141784D01*
X73683241Y-119343876D01*
X73650000Y-119553743D01*
X73650000Y-119766256D01*
X73683241Y-119976123D01*
X73748904Y-120178215D01*
X73748908Y-120178225D01*
X73845371Y-120367545D01*
X73845375Y-120367551D01*
X73884729Y-120421717D01*
X74517037Y-119789408D01*
X74534075Y-119852993D01*
X74599901Y-119967007D01*
X74692993Y-120060099D01*
X74807007Y-120125925D01*
X74870589Y-120142962D01*
X74238282Y-120775269D01*
X74238282Y-120775270D01*
X74292448Y-120814624D01*
X74481774Y-120911091D01*
X74481784Y-120911095D01*
X74683876Y-120976758D01*
X74893743Y-121009999D01*
X74893756Y-121010000D01*
X75106244Y-121010000D01*
X75106256Y-121009999D01*
X75316123Y-120976758D01*
X75518215Y-120911095D01*
X75518224Y-120911091D01*
X75707551Y-120814624D01*
X75761716Y-120775270D01*
X75129408Y-120142962D01*
X75192993Y-120125925D01*
X75307007Y-120060099D01*
X75400099Y-119967007D01*
X75465925Y-119852993D01*
X75482962Y-119789408D01*
X76115270Y-120421716D01*
X76154622Y-120367553D01*
X76219054Y-120241099D01*
X76279202Y-120164801D01*
X76363969Y-120117329D01*
X76460450Y-120105910D01*
X76553958Y-120132281D01*
X76630256Y-120192429D01*
X76647951Y-120215805D01*
X76724023Y-120329655D01*
X76870345Y-120475977D01*
X76870348Y-120475979D01*
X76870350Y-120475981D01*
X77025174Y-120579430D01*
X77042402Y-120590941D01*
X77042404Y-120590941D01*
X77042406Y-120590943D01*
X77169854Y-120643733D01*
X77233580Y-120670130D01*
X77436535Y-120710500D01*
X77436537Y-120710500D01*
X77643463Y-120710500D01*
X77643465Y-120710500D01*
X77846420Y-120670130D01*
X78037598Y-120590941D01*
X78209655Y-120475977D01*
X78355977Y-120329655D01*
X78470941Y-120157598D01*
X78550130Y-119966420D01*
X78590500Y-119763465D01*
X78590500Y-119556535D01*
X78590500Y-119550165D01*
X78609454Y-119454877D01*
X78663430Y-119374095D01*
X78744212Y-119320119D01*
X78839500Y-119301165D01*
X78934788Y-119320119D01*
X79015570Y-119374095D01*
X79376570Y-119735095D01*
X79430546Y-119815877D01*
X79449500Y-119911165D01*
X79449500Y-130303151D01*
X79430546Y-130398439D01*
X79376572Y-130479217D01*
X79261698Y-130594092D01*
X79261695Y-130594095D01*
X79157678Y-130749768D01*
X79157675Y-130749773D01*
X79086027Y-130922746D01*
X79049500Y-131106385D01*
X79049500Y-131293614D01*
X79086027Y-131477253D01*
X79157675Y-131650226D01*
X79157678Y-131650231D01*
X79261698Y-131805908D01*
X79394092Y-131938302D01*
X79549769Y-132042322D01*
X79549771Y-132042322D01*
X79549773Y-132042324D01*
X79722746Y-132113972D01*
X79722747Y-132113972D01*
X79722749Y-132113973D01*
X79906384Y-132150500D01*
X79906386Y-132150500D01*
X80093614Y-132150500D01*
X80093616Y-132150500D01*
X80277251Y-132113973D01*
X80450231Y-132042322D01*
X80605908Y-131938302D01*
X80738302Y-131805908D01*
X80842322Y-131650231D01*
X80913973Y-131477251D01*
X80950500Y-131293616D01*
X80950500Y-131106384D01*
X80913973Y-130922749D01*
X80910338Y-130913973D01*
X80842324Y-130749773D01*
X80842321Y-130749768D01*
X80746194Y-130605904D01*
X80738302Y-130594092D01*
X80623427Y-130479217D01*
X80569454Y-130398439D01*
X80550500Y-130303151D01*
X80550500Y-119507528D01*
X80550500Y-119507525D01*
X80512984Y-119367515D01*
X80512980Y-119367508D01*
X80504941Y-119353582D01*
X80504941Y-119353583D01*
X80477726Y-119306446D01*
X80440510Y-119241985D01*
X78656653Y-117458128D01*
X78602677Y-117377346D01*
X78583723Y-117282058D01*
X78583800Y-117275854D01*
X78584333Y-117254467D01*
X78590500Y-117223465D01*
X78590500Y-117016535D01*
X78590289Y-117015478D01*
X78590577Y-117003961D01*
X78600571Y-116959534D01*
X78609454Y-116914877D01*
X78611207Y-116912252D01*
X78611900Y-116909174D01*
X78638127Y-116871962D01*
X78663430Y-116834095D01*
X78666054Y-116832341D01*
X78667872Y-116829763D01*
X78706342Y-116805422D01*
X78744212Y-116780119D01*
X78747307Y-116779503D01*
X78749974Y-116777816D01*
X78794848Y-116770046D01*
X78839500Y-116761165D01*
X78842594Y-116761780D01*
X78845704Y-116761242D01*
X78890130Y-116771236D01*
X78934788Y-116780119D01*
X78937412Y-116781872D01*
X78940491Y-116782565D01*
X78977702Y-116808792D01*
X79015570Y-116834095D01*
X81876570Y-119695095D01*
X81930546Y-119775877D01*
X81949500Y-119871165D01*
X81949500Y-129103151D01*
X81930546Y-129198439D01*
X81876572Y-129279217D01*
X81761698Y-129394092D01*
X81761695Y-129394095D01*
X81657678Y-129549768D01*
X81657675Y-129549773D01*
X81586027Y-129722746D01*
X81549500Y-129906385D01*
X81549500Y-130093614D01*
X81586027Y-130277253D01*
X81657675Y-130450226D01*
X81657678Y-130450231D01*
X81761698Y-130605908D01*
X81894092Y-130738302D01*
X82049769Y-130842322D01*
X82049771Y-130842322D01*
X82049773Y-130842324D01*
X82222746Y-130913972D01*
X82222747Y-130913972D01*
X82222749Y-130913973D01*
X82406384Y-130950500D01*
X82406386Y-130950500D01*
X82593614Y-130950500D01*
X82593616Y-130950500D01*
X82777251Y-130913973D01*
X82950231Y-130842322D01*
X83105908Y-130738302D01*
X83238302Y-130605908D01*
X83342322Y-130450231D01*
X83413973Y-130277251D01*
X83450500Y-130093616D01*
X83450500Y-129906384D01*
X83413973Y-129722749D01*
X83342322Y-129549769D01*
X83238302Y-129394092D01*
X83123427Y-129279217D01*
X83069454Y-129198439D01*
X83050500Y-129103151D01*
X83050500Y-127628717D01*
X83069454Y-127533429D01*
X83123430Y-127452647D01*
X83204212Y-127398671D01*
X83299500Y-127379717D01*
X83394788Y-127398671D01*
X83475566Y-127452644D01*
X83529711Y-127506789D01*
X83529714Y-127506791D01*
X83660819Y-127594393D01*
X83660820Y-127594393D01*
X83660821Y-127594394D01*
X83806503Y-127654737D01*
X83806505Y-127654737D01*
X83806507Y-127654738D01*
X83947479Y-127682779D01*
X83961158Y-127685500D01*
X84918842Y-127685500D01*
X85073497Y-127654737D01*
X85219179Y-127594394D01*
X85350289Y-127506789D01*
X85461789Y-127395289D01*
X85549394Y-127264179D01*
X85609737Y-127118497D01*
X85640500Y-126963842D01*
X85640500Y-126806158D01*
X85609737Y-126651503D01*
X85549394Y-126505821D01*
X85547575Y-126503099D01*
X85461791Y-126374714D01*
X85461789Y-126374711D01*
X85350289Y-126263211D01*
X85350285Y-126263208D01*
X85219180Y-126175606D01*
X85219173Y-126175603D01*
X85073497Y-126115263D01*
X85073492Y-126115261D01*
X84918846Y-126084500D01*
X84918842Y-126084500D01*
X83961158Y-126084500D01*
X83961153Y-126084500D01*
X83806507Y-126115261D01*
X83806502Y-126115263D01*
X83660826Y-126175603D01*
X83660819Y-126175606D01*
X83529714Y-126263208D01*
X83529711Y-126263210D01*
X83529711Y-126263211D01*
X83475566Y-126317355D01*
X83394788Y-126371329D01*
X83299500Y-126390283D01*
X83204212Y-126371329D01*
X83123430Y-126317353D01*
X83069454Y-126236571D01*
X83050500Y-126141283D01*
X83050500Y-125088717D01*
X83069454Y-124993429D01*
X83123430Y-124912647D01*
X83204212Y-124858671D01*
X83299500Y-124839717D01*
X83394788Y-124858671D01*
X83475566Y-124912644D01*
X83529711Y-124966789D01*
X83529714Y-124966791D01*
X83660819Y-125054393D01*
X83660820Y-125054393D01*
X83660821Y-125054394D01*
X83806503Y-125114737D01*
X83806505Y-125114737D01*
X83806507Y-125114738D01*
X83947479Y-125142779D01*
X83961158Y-125145500D01*
X84918842Y-125145500D01*
X85073497Y-125114737D01*
X85219179Y-125054394D01*
X85350289Y-124966789D01*
X85461789Y-124855289D01*
X85549394Y-124724179D01*
X85609737Y-124578497D01*
X85640500Y-124423842D01*
X85640500Y-124266158D01*
X85609737Y-124111503D01*
X85549394Y-123965821D01*
X85547575Y-123963099D01*
X85461791Y-123834714D01*
X85461789Y-123834711D01*
X85350289Y-123723211D01*
X85350285Y-123723208D01*
X85219180Y-123635606D01*
X85219173Y-123635603D01*
X85073497Y-123575263D01*
X85073492Y-123575261D01*
X84918846Y-123544500D01*
X84918842Y-123544500D01*
X83961158Y-123544500D01*
X83961153Y-123544500D01*
X83806507Y-123575261D01*
X83806502Y-123575263D01*
X83660826Y-123635603D01*
X83660819Y-123635606D01*
X83529714Y-123723208D01*
X83529711Y-123723210D01*
X83529711Y-123723211D01*
X83475566Y-123777355D01*
X83394788Y-123831329D01*
X83299500Y-123850283D01*
X83204212Y-123831329D01*
X83123430Y-123777353D01*
X83069454Y-123696571D01*
X83050500Y-123601283D01*
X83050500Y-122548717D01*
X83069454Y-122453429D01*
X83123430Y-122372647D01*
X83204212Y-122318671D01*
X83299500Y-122299717D01*
X83394788Y-122318671D01*
X83475566Y-122372644D01*
X83529711Y-122426789D01*
X83529714Y-122426791D01*
X83660819Y-122514393D01*
X83660820Y-122514393D01*
X83660821Y-122514394D01*
X83806503Y-122574737D01*
X83806505Y-122574737D01*
X83806507Y-122574738D01*
X83957148Y-122604702D01*
X83961158Y-122605500D01*
X84918842Y-122605500D01*
X85073497Y-122574737D01*
X85219179Y-122514394D01*
X85350289Y-122426789D01*
X85461789Y-122315289D01*
X85549394Y-122184179D01*
X85609737Y-122038497D01*
X85640500Y-121883842D01*
X85640500Y-121726158D01*
X85609737Y-121571503D01*
X85549394Y-121425821D01*
X85461789Y-121294711D01*
X85350289Y-121183211D01*
X85350285Y-121183208D01*
X85219180Y-121095606D01*
X85219173Y-121095603D01*
X85073497Y-121035263D01*
X85073492Y-121035261D01*
X84918846Y-121004500D01*
X84918842Y-121004500D01*
X83961158Y-121004500D01*
X83961153Y-121004500D01*
X83806507Y-121035261D01*
X83806502Y-121035263D01*
X83660826Y-121095603D01*
X83660819Y-121095606D01*
X83529714Y-121183208D01*
X83529711Y-121183210D01*
X83529711Y-121183211D01*
X83475566Y-121237355D01*
X83394788Y-121291329D01*
X83299500Y-121310283D01*
X83204212Y-121291329D01*
X83123430Y-121237353D01*
X83069454Y-121156571D01*
X83050500Y-121061283D01*
X83050500Y-120008717D01*
X83069454Y-119913429D01*
X83123430Y-119832647D01*
X83204212Y-119778671D01*
X83299500Y-119759717D01*
X83394788Y-119778671D01*
X83475566Y-119832644D01*
X83529711Y-119886789D01*
X83529714Y-119886791D01*
X83660819Y-119974393D01*
X83660820Y-119974393D01*
X83660821Y-119974394D01*
X83806503Y-120034737D01*
X83806505Y-120034737D01*
X83806507Y-120034738D01*
X83957148Y-120064702D01*
X83961158Y-120065500D01*
X84918842Y-120065500D01*
X85073497Y-120034737D01*
X85219179Y-119974394D01*
X85350289Y-119886789D01*
X85461789Y-119775289D01*
X85549394Y-119644179D01*
X85609737Y-119498497D01*
X85640500Y-119343842D01*
X85640500Y-119186158D01*
X85627682Y-119121716D01*
X85609738Y-119031507D01*
X85609737Y-119031505D01*
X85609737Y-119031503D01*
X85549394Y-118885821D01*
X85521465Y-118844023D01*
X85461791Y-118754714D01*
X85461789Y-118754711D01*
X85350289Y-118643211D01*
X85350285Y-118643208D01*
X85219180Y-118555606D01*
X85219173Y-118555603D01*
X85073497Y-118495263D01*
X85073492Y-118495261D01*
X84918846Y-118464500D01*
X84918842Y-118464500D01*
X83961158Y-118464500D01*
X83961153Y-118464500D01*
X83806507Y-118495261D01*
X83806502Y-118495263D01*
X83660826Y-118555603D01*
X83660819Y-118555606D01*
X83529714Y-118643208D01*
X83418208Y-118754714D01*
X83330606Y-118885819D01*
X83330605Y-118885823D01*
X83266356Y-119040934D01*
X83212380Y-119121716D01*
X83131598Y-119175692D01*
X83036310Y-119194646D01*
X82941022Y-119175692D01*
X82860243Y-119121718D01*
X78656653Y-114918128D01*
X78602677Y-114837346D01*
X78583723Y-114742058D01*
X78583800Y-114735854D01*
X78584333Y-114714467D01*
X78590500Y-114683465D01*
X78590500Y-114476535D01*
X78590289Y-114475478D01*
X78590577Y-114463960D01*
X78600571Y-114419533D01*
X78609454Y-114374876D01*
X78611207Y-114372251D01*
X78611900Y-114369173D01*
X78638127Y-114331961D01*
X78663430Y-114294094D01*
X78666054Y-114292340D01*
X78667872Y-114289762D01*
X78706342Y-114265421D01*
X78744212Y-114240118D01*
X78747307Y-114239502D01*
X78749974Y-114237815D01*
X78794848Y-114230045D01*
X78839500Y-114221164D01*
X78842594Y-114221779D01*
X78845704Y-114221241D01*
X78890130Y-114231235D01*
X78934788Y-114240118D01*
X78937412Y-114241871D01*
X78940491Y-114242564D01*
X78977702Y-114268791D01*
X79015567Y-114294092D01*
X81886986Y-117165510D01*
X81886988Y-117165511D01*
X81886989Y-117165512D01*
X81987366Y-117223465D01*
X82007840Y-117235285D01*
X82012515Y-117237984D01*
X82152525Y-117275500D01*
X82152526Y-117275500D01*
X82297475Y-117275500D01*
X83355283Y-117275500D01*
X83450571Y-117294454D01*
X83519204Y-117340312D01*
X83520257Y-117339030D01*
X83529706Y-117346784D01*
X83529711Y-117346789D01*
X83575443Y-117377346D01*
X83660819Y-117434393D01*
X83660820Y-117434393D01*
X83660821Y-117434394D01*
X83806503Y-117494737D01*
X83806505Y-117494737D01*
X83806507Y-117494738D01*
X83957148Y-117524702D01*
X83961158Y-117525500D01*
X84918842Y-117525500D01*
X85073497Y-117494737D01*
X85219179Y-117434394D01*
X85350289Y-117346789D01*
X85461789Y-117235289D01*
X85549394Y-117104179D01*
X85609737Y-116958497D01*
X85640500Y-116803842D01*
X85640500Y-116646158D01*
X85631671Y-116601774D01*
X85609738Y-116491507D01*
X85609737Y-116491505D01*
X85609737Y-116491503D01*
X85549394Y-116345821D01*
X85521465Y-116304023D01*
X85461791Y-116214714D01*
X85461789Y-116214711D01*
X85350289Y-116103211D01*
X85350285Y-116103208D01*
X85219180Y-116015606D01*
X85219173Y-116015603D01*
X85073497Y-115955263D01*
X85073492Y-115955261D01*
X84918846Y-115924500D01*
X84918842Y-115924500D01*
X83961158Y-115924500D01*
X83961153Y-115924500D01*
X83806507Y-115955261D01*
X83806502Y-115955263D01*
X83660826Y-116015603D01*
X83660819Y-116015606D01*
X83529712Y-116103210D01*
X83520257Y-116110970D01*
X83519204Y-116109687D01*
X83450571Y-116155546D01*
X83355283Y-116174500D01*
X82556164Y-116174500D01*
X82460876Y-116155546D01*
X82380094Y-116101570D01*
X80815165Y-114536640D01*
X80213525Y-113935000D01*
X82965884Y-113935000D01*
X84124314Y-113935000D01*
X84119920Y-113939394D01*
X84067259Y-114030606D01*
X84040000Y-114132339D01*
X84040000Y-114237661D01*
X84067259Y-114339394D01*
X84119920Y-114430606D01*
X84124314Y-114435000D01*
X82965885Y-114435000D01*
X82967085Y-114442584D01*
X83020588Y-114607248D01*
X83020592Y-114607258D01*
X83099191Y-114761516D01*
X83099195Y-114761523D01*
X83200968Y-114901603D01*
X83323396Y-115024031D01*
X83463476Y-115125804D01*
X83463483Y-115125808D01*
X83617741Y-115204407D01*
X83617754Y-115204413D01*
X83782416Y-115257914D01*
X83953418Y-115284999D01*
X83953431Y-115285000D01*
X84189999Y-115285000D01*
X84190000Y-115284999D01*
X84190000Y-114500686D01*
X84194394Y-114505080D01*
X84285606Y-114557741D01*
X84387339Y-114585000D01*
X84492661Y-114585000D01*
X84594394Y-114557741D01*
X84685606Y-114505080D01*
X84690000Y-114500686D01*
X84690000Y-115284999D01*
X84690001Y-115285000D01*
X84926569Y-115285000D01*
X84926581Y-115284999D01*
X85097583Y-115257914D01*
X85097584Y-115257914D01*
X85262245Y-115204413D01*
X85262258Y-115204407D01*
X85416516Y-115125808D01*
X85416523Y-115125804D01*
X85556603Y-115024031D01*
X85679031Y-114901603D01*
X85780804Y-114761523D01*
X85780808Y-114761516D01*
X85859407Y-114607258D01*
X85859413Y-114607245D01*
X85912910Y-114442596D01*
X85914850Y-114434516D01*
X85955523Y-114346284D01*
X86026864Y-114280333D01*
X86118013Y-114246704D01*
X86215093Y-114250515D01*
X86303325Y-114291188D01*
X86333042Y-114316567D01*
X94376570Y-122360095D01*
X94430546Y-122440877D01*
X94449500Y-122536165D01*
X94449500Y-131183151D01*
X94430546Y-131278439D01*
X94376572Y-131359217D01*
X94261698Y-131474092D01*
X94261695Y-131474095D01*
X94157678Y-131629768D01*
X94157675Y-131629773D01*
X94086027Y-131802746D01*
X94049500Y-131986385D01*
X94049500Y-132173614D01*
X94086027Y-132357253D01*
X94157675Y-132530226D01*
X94157678Y-132530231D01*
X94261698Y-132685908D01*
X94394092Y-132818302D01*
X94549769Y-132922322D01*
X94549771Y-132922322D01*
X94549773Y-132922324D01*
X94722746Y-132993972D01*
X94722747Y-132993972D01*
X94722749Y-132993973D01*
X94906384Y-133030500D01*
X94906386Y-133030500D01*
X95093614Y-133030500D01*
X95093616Y-133030500D01*
X95277251Y-132993973D01*
X95450231Y-132922322D01*
X95605908Y-132818302D01*
X95738302Y-132685908D01*
X95842322Y-132530231D01*
X95913973Y-132357251D01*
X95950500Y-132173616D01*
X95950500Y-131986384D01*
X95913973Y-131802749D01*
X95842322Y-131629769D01*
X95738302Y-131474092D01*
X95623427Y-131359217D01*
X95569454Y-131278439D01*
X95550500Y-131183151D01*
X95550500Y-126803433D01*
X108635820Y-126803433D01*
X108635820Y-126961126D01*
X108666581Y-127115772D01*
X108666583Y-127115777D01*
X108726923Y-127261453D01*
X108726926Y-127261460D01*
X108814528Y-127392565D01*
X108814531Y-127392569D01*
X108926031Y-127504069D01*
X108926034Y-127504071D01*
X109057139Y-127591673D01*
X109057140Y-127591673D01*
X109057141Y-127591674D01*
X109202823Y-127652017D01*
X109202825Y-127652017D01*
X109202827Y-127652018D01*
X109353468Y-127681982D01*
X109357478Y-127682780D01*
X110315162Y-127682780D01*
X110469817Y-127652017D01*
X110615499Y-127591674D01*
X110746609Y-127504069D01*
X110858109Y-127392569D01*
X110945714Y-127261459D01*
X111006057Y-127115777D01*
X111036820Y-126961122D01*
X111036820Y-126803438D01*
X111006057Y-126648783D01*
X110945714Y-126503101D01*
X110858109Y-126371991D01*
X110746609Y-126260491D01*
X110746605Y-126260488D01*
X110615500Y-126172886D01*
X110615493Y-126172883D01*
X110469817Y-126112543D01*
X110469812Y-126112541D01*
X110315166Y-126081780D01*
X110315162Y-126081780D01*
X109357478Y-126081780D01*
X109357473Y-126081780D01*
X109202827Y-126112541D01*
X109202822Y-126112543D01*
X109057146Y-126172883D01*
X109057139Y-126172886D01*
X108926034Y-126260488D01*
X108814528Y-126371994D01*
X108726926Y-126503099D01*
X108726923Y-126503106D01*
X108666583Y-126648782D01*
X108666581Y-126648787D01*
X108635820Y-126803433D01*
X95550500Y-126803433D01*
X95550500Y-124263433D01*
X108635820Y-124263433D01*
X108635820Y-124421126D01*
X108666581Y-124575772D01*
X108666583Y-124575777D01*
X108726923Y-124721453D01*
X108726926Y-124721460D01*
X108814528Y-124852565D01*
X108814531Y-124852569D01*
X108926031Y-124964069D01*
X108926034Y-124964071D01*
X109057139Y-125051673D01*
X109057140Y-125051673D01*
X109057141Y-125051674D01*
X109202823Y-125112017D01*
X109202825Y-125112017D01*
X109202827Y-125112018D01*
X109353468Y-125141982D01*
X109357478Y-125142780D01*
X110315162Y-125142780D01*
X110469817Y-125112017D01*
X110615499Y-125051674D01*
X110746609Y-124964069D01*
X110858109Y-124852569D01*
X110945714Y-124721459D01*
X111006057Y-124575777D01*
X111036820Y-124421122D01*
X111036820Y-124263438D01*
X111006057Y-124108783D01*
X110945714Y-123963101D01*
X110858109Y-123831991D01*
X110746609Y-123720491D01*
X110746605Y-123720488D01*
X110615500Y-123632886D01*
X110615493Y-123632883D01*
X110469817Y-123572543D01*
X110469812Y-123572541D01*
X110315166Y-123541780D01*
X110315162Y-123541780D01*
X109357478Y-123541780D01*
X109357473Y-123541780D01*
X109202827Y-123572541D01*
X109202822Y-123572543D01*
X109057146Y-123632883D01*
X109057139Y-123632886D01*
X108926034Y-123720488D01*
X108814528Y-123831994D01*
X108726926Y-123963099D01*
X108726923Y-123963106D01*
X108666583Y-124108782D01*
X108666581Y-124108787D01*
X108635820Y-124263433D01*
X95550500Y-124263433D01*
X95550500Y-122132525D01*
X95525305Y-122038497D01*
X95512984Y-121992515D01*
X95440510Y-121866985D01*
X92759678Y-119186153D01*
X108639500Y-119186153D01*
X108639500Y-119343846D01*
X108670261Y-119498492D01*
X108670263Y-119498497D01*
X108730603Y-119644173D01*
X108730606Y-119644180D01*
X108791354Y-119735095D01*
X108818211Y-119775289D01*
X108929711Y-119886789D01*
X108929714Y-119886791D01*
X109060819Y-119974393D01*
X109060820Y-119974393D01*
X109060821Y-119974394D01*
X109206503Y-120034737D01*
X109206505Y-120034737D01*
X109206507Y-120034738D01*
X109357148Y-120064702D01*
X109361158Y-120065500D01*
X109758835Y-120065500D01*
X109854123Y-120084454D01*
X109934905Y-120138430D01*
X110375905Y-120579430D01*
X110429881Y-120660212D01*
X110448835Y-120755500D01*
X110429881Y-120850788D01*
X110375905Y-120931570D01*
X110295123Y-120985546D01*
X110199835Y-121004500D01*
X109361153Y-121004500D01*
X109206507Y-121035261D01*
X109206502Y-121035263D01*
X109060826Y-121095603D01*
X109060819Y-121095606D01*
X108929714Y-121183208D01*
X108818208Y-121294714D01*
X108730606Y-121425819D01*
X108730603Y-121425826D01*
X108670263Y-121571502D01*
X108670261Y-121571507D01*
X108639500Y-121726153D01*
X108639500Y-121883846D01*
X108670261Y-122038492D01*
X108670263Y-122038497D01*
X108730603Y-122184173D01*
X108730606Y-122184180D01*
X108807806Y-122299717D01*
X108818211Y-122315289D01*
X108929711Y-122426789D01*
X108929714Y-122426791D01*
X109060819Y-122514393D01*
X109060820Y-122514393D01*
X109060821Y-122514394D01*
X109206503Y-122574737D01*
X109206505Y-122574737D01*
X109206507Y-122574738D01*
X109357148Y-122604702D01*
X109361158Y-122605500D01*
X110318842Y-122605500D01*
X110473497Y-122574737D01*
X110619179Y-122514394D01*
X110750289Y-122426789D01*
X110861789Y-122315289D01*
X110949394Y-122184179D01*
X111009737Y-122038497D01*
X111040500Y-121883842D01*
X111040500Y-121845165D01*
X111059454Y-121749877D01*
X111113430Y-121669095D01*
X111194212Y-121615119D01*
X111289500Y-121596165D01*
X111384788Y-121615119D01*
X111465570Y-121669095D01*
X111876570Y-122080095D01*
X111930546Y-122160877D01*
X111949500Y-122256165D01*
X111949500Y-129103151D01*
X111930546Y-129198439D01*
X111876572Y-129279217D01*
X111761698Y-129394092D01*
X111761695Y-129394095D01*
X111657678Y-129549768D01*
X111657675Y-129549773D01*
X111586027Y-129722746D01*
X111549500Y-129906385D01*
X111549500Y-130093614D01*
X111586027Y-130277253D01*
X111657675Y-130450226D01*
X111657678Y-130450231D01*
X111761698Y-130605908D01*
X111894092Y-130738302D01*
X112049769Y-130842322D01*
X112049771Y-130842322D01*
X112049773Y-130842324D01*
X112222746Y-130913972D01*
X112222747Y-130913972D01*
X112222749Y-130913973D01*
X112406384Y-130950500D01*
X112406386Y-130950500D01*
X112593614Y-130950500D01*
X112593616Y-130950500D01*
X112777251Y-130913973D01*
X112950231Y-130842322D01*
X113105908Y-130738302D01*
X113238302Y-130605908D01*
X113342322Y-130450231D01*
X113413973Y-130277251D01*
X113450500Y-130093616D01*
X113450500Y-129906384D01*
X113413973Y-129722749D01*
X113342322Y-129549769D01*
X113238302Y-129394092D01*
X113123427Y-129279217D01*
X113069454Y-129198439D01*
X113050500Y-129103151D01*
X113050500Y-121852524D01*
X113022995Y-121749877D01*
X113012984Y-121712515D01*
X112979489Y-121654500D01*
X112940510Y-121586985D01*
X111077681Y-119724156D01*
X111023705Y-119643374D01*
X111004751Y-119548086D01*
X111009536Y-119499508D01*
X111035791Y-119367515D01*
X111040500Y-119343842D01*
X111040500Y-119186158D01*
X111027682Y-119121716D01*
X111009738Y-119031507D01*
X111009737Y-119031505D01*
X111009737Y-119031503D01*
X110949394Y-118885821D01*
X110921465Y-118844023D01*
X110861791Y-118754714D01*
X110861789Y-118754711D01*
X110750289Y-118643211D01*
X110750285Y-118643208D01*
X110619180Y-118555606D01*
X110619173Y-118555603D01*
X110473497Y-118495263D01*
X110473492Y-118495261D01*
X110318846Y-118464500D01*
X110318842Y-118464500D01*
X109361158Y-118464500D01*
X109361153Y-118464500D01*
X109206507Y-118495261D01*
X109206502Y-118495263D01*
X109060826Y-118555603D01*
X109060819Y-118555606D01*
X108929714Y-118643208D01*
X108818208Y-118754714D01*
X108730606Y-118885819D01*
X108730603Y-118885826D01*
X108670263Y-119031502D01*
X108670261Y-119031507D01*
X108639500Y-119186153D01*
X92759678Y-119186153D01*
X90219678Y-116646153D01*
X108639500Y-116646153D01*
X108639500Y-116803846D01*
X108670261Y-116958492D01*
X108670263Y-116958497D01*
X108730603Y-117104173D01*
X108730606Y-117104180D01*
X108810310Y-117223465D01*
X108818211Y-117235289D01*
X108929711Y-117346789D01*
X108929714Y-117346791D01*
X109060819Y-117434393D01*
X109060820Y-117434393D01*
X109060821Y-117434394D01*
X109206503Y-117494737D01*
X109206505Y-117494737D01*
X109206507Y-117494738D01*
X109357148Y-117524702D01*
X109361158Y-117525500D01*
X110318842Y-117525500D01*
X110473497Y-117494737D01*
X110619179Y-117434394D01*
X110750289Y-117346789D01*
X110861789Y-117235289D01*
X110949394Y-117104179D01*
X111009737Y-116958497D01*
X111040500Y-116803842D01*
X111040500Y-116646158D01*
X111031671Y-116601774D01*
X111009738Y-116491507D01*
X111009737Y-116491505D01*
X111009737Y-116491503D01*
X110949394Y-116345821D01*
X110921465Y-116304023D01*
X110861791Y-116214714D01*
X110861789Y-116214711D01*
X110750289Y-116103211D01*
X110750285Y-116103208D01*
X110619180Y-116015606D01*
X110619173Y-116015603D01*
X110473497Y-115955263D01*
X110473492Y-115955261D01*
X110318846Y-115924500D01*
X110318842Y-115924500D01*
X109361158Y-115924500D01*
X109361153Y-115924500D01*
X109206507Y-115955261D01*
X109206502Y-115955263D01*
X109060826Y-116015603D01*
X109060819Y-116015606D01*
X108929714Y-116103208D01*
X108818208Y-116214714D01*
X108730606Y-116345819D01*
X108730603Y-116345826D01*
X108670263Y-116491502D01*
X108670261Y-116491507D01*
X108639500Y-116646153D01*
X90219678Y-116646153D01*
X85677681Y-112104156D01*
X85623705Y-112023374D01*
X85604751Y-111928086D01*
X85609536Y-111879508D01*
X85640499Y-111723846D01*
X85640500Y-111723841D01*
X85640500Y-111566158D01*
X85640499Y-111566153D01*
X85609738Y-111411507D01*
X85609737Y-111411505D01*
X85609737Y-111411503D01*
X85549394Y-111265821D01*
X85521465Y-111224023D01*
X85461791Y-111134714D01*
X85461789Y-111134711D01*
X85350289Y-111023211D01*
X85350285Y-111023208D01*
X85219180Y-110935606D01*
X85219173Y-110935603D01*
X85073497Y-110875263D01*
X85073492Y-110875261D01*
X84918846Y-110844500D01*
X84918842Y-110844500D01*
X83961158Y-110844500D01*
X83961153Y-110844500D01*
X83806507Y-110875261D01*
X83806502Y-110875263D01*
X83660826Y-110935603D01*
X83660819Y-110935606D01*
X83529714Y-111023208D01*
X83418208Y-111134714D01*
X83330606Y-111265819D01*
X83330603Y-111265826D01*
X83270263Y-111411502D01*
X83270261Y-111411507D01*
X83239500Y-111566153D01*
X83239500Y-111723846D01*
X83270261Y-111878492D01*
X83270263Y-111878497D01*
X83330603Y-112024173D01*
X83330606Y-112024180D01*
X83412175Y-112146256D01*
X83418211Y-112155289D01*
X83529711Y-112266789D01*
X83529714Y-112266791D01*
X83660819Y-112354393D01*
X83660820Y-112354393D01*
X83660821Y-112354394D01*
X83806503Y-112414737D01*
X83806505Y-112414737D01*
X83806507Y-112414738D01*
X83957148Y-112444702D01*
X83961158Y-112445500D01*
X84358835Y-112445500D01*
X84454123Y-112464454D01*
X84534905Y-112518430D01*
X84719668Y-112703193D01*
X84773644Y-112783975D01*
X84792598Y-112879263D01*
X84773644Y-112974551D01*
X84719668Y-113055333D01*
X84690000Y-113085001D01*
X84690000Y-113869314D01*
X84685606Y-113864920D01*
X84594394Y-113812259D01*
X84492661Y-113785000D01*
X84387339Y-113785000D01*
X84285606Y-113812259D01*
X84194394Y-113864920D01*
X84190000Y-113869314D01*
X84190000Y-113085001D01*
X84189999Y-113085000D01*
X83953418Y-113085000D01*
X83782416Y-113112085D01*
X83782415Y-113112085D01*
X83617754Y-113165586D01*
X83617741Y-113165592D01*
X83463483Y-113244191D01*
X83463476Y-113244195D01*
X83323396Y-113345968D01*
X83200968Y-113468396D01*
X83099195Y-113608476D01*
X83099191Y-113608483D01*
X83020592Y-113762741D01*
X83020588Y-113762751D01*
X82967085Y-113927415D01*
X82965884Y-113935000D01*
X80213525Y-113935000D01*
X78656653Y-112378128D01*
X78602677Y-112297346D01*
X78583723Y-112202058D01*
X78588509Y-112153475D01*
X78588897Y-112151519D01*
X78590500Y-112143465D01*
X78590500Y-111936535D01*
X78550130Y-111733580D01*
X78490687Y-111590072D01*
X78470943Y-111542406D01*
X78470937Y-111542396D01*
X78355981Y-111370350D01*
X78355979Y-111370348D01*
X78355977Y-111370345D01*
X78209655Y-111224023D01*
X78209651Y-111224020D01*
X78209649Y-111224018D01*
X78037603Y-111109062D01*
X78037593Y-111109056D01*
X77846422Y-111029870D01*
X77811610Y-111022946D01*
X77767716Y-111014215D01*
X77677959Y-110977036D01*
X77609260Y-110908337D01*
X77572081Y-110818578D01*
X77572080Y-110721423D01*
X77609260Y-110631663D01*
X77677959Y-110562964D01*
X77767718Y-110525785D01*
X77767718Y-110525784D01*
X77846420Y-110510130D01*
X78037598Y-110430941D01*
X78209655Y-110315977D01*
X78355977Y-110169655D01*
X78470941Y-109997598D01*
X78548974Y-109809209D01*
X78602949Y-109728431D01*
X78683730Y-109674454D01*
X78779018Y-109655500D01*
X83355283Y-109655500D01*
X83450571Y-109674454D01*
X83519204Y-109720312D01*
X83520257Y-109719030D01*
X83529706Y-109726784D01*
X83529711Y-109726789D01*
X83616919Y-109785059D01*
X83660819Y-109814393D01*
X83660820Y-109814393D01*
X83660821Y-109814394D01*
X83806503Y-109874737D01*
X83806505Y-109874737D01*
X83806507Y-109874738D01*
X83938158Y-109900925D01*
X83961158Y-109905500D01*
X84918842Y-109905500D01*
X85073497Y-109874737D01*
X85219179Y-109814394D01*
X85350289Y-109726789D01*
X85461789Y-109615289D01*
X85549394Y-109484179D01*
X85609737Y-109338497D01*
X85640500Y-109183842D01*
X85640500Y-109026158D01*
X85640499Y-109026153D01*
X108639500Y-109026153D01*
X108639500Y-109183846D01*
X108670261Y-109338492D01*
X108670263Y-109338497D01*
X108730603Y-109484173D01*
X108730606Y-109484180D01*
X108810310Y-109603465D01*
X108818211Y-109615289D01*
X108929711Y-109726789D01*
X108929714Y-109726791D01*
X109060819Y-109814393D01*
X109060820Y-109814393D01*
X109060821Y-109814394D01*
X109206503Y-109874737D01*
X109206505Y-109874737D01*
X109206507Y-109874738D01*
X109338158Y-109900925D01*
X109361158Y-109905500D01*
X110318842Y-109905500D01*
X110473497Y-109874737D01*
X110619179Y-109814394D01*
X110750289Y-109726789D01*
X110861789Y-109615289D01*
X110949394Y-109484179D01*
X111009737Y-109338497D01*
X111040500Y-109183842D01*
X111040500Y-109026158D01*
X111009737Y-108871503D01*
X110949394Y-108725821D01*
X110923533Y-108687118D01*
X110861791Y-108594714D01*
X110861789Y-108594711D01*
X110750289Y-108483211D01*
X110713705Y-108458766D01*
X110619180Y-108395606D01*
X110619173Y-108395603D01*
X110473497Y-108335263D01*
X110473492Y-108335261D01*
X110318846Y-108304500D01*
X110318842Y-108304500D01*
X109361158Y-108304500D01*
X109361153Y-108304500D01*
X109206507Y-108335261D01*
X109206502Y-108335263D01*
X109060826Y-108395603D01*
X109060819Y-108395606D01*
X108929714Y-108483208D01*
X108818208Y-108594714D01*
X108730606Y-108725819D01*
X108730603Y-108725826D01*
X108670263Y-108871502D01*
X108670261Y-108871507D01*
X108639500Y-109026153D01*
X85640499Y-109026153D01*
X85609737Y-108871503D01*
X85549394Y-108725821D01*
X85523533Y-108687118D01*
X85461791Y-108594714D01*
X85461789Y-108594711D01*
X85350289Y-108483211D01*
X85313705Y-108458766D01*
X85219180Y-108395606D01*
X85219173Y-108395603D01*
X85073497Y-108335263D01*
X85073492Y-108335261D01*
X84918846Y-108304500D01*
X84918842Y-108304500D01*
X83961158Y-108304500D01*
X83961153Y-108304500D01*
X83806507Y-108335261D01*
X83806502Y-108335263D01*
X83660826Y-108395603D01*
X83660819Y-108395606D01*
X83529712Y-108483210D01*
X83520257Y-108490970D01*
X83519204Y-108489687D01*
X83450571Y-108535546D01*
X83355283Y-108554500D01*
X78051979Y-108554500D01*
X77956691Y-108535546D01*
X77846420Y-108489870D01*
X77643465Y-108449500D01*
X77436535Y-108449500D01*
X77335057Y-108469685D01*
X77233578Y-108489870D01*
X77042406Y-108569056D01*
X77042396Y-108569062D01*
X76870350Y-108684018D01*
X76724018Y-108830350D01*
X76609062Y-109002396D01*
X76609056Y-109002406D01*
X76529546Y-109194362D01*
X76475569Y-109275144D01*
X76394788Y-109329120D01*
X76299500Y-109348074D01*
X76204212Y-109329120D01*
X76123430Y-109275143D01*
X76069454Y-109194362D01*
X76050500Y-109099074D01*
X76050500Y-108845729D01*
X76050499Y-108845726D01*
X76047646Y-108815304D01*
X76047646Y-108815301D01*
X76002793Y-108687118D01*
X75922150Y-108577850D01*
X75910234Y-108569056D01*
X75812883Y-108497208D01*
X75812882Y-108497207D01*
X75812880Y-108497206D01*
X75812878Y-108497205D01*
X75717259Y-108463746D01*
X75633579Y-108414384D01*
X75575158Y-108336756D01*
X75550892Y-108242680D01*
X75550500Y-108228720D01*
X75550500Y-106486153D01*
X83239500Y-106486153D01*
X83239500Y-106643846D01*
X83270261Y-106798492D01*
X83270263Y-106798497D01*
X83330603Y-106944173D01*
X83330606Y-106944180D01*
X83418208Y-107075285D01*
X83418211Y-107075289D01*
X83529711Y-107186789D01*
X83529714Y-107186791D01*
X83660819Y-107274393D01*
X83660820Y-107274393D01*
X83660821Y-107274394D01*
X83806503Y-107334737D01*
X83806505Y-107334737D01*
X83806507Y-107334738D01*
X83957148Y-107364702D01*
X83961158Y-107365500D01*
X84918842Y-107365500D01*
X85073497Y-107334737D01*
X85219179Y-107274394D01*
X85350289Y-107186789D01*
X85461789Y-107075289D01*
X85549394Y-106944179D01*
X85609737Y-106798497D01*
X85640500Y-106643842D01*
X85640500Y-106486158D01*
X85640499Y-106486153D01*
X108639500Y-106486153D01*
X108639500Y-106643846D01*
X108670261Y-106798492D01*
X108670263Y-106798497D01*
X108730603Y-106944173D01*
X108730606Y-106944180D01*
X108818208Y-107075285D01*
X108818211Y-107075289D01*
X108929711Y-107186789D01*
X108929714Y-107186791D01*
X109060819Y-107274393D01*
X109060820Y-107274393D01*
X109060821Y-107274394D01*
X109206503Y-107334737D01*
X109206505Y-107334737D01*
X109206507Y-107334738D01*
X109357148Y-107364702D01*
X109361158Y-107365500D01*
X110318842Y-107365500D01*
X110473497Y-107334737D01*
X110619179Y-107274394D01*
X110750289Y-107186789D01*
X110861789Y-107075289D01*
X110949394Y-106944179D01*
X111009737Y-106798497D01*
X111040500Y-106643842D01*
X111040500Y-106486158D01*
X111009737Y-106331503D01*
X110949394Y-106185821D01*
X110861789Y-106054711D01*
X110750289Y-105943211D01*
X110750285Y-105943208D01*
X110619180Y-105855606D01*
X110619173Y-105855603D01*
X110473497Y-105795263D01*
X110473492Y-105795261D01*
X110318846Y-105764500D01*
X110318842Y-105764500D01*
X109361158Y-105764500D01*
X109361153Y-105764500D01*
X109206507Y-105795261D01*
X109206502Y-105795263D01*
X109060826Y-105855603D01*
X109060819Y-105855606D01*
X108929714Y-105943208D01*
X108818208Y-106054714D01*
X108730606Y-106185819D01*
X108730603Y-106185826D01*
X108670263Y-106331502D01*
X108670261Y-106331507D01*
X108639500Y-106486153D01*
X85640499Y-106486153D01*
X85609737Y-106331503D01*
X85549394Y-106185821D01*
X85461789Y-106054711D01*
X85350289Y-105943211D01*
X85350285Y-105943208D01*
X85219180Y-105855606D01*
X85219173Y-105855603D01*
X85073497Y-105795263D01*
X85073492Y-105795261D01*
X84918846Y-105764500D01*
X84918842Y-105764500D01*
X83961158Y-105764500D01*
X83961153Y-105764500D01*
X83806507Y-105795261D01*
X83806502Y-105795263D01*
X83660826Y-105855603D01*
X83660819Y-105855606D01*
X83529714Y-105943208D01*
X83418208Y-106054714D01*
X83330606Y-106185819D01*
X83330603Y-106185826D01*
X83270263Y-106331502D01*
X83270261Y-106331507D01*
X83239500Y-106486153D01*
X75550500Y-106486153D01*
X75550500Y-104056165D01*
X75569454Y-103960877D01*
X75579292Y-103946153D01*
X83239500Y-103946153D01*
X83239500Y-104103846D01*
X83270261Y-104258492D01*
X83270263Y-104258497D01*
X83330603Y-104404173D01*
X83330606Y-104404180D01*
X83418208Y-104535285D01*
X83418211Y-104535289D01*
X83529711Y-104646789D01*
X83529714Y-104646791D01*
X83660819Y-104734393D01*
X83660820Y-104734393D01*
X83660821Y-104734394D01*
X83806503Y-104794737D01*
X83806505Y-104794737D01*
X83806507Y-104794738D01*
X83957148Y-104824702D01*
X83961158Y-104825500D01*
X84918842Y-104825500D01*
X85073497Y-104794737D01*
X85219179Y-104734394D01*
X85350289Y-104646789D01*
X85461789Y-104535289D01*
X85549394Y-104404179D01*
X85609737Y-104258497D01*
X85640500Y-104103842D01*
X85640500Y-103946158D01*
X85640499Y-103946153D01*
X108639500Y-103946153D01*
X108639500Y-104103846D01*
X108670261Y-104258492D01*
X108670263Y-104258497D01*
X108730603Y-104404173D01*
X108730606Y-104404180D01*
X108818208Y-104535285D01*
X108818211Y-104535289D01*
X108929711Y-104646789D01*
X108929714Y-104646791D01*
X109060819Y-104734393D01*
X109060820Y-104734393D01*
X109060821Y-104734394D01*
X109206503Y-104794737D01*
X109206505Y-104794737D01*
X109206507Y-104794738D01*
X109357148Y-104824702D01*
X109361158Y-104825500D01*
X110318842Y-104825500D01*
X110473497Y-104794737D01*
X110619179Y-104734394D01*
X110750289Y-104646789D01*
X110861789Y-104535289D01*
X110949394Y-104404179D01*
X111009737Y-104258497D01*
X111040500Y-104103842D01*
X111040500Y-103946158D01*
X111009737Y-103791503D01*
X110949394Y-103645821D01*
X110861789Y-103514711D01*
X110750289Y-103403211D01*
X110750285Y-103403208D01*
X110619180Y-103315606D01*
X110619173Y-103315603D01*
X110473497Y-103255263D01*
X110473492Y-103255261D01*
X110318846Y-103224500D01*
X110318842Y-103224500D01*
X109361158Y-103224500D01*
X109361153Y-103224500D01*
X109206507Y-103255261D01*
X109206502Y-103255263D01*
X109060826Y-103315603D01*
X109060819Y-103315606D01*
X108929714Y-103403208D01*
X108818208Y-103514714D01*
X108730606Y-103645819D01*
X108730603Y-103645826D01*
X108670263Y-103791502D01*
X108670261Y-103791507D01*
X108639500Y-103946153D01*
X85640499Y-103946153D01*
X85609737Y-103791503D01*
X85549394Y-103645821D01*
X85461789Y-103514711D01*
X85350289Y-103403211D01*
X85350285Y-103403208D01*
X85219180Y-103315606D01*
X85219173Y-103315603D01*
X85073497Y-103255263D01*
X85073492Y-103255261D01*
X84918846Y-103224500D01*
X84918842Y-103224500D01*
X83961158Y-103224500D01*
X83961153Y-103224500D01*
X83806507Y-103255261D01*
X83806502Y-103255263D01*
X83660826Y-103315603D01*
X83660819Y-103315606D01*
X83529714Y-103403208D01*
X83418208Y-103514714D01*
X83330606Y-103645819D01*
X83330603Y-103645826D01*
X83270263Y-103791502D01*
X83270261Y-103791507D01*
X83239500Y-103946153D01*
X75579292Y-103946153D01*
X75623430Y-103880095D01*
X76380095Y-103123430D01*
X76460877Y-103069454D01*
X76556165Y-103050500D01*
X77594745Y-103050500D01*
X77594748Y-103050500D01*
X77653231Y-103038867D01*
X77719552Y-102994552D01*
X77763867Y-102928231D01*
X77775500Y-102869748D01*
X77775500Y-102400925D01*
X77794454Y-102305637D01*
X77848430Y-102224855D01*
X77929212Y-102170879D01*
X78024500Y-102151925D01*
X78119788Y-102170879D01*
X78200570Y-102224855D01*
X78254546Y-102305637D01*
X78254869Y-102306418D01*
X78254870Y-102306420D01*
X78270811Y-102344905D01*
X78334056Y-102497593D01*
X78334062Y-102497603D01*
X78449018Y-102669649D01*
X78449020Y-102669651D01*
X78449023Y-102669655D01*
X78595345Y-102815977D01*
X78595348Y-102815979D01*
X78595350Y-102815981D01*
X78763346Y-102928231D01*
X78767402Y-102930941D01*
X78767404Y-102930941D01*
X78767406Y-102930943D01*
X78894854Y-102983733D01*
X78958580Y-103010130D01*
X79161535Y-103050500D01*
X79161537Y-103050500D01*
X79368463Y-103050500D01*
X79368465Y-103050500D01*
X79571420Y-103010130D01*
X79762598Y-102930941D01*
X79934655Y-102815977D01*
X80080977Y-102669655D01*
X80195941Y-102497598D01*
X80275130Y-102306420D01*
X80315500Y-102103465D01*
X80315500Y-101896535D01*
X80313507Y-101886515D01*
X80313508Y-101789362D01*
X80350687Y-101699603D01*
X80381648Y-101661876D01*
X80637371Y-101406153D01*
X83239500Y-101406153D01*
X83239500Y-101563846D01*
X83270261Y-101718492D01*
X83270263Y-101718497D01*
X83330603Y-101864173D01*
X83330606Y-101864180D01*
X83352226Y-101896536D01*
X83418211Y-101995289D01*
X83529711Y-102106789D01*
X83529714Y-102106791D01*
X83660819Y-102194393D01*
X83660820Y-102194393D01*
X83660821Y-102194394D01*
X83806503Y-102254737D01*
X83806505Y-102254737D01*
X83806507Y-102254738D01*
X83957148Y-102284702D01*
X83961158Y-102285500D01*
X84918842Y-102285500D01*
X85073497Y-102254737D01*
X85219179Y-102194394D01*
X85350289Y-102106789D01*
X85461789Y-101995289D01*
X85549394Y-101864179D01*
X85609737Y-101718497D01*
X85640500Y-101563842D01*
X85640500Y-101406158D01*
X85640499Y-101406153D01*
X108639500Y-101406153D01*
X108639500Y-101563846D01*
X108670261Y-101718492D01*
X108670263Y-101718497D01*
X108730603Y-101864173D01*
X108730606Y-101864180D01*
X108752226Y-101896536D01*
X108818211Y-101995289D01*
X108929711Y-102106789D01*
X108929714Y-102106791D01*
X109060819Y-102194393D01*
X109060820Y-102194393D01*
X109060821Y-102194394D01*
X109206503Y-102254737D01*
X109206505Y-102254737D01*
X109206507Y-102254738D01*
X109357148Y-102284702D01*
X109361158Y-102285500D01*
X110318842Y-102285500D01*
X110473497Y-102254737D01*
X110619179Y-102194394D01*
X110750289Y-102106789D01*
X110861789Y-101995289D01*
X110949394Y-101864179D01*
X111009737Y-101718497D01*
X111040500Y-101563842D01*
X111040500Y-101406158D01*
X111009737Y-101251503D01*
X110949394Y-101105821D01*
X110924832Y-101069062D01*
X110861791Y-100974714D01*
X110861789Y-100974711D01*
X110750289Y-100863211D01*
X110750285Y-100863208D01*
X110619180Y-100775606D01*
X110619173Y-100775603D01*
X110473497Y-100715263D01*
X110473492Y-100715261D01*
X110318846Y-100684500D01*
X110318842Y-100684500D01*
X109361158Y-100684500D01*
X109361153Y-100684500D01*
X109206507Y-100715261D01*
X109206502Y-100715263D01*
X109060826Y-100775603D01*
X109060819Y-100775606D01*
X108929714Y-100863208D01*
X108818208Y-100974714D01*
X108730606Y-101105819D01*
X108730603Y-101105826D01*
X108670263Y-101251502D01*
X108670261Y-101251507D01*
X108639500Y-101406153D01*
X85640499Y-101406153D01*
X85609737Y-101251503D01*
X85549394Y-101105821D01*
X85524832Y-101069062D01*
X85461791Y-100974714D01*
X85461789Y-100974711D01*
X85350289Y-100863211D01*
X85350285Y-100863208D01*
X85219180Y-100775606D01*
X85219173Y-100775603D01*
X85073497Y-100715263D01*
X85073492Y-100715261D01*
X84918846Y-100684500D01*
X84918842Y-100684500D01*
X83961158Y-100684500D01*
X83961153Y-100684500D01*
X83806507Y-100715261D01*
X83806502Y-100715263D01*
X83660826Y-100775603D01*
X83660819Y-100775606D01*
X83529714Y-100863208D01*
X83418208Y-100974714D01*
X83330606Y-101105819D01*
X83330603Y-101105826D01*
X83270263Y-101251502D01*
X83270261Y-101251507D01*
X83239500Y-101406153D01*
X80637371Y-101406153D01*
X81460510Y-100583015D01*
X81532984Y-100457485D01*
X81532986Y-100457478D01*
X81570500Y-100317477D01*
X81570500Y-98866153D01*
X83239500Y-98866153D01*
X83239500Y-99023846D01*
X83270261Y-99178492D01*
X83270263Y-99178497D01*
X83330603Y-99324173D01*
X83330606Y-99324180D01*
X83418208Y-99455285D01*
X83418211Y-99455289D01*
X83529711Y-99566789D01*
X83529714Y-99566791D01*
X83660819Y-99654393D01*
X83660820Y-99654393D01*
X83660821Y-99654394D01*
X83806503Y-99714737D01*
X83806505Y-99714737D01*
X83806507Y-99714738D01*
X83957148Y-99744702D01*
X83961158Y-99745500D01*
X84918842Y-99745500D01*
X85073497Y-99714737D01*
X85219179Y-99654394D01*
X85350289Y-99566789D01*
X85461789Y-99455289D01*
X85549394Y-99324179D01*
X85609737Y-99178497D01*
X85640500Y-99023842D01*
X85640500Y-98866158D01*
X85640499Y-98866153D01*
X108639500Y-98866153D01*
X108639500Y-99023846D01*
X108670261Y-99178492D01*
X108670263Y-99178497D01*
X108730603Y-99324173D01*
X108730606Y-99324180D01*
X108818208Y-99455285D01*
X108818211Y-99455289D01*
X108929711Y-99566789D01*
X108929714Y-99566791D01*
X109060819Y-99654393D01*
X109060820Y-99654393D01*
X109060821Y-99654394D01*
X109206503Y-99714737D01*
X109206505Y-99714737D01*
X109206507Y-99714738D01*
X109357148Y-99744702D01*
X109361158Y-99745500D01*
X110318842Y-99745500D01*
X110473497Y-99714737D01*
X110619179Y-99654394D01*
X110750289Y-99566789D01*
X110861789Y-99455289D01*
X110949394Y-99324179D01*
X111009737Y-99178497D01*
X111040500Y-99023842D01*
X111040500Y-98866158D01*
X111009737Y-98711503D01*
X110949394Y-98565821D01*
X110861789Y-98434711D01*
X110750289Y-98323211D01*
X110750285Y-98323208D01*
X110619180Y-98235606D01*
X110619173Y-98235603D01*
X110473497Y-98175263D01*
X110473492Y-98175261D01*
X110318846Y-98144500D01*
X110318842Y-98144500D01*
X109361158Y-98144500D01*
X109361153Y-98144500D01*
X109206507Y-98175261D01*
X109206502Y-98175263D01*
X109060826Y-98235603D01*
X109060819Y-98235606D01*
X108929714Y-98323208D01*
X108818208Y-98434714D01*
X108730606Y-98565819D01*
X108730603Y-98565826D01*
X108670263Y-98711502D01*
X108670261Y-98711507D01*
X108639500Y-98866153D01*
X85640499Y-98866153D01*
X85609737Y-98711503D01*
X85549394Y-98565821D01*
X85461789Y-98434711D01*
X85350289Y-98323211D01*
X85350285Y-98323208D01*
X85219180Y-98235606D01*
X85219173Y-98235603D01*
X85073497Y-98175263D01*
X85073492Y-98175261D01*
X84918846Y-98144500D01*
X84918842Y-98144500D01*
X83961158Y-98144500D01*
X83961153Y-98144500D01*
X83806507Y-98175261D01*
X83806502Y-98175263D01*
X83660826Y-98235603D01*
X83660819Y-98235606D01*
X83529714Y-98323208D01*
X83418208Y-98434714D01*
X83330606Y-98565819D01*
X83330603Y-98565826D01*
X83270263Y-98711502D01*
X83270261Y-98711507D01*
X83239500Y-98866153D01*
X81570500Y-98866153D01*
X81570500Y-96326153D01*
X83239500Y-96326153D01*
X83239500Y-96483846D01*
X83270261Y-96638492D01*
X83270263Y-96638497D01*
X83330603Y-96784173D01*
X83330606Y-96784180D01*
X83418208Y-96915285D01*
X83418211Y-96915289D01*
X83529711Y-97026789D01*
X83529714Y-97026791D01*
X83660819Y-97114393D01*
X83660820Y-97114393D01*
X83660821Y-97114394D01*
X83806503Y-97174737D01*
X83806505Y-97174737D01*
X83806507Y-97174738D01*
X83957148Y-97204702D01*
X83961158Y-97205500D01*
X84918842Y-97205500D01*
X85073497Y-97174737D01*
X85219179Y-97114394D01*
X85350289Y-97026789D01*
X85461789Y-96915289D01*
X85549394Y-96784179D01*
X85609737Y-96638497D01*
X85625472Y-96559394D01*
X85626138Y-96556047D01*
X85626138Y-96556044D01*
X85640500Y-96483842D01*
X85640500Y-96326158D01*
X85626138Y-96253955D01*
X85626138Y-96253952D01*
X85609738Y-96171507D01*
X85609737Y-96171505D01*
X85609737Y-96171503D01*
X85602901Y-96155000D01*
X108365884Y-96155000D01*
X109524314Y-96155000D01*
X109519920Y-96159394D01*
X109467259Y-96250606D01*
X109440000Y-96352339D01*
X109440000Y-96457661D01*
X109467259Y-96559394D01*
X109519920Y-96650606D01*
X109524314Y-96655000D01*
X108365885Y-96655000D01*
X108367085Y-96662584D01*
X108420588Y-96827248D01*
X108420592Y-96827258D01*
X108499191Y-96981516D01*
X108499195Y-96981523D01*
X108600968Y-97121603D01*
X108723396Y-97244031D01*
X108863476Y-97345804D01*
X108863483Y-97345808D01*
X109017741Y-97424407D01*
X109017754Y-97424413D01*
X109182416Y-97477914D01*
X109353418Y-97504999D01*
X109353431Y-97505000D01*
X109589999Y-97505000D01*
X109590000Y-97504999D01*
X109590000Y-96720686D01*
X109594394Y-96725080D01*
X109685606Y-96777741D01*
X109787339Y-96805000D01*
X109892661Y-96805000D01*
X109994394Y-96777741D01*
X110085606Y-96725080D01*
X110090000Y-96720686D01*
X110090000Y-97504999D01*
X110090001Y-97505000D01*
X110326569Y-97505000D01*
X110326581Y-97504999D01*
X110497583Y-97477914D01*
X110497584Y-97477914D01*
X110662245Y-97424413D01*
X110662258Y-97424407D01*
X110816516Y-97345808D01*
X110816523Y-97345804D01*
X110956603Y-97244031D01*
X111079031Y-97121603D01*
X111180804Y-96981523D01*
X111180808Y-96981516D01*
X111259407Y-96827258D01*
X111259411Y-96827248D01*
X111312914Y-96662584D01*
X111314115Y-96655000D01*
X110155686Y-96655000D01*
X110160080Y-96650606D01*
X110212741Y-96559394D01*
X110240000Y-96457661D01*
X110240000Y-96352339D01*
X110212741Y-96250606D01*
X110160080Y-96159394D01*
X110155686Y-96155000D01*
X111314115Y-96155000D01*
X111312914Y-96147415D01*
X111259411Y-95982751D01*
X111259407Y-95982741D01*
X111180808Y-95828483D01*
X111180804Y-95828476D01*
X111079031Y-95688396D01*
X110956603Y-95565968D01*
X110816523Y-95464195D01*
X110816516Y-95464191D01*
X110662258Y-95385592D01*
X110662245Y-95385586D01*
X110497583Y-95332085D01*
X110326581Y-95305000D01*
X110090001Y-95305000D01*
X110090000Y-95305001D01*
X110090000Y-96089314D01*
X110085606Y-96084920D01*
X109994394Y-96032259D01*
X109892661Y-96005000D01*
X109787339Y-96005000D01*
X109685606Y-96032259D01*
X109594394Y-96084920D01*
X109590000Y-96089314D01*
X109590000Y-95305001D01*
X109589999Y-95305000D01*
X109353418Y-95305000D01*
X109182416Y-95332085D01*
X109182415Y-95332085D01*
X109017754Y-95385586D01*
X109017741Y-95385592D01*
X108863483Y-95464191D01*
X108863476Y-95464195D01*
X108723396Y-95565968D01*
X108600968Y-95688396D01*
X108499195Y-95828476D01*
X108499191Y-95828483D01*
X108420592Y-95982741D01*
X108420588Y-95982751D01*
X108367085Y-96147415D01*
X108365884Y-96155000D01*
X85602901Y-96155000D01*
X85549394Y-96025821D01*
X85461789Y-95894711D01*
X85350289Y-95783211D01*
X85350285Y-95783208D01*
X85219180Y-95695606D01*
X85219173Y-95695603D01*
X85073497Y-95635263D01*
X85073492Y-95635261D01*
X84918846Y-95604500D01*
X84918842Y-95604500D01*
X83961158Y-95604500D01*
X83961153Y-95604500D01*
X83806507Y-95635261D01*
X83806502Y-95635263D01*
X83660826Y-95695603D01*
X83660819Y-95695606D01*
X83529714Y-95783208D01*
X83418208Y-95894714D01*
X83330606Y-96025819D01*
X83330603Y-96025826D01*
X83270263Y-96171502D01*
X83270261Y-96171507D01*
X83239500Y-96326153D01*
X81570500Y-96326153D01*
X81570500Y-93786153D01*
X83239500Y-93786153D01*
X83239500Y-93943846D01*
X83270261Y-94098492D01*
X83270263Y-94098497D01*
X83330603Y-94244173D01*
X83330606Y-94244180D01*
X83418208Y-94375285D01*
X83418211Y-94375289D01*
X83529711Y-94486789D01*
X83529714Y-94486791D01*
X83660819Y-94574393D01*
X83660820Y-94574393D01*
X83660821Y-94574394D01*
X83806503Y-94634737D01*
X83806505Y-94634737D01*
X83806507Y-94634738D01*
X83957148Y-94664702D01*
X83961158Y-94665500D01*
X84918842Y-94665500D01*
X85073497Y-94634737D01*
X85219179Y-94574394D01*
X85350289Y-94486789D01*
X85461789Y-94375289D01*
X85549394Y-94244179D01*
X85609737Y-94098497D01*
X85640500Y-93943842D01*
X85640500Y-93786158D01*
X85640499Y-93786153D01*
X108639500Y-93786153D01*
X108639500Y-93943846D01*
X108670261Y-94098492D01*
X108670263Y-94098497D01*
X108730603Y-94244173D01*
X108730606Y-94244180D01*
X108818208Y-94375285D01*
X108818211Y-94375289D01*
X108929711Y-94486789D01*
X108929714Y-94486791D01*
X109060819Y-94574393D01*
X109060820Y-94574393D01*
X109060821Y-94574394D01*
X109206503Y-94634737D01*
X109206505Y-94634737D01*
X109206507Y-94634738D01*
X109357148Y-94664702D01*
X109361158Y-94665500D01*
X110318842Y-94665500D01*
X110473497Y-94634737D01*
X110619179Y-94574394D01*
X110750289Y-94486789D01*
X110861789Y-94375289D01*
X110949394Y-94244179D01*
X111009737Y-94098497D01*
X111040500Y-93943842D01*
X111040500Y-93786158D01*
X111009737Y-93631503D01*
X110949394Y-93485821D01*
X110861789Y-93354711D01*
X110750289Y-93243211D01*
X110750285Y-93243208D01*
X110619180Y-93155606D01*
X110619173Y-93155603D01*
X110473497Y-93095263D01*
X110473492Y-93095261D01*
X110318846Y-93064500D01*
X110318842Y-93064500D01*
X109361158Y-93064500D01*
X109361153Y-93064500D01*
X109206507Y-93095261D01*
X109206502Y-93095263D01*
X109060826Y-93155603D01*
X109060819Y-93155606D01*
X108929714Y-93243208D01*
X108818208Y-93354714D01*
X108730606Y-93485819D01*
X108730603Y-93485826D01*
X108670263Y-93631502D01*
X108670261Y-93631507D01*
X108639500Y-93786153D01*
X85640499Y-93786153D01*
X85609737Y-93631503D01*
X85549394Y-93485821D01*
X85461789Y-93354711D01*
X85350289Y-93243211D01*
X85350285Y-93243208D01*
X85219180Y-93155606D01*
X85219173Y-93155603D01*
X85073497Y-93095263D01*
X85073492Y-93095261D01*
X84918846Y-93064500D01*
X84918842Y-93064500D01*
X83961158Y-93064500D01*
X83961153Y-93064500D01*
X83806507Y-93095261D01*
X83806502Y-93095263D01*
X83660826Y-93155603D01*
X83660819Y-93155606D01*
X83529714Y-93243208D01*
X83418208Y-93354714D01*
X83330606Y-93485819D01*
X83330603Y-93485826D01*
X83270263Y-93631502D01*
X83270261Y-93631507D01*
X83239500Y-93786153D01*
X81570500Y-93786153D01*
X81570500Y-91246153D01*
X83239500Y-91246153D01*
X83239500Y-91403846D01*
X83270261Y-91558492D01*
X83270263Y-91558497D01*
X83330603Y-91704173D01*
X83330606Y-91704180D01*
X83418208Y-91835285D01*
X83418211Y-91835289D01*
X83529711Y-91946789D01*
X83529714Y-91946791D01*
X83660819Y-92034393D01*
X83660820Y-92034393D01*
X83660821Y-92034394D01*
X83806503Y-92094737D01*
X83806505Y-92094737D01*
X83806507Y-92094738D01*
X83957148Y-92124702D01*
X83961158Y-92125500D01*
X84918842Y-92125500D01*
X85073497Y-92094737D01*
X85219179Y-92034394D01*
X85350289Y-91946789D01*
X85461789Y-91835289D01*
X85549394Y-91704179D01*
X85609737Y-91558497D01*
X85640500Y-91403842D01*
X85640500Y-91246158D01*
X85609737Y-91091503D01*
X85549394Y-90945821D01*
X85545845Y-90940510D01*
X85461791Y-90814714D01*
X85461789Y-90814711D01*
X85350289Y-90703211D01*
X85350285Y-90703208D01*
X85219180Y-90615606D01*
X85219173Y-90615603D01*
X85073497Y-90555263D01*
X85073492Y-90555261D01*
X84918846Y-90524500D01*
X84918842Y-90524500D01*
X83961158Y-90524500D01*
X83961153Y-90524500D01*
X83806507Y-90555261D01*
X83806502Y-90555263D01*
X83660826Y-90615603D01*
X83660819Y-90615606D01*
X83529714Y-90703208D01*
X83418208Y-90814714D01*
X83330606Y-90945819D01*
X83330603Y-90945826D01*
X83270263Y-91091502D01*
X83270261Y-91091507D01*
X83239500Y-91246153D01*
X81570500Y-91246153D01*
X81570500Y-88706153D01*
X83239500Y-88706153D01*
X83239500Y-88863846D01*
X83270261Y-89018492D01*
X83270263Y-89018497D01*
X83330603Y-89164173D01*
X83330606Y-89164180D01*
X83349212Y-89192025D01*
X83418211Y-89295289D01*
X83529711Y-89406789D01*
X83529714Y-89406791D01*
X83660819Y-89494393D01*
X83660820Y-89494393D01*
X83660821Y-89494394D01*
X83806503Y-89554737D01*
X83806505Y-89554737D01*
X83806507Y-89554738D01*
X83921407Y-89577593D01*
X83961158Y-89585500D01*
X84918842Y-89585500D01*
X85073497Y-89554737D01*
X85219179Y-89494394D01*
X85350289Y-89406789D01*
X85461789Y-89295289D01*
X85549394Y-89164179D01*
X85609737Y-89018497D01*
X85640500Y-88863842D01*
X85640500Y-88706158D01*
X85609737Y-88551503D01*
X85549394Y-88405821D01*
X85547367Y-88402788D01*
X85461791Y-88274714D01*
X85461789Y-88274711D01*
X85350289Y-88163211D01*
X85348101Y-88161749D01*
X85219180Y-88075606D01*
X85219173Y-88075603D01*
X85073497Y-88015263D01*
X85073492Y-88015261D01*
X84918846Y-87984500D01*
X84918842Y-87984500D01*
X83961158Y-87984500D01*
X83961153Y-87984500D01*
X83806507Y-88015261D01*
X83806502Y-88015263D01*
X83660826Y-88075603D01*
X83660819Y-88075606D01*
X83529714Y-88163208D01*
X83418208Y-88274714D01*
X83330606Y-88405819D01*
X83330603Y-88405826D01*
X83270263Y-88551502D01*
X83270261Y-88551507D01*
X83239500Y-88706153D01*
X81570500Y-88706153D01*
X81570500Y-86166153D01*
X83239500Y-86166153D01*
X83239500Y-86323846D01*
X83270261Y-86478492D01*
X83270263Y-86478497D01*
X83330603Y-86624173D01*
X83330606Y-86624180D01*
X83345349Y-86646244D01*
X83418211Y-86755289D01*
X83529711Y-86866789D01*
X83529714Y-86866791D01*
X83660819Y-86954393D01*
X83660820Y-86954393D01*
X83660821Y-86954394D01*
X83806503Y-87014737D01*
X83806505Y-87014737D01*
X83806507Y-87014738D01*
X83921432Y-87037598D01*
X83961158Y-87045500D01*
X84918842Y-87045500D01*
X85073497Y-87014737D01*
X85219179Y-86954394D01*
X85350289Y-86866789D01*
X85461789Y-86755289D01*
X85549394Y-86624179D01*
X85609737Y-86478497D01*
X85640500Y-86323842D01*
X85640500Y-86166158D01*
X85635277Y-86139901D01*
X85609738Y-86011507D01*
X85609737Y-86011505D01*
X85609737Y-86011503D01*
X85549394Y-85865821D01*
X85461789Y-85734711D01*
X85350289Y-85623211D01*
X85329114Y-85609062D01*
X85219180Y-85535606D01*
X85219173Y-85535603D01*
X85073497Y-85475263D01*
X85073492Y-85475261D01*
X84918846Y-85444500D01*
X84918842Y-85444500D01*
X83961158Y-85444500D01*
X83961153Y-85444500D01*
X83806507Y-85475261D01*
X83806502Y-85475263D01*
X83660826Y-85535603D01*
X83660819Y-85535606D01*
X83529714Y-85623208D01*
X83418208Y-85734714D01*
X83330606Y-85865819D01*
X83330603Y-85865826D01*
X83270263Y-86011502D01*
X83270261Y-86011507D01*
X83239500Y-86166153D01*
X81570500Y-86166153D01*
X81570500Y-78410165D01*
X81589454Y-78314877D01*
X81643430Y-78234095D01*
X81724212Y-78180119D01*
X81819500Y-78161165D01*
X81914788Y-78180119D01*
X81995570Y-78234095D01*
X83700905Y-79939430D01*
X83754881Y-80020212D01*
X83773835Y-80115500D01*
X83754881Y-80210788D01*
X83700905Y-80291570D01*
X83620123Y-80345546D01*
X83524835Y-80364500D01*
X83420252Y-80364500D01*
X83386750Y-80371164D01*
X83361767Y-80376133D01*
X83295451Y-80420445D01*
X83295445Y-80420451D01*
X83251133Y-80486767D01*
X83251133Y-80486769D01*
X83239500Y-80545252D01*
X83239500Y-81784748D01*
X83248224Y-81828610D01*
X83251133Y-81843232D01*
X83295445Y-81909548D01*
X83295448Y-81909552D01*
X83295451Y-81909554D01*
X83361767Y-81953866D01*
X83361769Y-81953867D01*
X83420252Y-81965500D01*
X84799835Y-81965500D01*
X84895123Y-81984454D01*
X84975905Y-82038430D01*
X85029881Y-82119212D01*
X85048835Y-82214500D01*
X85029881Y-82309788D01*
X84975905Y-82390570D01*
X84534905Y-82831570D01*
X84454123Y-82885546D01*
X84358835Y-82904500D01*
X83961153Y-82904500D01*
X83806507Y-82935261D01*
X83806502Y-82935263D01*
X83660826Y-82995603D01*
X83660819Y-82995606D01*
X83529714Y-83083208D01*
X83418208Y-83194714D01*
X83330606Y-83325819D01*
X83330603Y-83325826D01*
X83270263Y-83471502D01*
X83270261Y-83471507D01*
X83239500Y-83626153D01*
X83239500Y-83783846D01*
X83270261Y-83938492D01*
X83270263Y-83938497D01*
X83330603Y-84084173D01*
X83330606Y-84084180D01*
X83375872Y-84151925D01*
X83418211Y-84215289D01*
X83529711Y-84326789D01*
X83529714Y-84326791D01*
X83660819Y-84414393D01*
X83660820Y-84414393D01*
X83660821Y-84414394D01*
X83806503Y-84474737D01*
X83806505Y-84474737D01*
X83806507Y-84474738D01*
X83921407Y-84497593D01*
X83961158Y-84505500D01*
X84918842Y-84505500D01*
X85073497Y-84474737D01*
X85219179Y-84414394D01*
X85350289Y-84326789D01*
X85461789Y-84215289D01*
X85549394Y-84084179D01*
X85609737Y-83938497D01*
X85640500Y-83783842D01*
X85640500Y-83626158D01*
X85609737Y-83471503D01*
X85609735Y-83471499D01*
X85609535Y-83470491D01*
X85609534Y-83373336D01*
X85646713Y-83283576D01*
X85677675Y-83245848D01*
X86431510Y-82492015D01*
X86503984Y-82366485D01*
X86541500Y-82226475D01*
X86541500Y-79397211D01*
X86503984Y-79257201D01*
X86497769Y-79246436D01*
X86478169Y-79212487D01*
X86478166Y-79212483D01*
X86431510Y-79131671D01*
X80359329Y-73059490D01*
X80359326Y-73059488D01*
X80359325Y-73059487D01*
X80282514Y-73015141D01*
X80209468Y-72951083D01*
X80166497Y-72863948D01*
X80160142Y-72767001D01*
X80191371Y-72675002D01*
X80255429Y-72601956D01*
X80342564Y-72558985D01*
X80407012Y-72550500D01*
X107168835Y-72550500D01*
X107264123Y-72569454D01*
X107344905Y-72623430D01*
X110876570Y-76155095D01*
X110930546Y-76235877D01*
X110949500Y-76331165D01*
X110949500Y-79896203D01*
X110930546Y-79991491D01*
X110876570Y-80072273D01*
X110795788Y-80126249D01*
X110700500Y-80145203D01*
X110623556Y-80133016D01*
X110497583Y-80092085D01*
X110326581Y-80065000D01*
X110090001Y-80065000D01*
X110090000Y-80065001D01*
X110090000Y-80849314D01*
X110085606Y-80844920D01*
X109994394Y-80792259D01*
X109892661Y-80765000D01*
X109787339Y-80765000D01*
X109685606Y-80792259D01*
X109594394Y-80844920D01*
X109590000Y-80849314D01*
X109590000Y-80065001D01*
X109589999Y-80065000D01*
X109353418Y-80065000D01*
X109182416Y-80092085D01*
X109182415Y-80092085D01*
X109017754Y-80145586D01*
X109017741Y-80145592D01*
X108863483Y-80224191D01*
X108863476Y-80224195D01*
X108723396Y-80325968D01*
X108600968Y-80448396D01*
X108499195Y-80588476D01*
X108499191Y-80588483D01*
X108420592Y-80742741D01*
X108420588Y-80742751D01*
X108367085Y-80907415D01*
X108365884Y-80915000D01*
X109524314Y-80915000D01*
X109519920Y-80919394D01*
X109467259Y-81010606D01*
X109440000Y-81112339D01*
X109440000Y-81217661D01*
X109467259Y-81319394D01*
X109519920Y-81410606D01*
X109524314Y-81415000D01*
X108365885Y-81415000D01*
X108367085Y-81422584D01*
X108420588Y-81587248D01*
X108420592Y-81587258D01*
X108499191Y-81741516D01*
X108499195Y-81741523D01*
X108600968Y-81881603D01*
X108723396Y-82004031D01*
X108863476Y-82105804D01*
X108863483Y-82105808D01*
X109017741Y-82184407D01*
X109017754Y-82184413D01*
X109182416Y-82237914D01*
X109353418Y-82264999D01*
X109353431Y-82265000D01*
X109589999Y-82265000D01*
X109590000Y-82264999D01*
X109590000Y-81480686D01*
X109594394Y-81485080D01*
X109685606Y-81537741D01*
X109787339Y-81565000D01*
X109892661Y-81565000D01*
X109994394Y-81537741D01*
X110085606Y-81485080D01*
X110090000Y-81480686D01*
X110090000Y-82264999D01*
X110090001Y-82265000D01*
X110326569Y-82265000D01*
X110326581Y-82264999D01*
X110497579Y-82237915D01*
X110623554Y-82196983D01*
X110662265Y-82192401D01*
X110700500Y-82184796D01*
X110710208Y-82186727D01*
X110720036Y-82185564D01*
X110757552Y-82196144D01*
X110795788Y-82203750D01*
X110804017Y-82209248D01*
X110813543Y-82211935D01*
X110844154Y-82236067D01*
X110876570Y-82257726D01*
X110882069Y-82265956D01*
X110889841Y-82272083D01*
X110908889Y-82306095D01*
X110930546Y-82338508D01*
X110932476Y-82348214D01*
X110937313Y-82356850D01*
X110949500Y-82433796D01*
X110949500Y-82759774D01*
X110930546Y-82855062D01*
X110876570Y-82935844D01*
X110795788Y-82989820D01*
X110700500Y-83008774D01*
X110605214Y-82989821D01*
X110473493Y-82935261D01*
X110318846Y-82904500D01*
X110318842Y-82904500D01*
X109361158Y-82904500D01*
X109361153Y-82904500D01*
X109206507Y-82935261D01*
X109206502Y-82935263D01*
X109060826Y-82995603D01*
X109060819Y-82995606D01*
X108929714Y-83083208D01*
X108818208Y-83194714D01*
X108730606Y-83325819D01*
X108730603Y-83325826D01*
X108670263Y-83471502D01*
X108670261Y-83471507D01*
X108639500Y-83626153D01*
X108639500Y-83783846D01*
X108670261Y-83938492D01*
X108670263Y-83938497D01*
X108730603Y-84084173D01*
X108730606Y-84084180D01*
X108775872Y-84151925D01*
X108818211Y-84215289D01*
X108929711Y-84326789D01*
X108929714Y-84326791D01*
X109060819Y-84414393D01*
X109060820Y-84414393D01*
X109060821Y-84414394D01*
X109206503Y-84474737D01*
X109206505Y-84474737D01*
X109206507Y-84474738D01*
X109321407Y-84497593D01*
X109361158Y-84505500D01*
X110318842Y-84505500D01*
X110473497Y-84474737D01*
X110605213Y-84420179D01*
X110700501Y-84401225D01*
X110795789Y-84420179D01*
X110876570Y-84474156D01*
X110930546Y-84554938D01*
X110949500Y-84650225D01*
X110949500Y-85299774D01*
X110930546Y-85395062D01*
X110876570Y-85475844D01*
X110795788Y-85529820D01*
X110700500Y-85548774D01*
X110605214Y-85529821D01*
X110473493Y-85475261D01*
X110318846Y-85444500D01*
X110318842Y-85444500D01*
X109361158Y-85444500D01*
X109361153Y-85444500D01*
X109206507Y-85475261D01*
X109206502Y-85475263D01*
X109060826Y-85535603D01*
X109060819Y-85535606D01*
X108929714Y-85623208D01*
X108818208Y-85734714D01*
X108730606Y-85865819D01*
X108730603Y-85865826D01*
X108670263Y-86011502D01*
X108670261Y-86011507D01*
X108639500Y-86166153D01*
X108639500Y-86323846D01*
X108670261Y-86478492D01*
X108670263Y-86478497D01*
X108730603Y-86624173D01*
X108730606Y-86624180D01*
X108745349Y-86646244D01*
X108818211Y-86755289D01*
X108929711Y-86866789D01*
X108929714Y-86866791D01*
X109060819Y-86954393D01*
X109060820Y-86954393D01*
X109060821Y-86954394D01*
X109206503Y-87014737D01*
X109206505Y-87014737D01*
X109206507Y-87014738D01*
X109321432Y-87037598D01*
X109361158Y-87045500D01*
X110199835Y-87045500D01*
X110295123Y-87064454D01*
X110375905Y-87118430D01*
X110429881Y-87199212D01*
X110448835Y-87294500D01*
X110429881Y-87389788D01*
X110375905Y-87470570D01*
X109934905Y-87911570D01*
X109854123Y-87965546D01*
X109758835Y-87984500D01*
X109361153Y-87984500D01*
X109206507Y-88015261D01*
X109206502Y-88015263D01*
X109060826Y-88075603D01*
X109060819Y-88075606D01*
X108929714Y-88163208D01*
X108818208Y-88274714D01*
X108730606Y-88405819D01*
X108730603Y-88405826D01*
X108670263Y-88551502D01*
X108670261Y-88551507D01*
X108639500Y-88706153D01*
X108639500Y-88863846D01*
X108670261Y-89018492D01*
X108670263Y-89018497D01*
X108730603Y-89164173D01*
X108730606Y-89164180D01*
X108749212Y-89192025D01*
X108818211Y-89295289D01*
X108929711Y-89406789D01*
X108929714Y-89406791D01*
X109060819Y-89494393D01*
X109060820Y-89494393D01*
X109060821Y-89494394D01*
X109206503Y-89554737D01*
X109206505Y-89554737D01*
X109206507Y-89554738D01*
X109321407Y-89577593D01*
X109361158Y-89585500D01*
X110199835Y-89585500D01*
X110295123Y-89604454D01*
X110375905Y-89658430D01*
X110429881Y-89739212D01*
X110448835Y-89834500D01*
X110429881Y-89929788D01*
X110375905Y-90010570D01*
X109934905Y-90451570D01*
X109854123Y-90505546D01*
X109758835Y-90524500D01*
X109361153Y-90524500D01*
X109206507Y-90555261D01*
X109206502Y-90555263D01*
X109060826Y-90615603D01*
X109060819Y-90615606D01*
X108929714Y-90703208D01*
X108818208Y-90814714D01*
X108730606Y-90945819D01*
X108730603Y-90945826D01*
X108670263Y-91091502D01*
X108670261Y-91091507D01*
X108639500Y-91246153D01*
X108639500Y-91403846D01*
X108670261Y-91558492D01*
X108670263Y-91558497D01*
X108730603Y-91704173D01*
X108730606Y-91704180D01*
X108818208Y-91835285D01*
X108818211Y-91835289D01*
X108929711Y-91946789D01*
X108929714Y-91946791D01*
X109060819Y-92034393D01*
X109060820Y-92034393D01*
X109060821Y-92034394D01*
X109206503Y-92094737D01*
X109206505Y-92094737D01*
X109206507Y-92094738D01*
X109357148Y-92124702D01*
X109361158Y-92125500D01*
X110318842Y-92125500D01*
X110473497Y-92094737D01*
X110619179Y-92034394D01*
X110750289Y-91946789D01*
X110861789Y-91835289D01*
X110949394Y-91704179D01*
X111009737Y-91558497D01*
X111040500Y-91403842D01*
X111040500Y-91246158D01*
X111009737Y-91091503D01*
X111009737Y-91091502D01*
X111009536Y-91090490D01*
X111009535Y-90993335D01*
X111046715Y-90903575D01*
X111077676Y-90865847D01*
X112326432Y-89617092D01*
X112407212Y-89563118D01*
X112502500Y-89544164D01*
X112597788Y-89563118D01*
X112678570Y-89617094D01*
X112732546Y-89697876D01*
X112751500Y-89793164D01*
X112751500Y-110391835D01*
X112732546Y-110487123D01*
X112678570Y-110567905D01*
X111465570Y-111780905D01*
X111384788Y-111834881D01*
X111289500Y-111853835D01*
X111194212Y-111834881D01*
X111113430Y-111780905D01*
X111059454Y-111700123D01*
X111040500Y-111604835D01*
X111040500Y-111566158D01*
X111040499Y-111566153D01*
X111009738Y-111411507D01*
X111009737Y-111411505D01*
X111009737Y-111411503D01*
X110949394Y-111265821D01*
X110921465Y-111224023D01*
X110861791Y-111134714D01*
X110861789Y-111134711D01*
X110750289Y-111023211D01*
X110750285Y-111023208D01*
X110619180Y-110935606D01*
X110619173Y-110935603D01*
X110473497Y-110875263D01*
X110473492Y-110875261D01*
X110318846Y-110844500D01*
X110318842Y-110844500D01*
X109361158Y-110844500D01*
X109361153Y-110844500D01*
X109206507Y-110875261D01*
X109206502Y-110875263D01*
X109060826Y-110935603D01*
X109060819Y-110935606D01*
X108929714Y-111023208D01*
X108818208Y-111134714D01*
X108730606Y-111265819D01*
X108730603Y-111265826D01*
X108670263Y-111411502D01*
X108670261Y-111411507D01*
X108639500Y-111566153D01*
X108639500Y-111723846D01*
X108670261Y-111878492D01*
X108670263Y-111878497D01*
X108730603Y-112024173D01*
X108730606Y-112024180D01*
X108812175Y-112146256D01*
X108818211Y-112155289D01*
X108929711Y-112266789D01*
X108929714Y-112266791D01*
X109060819Y-112354393D01*
X109060820Y-112354393D01*
X109060821Y-112354394D01*
X109206503Y-112414737D01*
X109206505Y-112414737D01*
X109206507Y-112414738D01*
X109357148Y-112444702D01*
X109361158Y-112445500D01*
X110199835Y-112445500D01*
X110295123Y-112464454D01*
X110375905Y-112518430D01*
X110429881Y-112599212D01*
X110448835Y-112694500D01*
X110429881Y-112789788D01*
X110375905Y-112870570D01*
X109934905Y-113311570D01*
X109854123Y-113365546D01*
X109758835Y-113384500D01*
X109361153Y-113384500D01*
X109206507Y-113415261D01*
X109206502Y-113415263D01*
X109060826Y-113475603D01*
X109060819Y-113475606D01*
X108929714Y-113563208D01*
X108818208Y-113674714D01*
X108730606Y-113805819D01*
X108730603Y-113805826D01*
X108670263Y-113951502D01*
X108670261Y-113951507D01*
X108639500Y-114106153D01*
X108639500Y-114263846D01*
X108670261Y-114418492D01*
X108670263Y-114418497D01*
X108730603Y-114564173D01*
X108730606Y-114564180D01*
X108810310Y-114683465D01*
X108818211Y-114695289D01*
X108929711Y-114806789D01*
X108929714Y-114806791D01*
X109060819Y-114894393D01*
X109060820Y-114894393D01*
X109060821Y-114894394D01*
X109206503Y-114954737D01*
X109206505Y-114954737D01*
X109206507Y-114954738D01*
X109357148Y-114984702D01*
X109361158Y-114985500D01*
X110318842Y-114985500D01*
X110473497Y-114954737D01*
X110619179Y-114894394D01*
X110750289Y-114806789D01*
X110861789Y-114695289D01*
X110949394Y-114564179D01*
X111009737Y-114418497D01*
X111040500Y-114263842D01*
X111040500Y-114106158D01*
X111035297Y-114080000D01*
X111009536Y-113950490D01*
X111009535Y-113853335D01*
X111046715Y-113763575D01*
X111077676Y-113725847D01*
X113742510Y-111061015D01*
X113814984Y-110935485D01*
X113852500Y-110795475D01*
X113852500Y-75181113D01*
X113814984Y-75041103D01*
X113814982Y-75041099D01*
X113783757Y-74987015D01*
X113783755Y-74987013D01*
X113742511Y-74915575D01*
X113742510Y-74915573D01*
X108386427Y-69559490D01*
X108386424Y-69559488D01*
X108260902Y-69487018D01*
X108260895Y-69487015D01*
X108172133Y-69463231D01*
X108120887Y-69449500D01*
X75379113Y-69449500D01*
X75239108Y-69487014D01*
X75239103Y-69487016D01*
X75113575Y-69559489D01*
X72409854Y-72263209D01*
X72329072Y-72317185D01*
X72233784Y-72336139D01*
X72138496Y-72317185D01*
X72057714Y-72263209D01*
X72003738Y-72182427D01*
X71984784Y-72087139D01*
X72000270Y-55249269D01*
X72019312Y-55154000D01*
X72073362Y-55073269D01*
X72154193Y-55019366D01*
X72249270Y-55000500D01*
X114750500Y-55000500D01*
X114845788Y-55019454D01*
G37*
%TD.AperFunction*%
%TA.AperFunction,Conductor*%
G36*
X76115270Y-117881716D02*
G01*
X76154622Y-117827553D01*
X76219054Y-117701099D01*
X76279202Y-117624801D01*
X76363969Y-117577329D01*
X76460450Y-117565910D01*
X76553958Y-117592281D01*
X76630256Y-117652429D01*
X76647951Y-117675805D01*
X76724023Y-117789655D01*
X76870345Y-117935977D01*
X76870348Y-117935979D01*
X76870350Y-117935981D01*
X77042396Y-118050937D01*
X77042402Y-118050941D01*
X77042404Y-118050941D01*
X77042406Y-118050943D01*
X77102013Y-118075633D01*
X77233580Y-118130130D01*
X77312283Y-118145784D01*
X77402040Y-118182964D01*
X77470739Y-118251663D01*
X77507919Y-118341423D01*
X77507919Y-118438578D01*
X77470739Y-118528337D01*
X77402040Y-118597036D01*
X77312283Y-118634215D01*
X77233580Y-118649870D01*
X77233578Y-118649870D01*
X77233577Y-118649871D01*
X77042406Y-118729056D01*
X77042396Y-118729062D01*
X76870350Y-118844018D01*
X76724022Y-118990346D01*
X76647951Y-119104195D01*
X76579251Y-119172893D01*
X76489492Y-119210073D01*
X76392337Y-119210072D01*
X76302577Y-119172893D01*
X76233879Y-119104193D01*
X76219054Y-119078900D01*
X76154622Y-118952445D01*
X76115270Y-118898282D01*
X76115269Y-118898282D01*
X75482962Y-119530589D01*
X75465925Y-119467007D01*
X75400099Y-119352993D01*
X75307007Y-119259901D01*
X75192993Y-119194075D01*
X75129408Y-119177037D01*
X75761717Y-118544729D01*
X75759701Y-118519115D01*
X75726438Y-118428951D01*
X75730252Y-118331871D01*
X75759026Y-118269455D01*
X75761716Y-118235270D01*
X75129408Y-117602962D01*
X75192993Y-117585925D01*
X75307007Y-117520099D01*
X75400099Y-117427007D01*
X75465925Y-117312993D01*
X75482962Y-117249408D01*
X76115270Y-117881716D01*
G37*
%TD.AperFunction*%
%TA.AperFunction,Conductor*%
G36*
X76115270Y-115341716D02*
G01*
X76154622Y-115287553D01*
X76219054Y-115161099D01*
X76279202Y-115084801D01*
X76363969Y-115037329D01*
X76460450Y-115025910D01*
X76553958Y-115052281D01*
X76630256Y-115112429D01*
X76647951Y-115135805D01*
X76724023Y-115249655D01*
X76870345Y-115395977D01*
X76870348Y-115395979D01*
X76870350Y-115395981D01*
X77042396Y-115510937D01*
X77042402Y-115510941D01*
X77042404Y-115510941D01*
X77042406Y-115510943D01*
X77102013Y-115535633D01*
X77233580Y-115590130D01*
X77312283Y-115605784D01*
X77402040Y-115642964D01*
X77470739Y-115711663D01*
X77507919Y-115801423D01*
X77507919Y-115898578D01*
X77470739Y-115988337D01*
X77402040Y-116057036D01*
X77312283Y-116094215D01*
X77233580Y-116109870D01*
X77233578Y-116109870D01*
X77233577Y-116109871D01*
X77042406Y-116189056D01*
X77042396Y-116189062D01*
X76870350Y-116304018D01*
X76724022Y-116450346D01*
X76647951Y-116564195D01*
X76579251Y-116632893D01*
X76489492Y-116670073D01*
X76392337Y-116670072D01*
X76302577Y-116632893D01*
X76233879Y-116564193D01*
X76219054Y-116538900D01*
X76154622Y-116412445D01*
X76115270Y-116358282D01*
X76115269Y-116358282D01*
X75482962Y-116990589D01*
X75465925Y-116927007D01*
X75400099Y-116812993D01*
X75307007Y-116719901D01*
X75192993Y-116654075D01*
X75129408Y-116637037D01*
X75761717Y-116004729D01*
X75759701Y-115979115D01*
X75726438Y-115888951D01*
X75730252Y-115791871D01*
X75759026Y-115729455D01*
X75761716Y-115695270D01*
X75129408Y-115062962D01*
X75192993Y-115045925D01*
X75307007Y-114980099D01*
X75400099Y-114887007D01*
X75465925Y-114772993D01*
X75482962Y-114709408D01*
X76115270Y-115341716D01*
G37*
%TD.AperFunction*%
%TA.AperFunction,Conductor*%
G36*
X76115270Y-112801716D02*
G01*
X76154622Y-112747553D01*
X76219054Y-112621099D01*
X76279202Y-112544801D01*
X76363969Y-112497329D01*
X76460450Y-112485910D01*
X76553958Y-112512281D01*
X76630256Y-112572429D01*
X76647951Y-112595805D01*
X76719705Y-112703193D01*
X76724023Y-112709655D01*
X76870345Y-112855977D01*
X76870348Y-112855979D01*
X76870350Y-112855981D01*
X77042396Y-112970937D01*
X77042402Y-112970941D01*
X77042404Y-112970941D01*
X77042406Y-112970943D01*
X77051117Y-112974551D01*
X77233580Y-113050130D01*
X77312283Y-113065784D01*
X77402040Y-113102964D01*
X77470739Y-113171663D01*
X77507919Y-113261423D01*
X77507919Y-113358578D01*
X77470739Y-113448337D01*
X77402040Y-113517036D01*
X77312283Y-113554215D01*
X77233580Y-113569870D01*
X77233578Y-113569870D01*
X77233577Y-113569871D01*
X77042406Y-113649056D01*
X77042396Y-113649062D01*
X76870350Y-113764018D01*
X76724022Y-113910346D01*
X76647951Y-114024195D01*
X76579251Y-114092893D01*
X76489492Y-114130073D01*
X76392337Y-114130072D01*
X76302577Y-114092893D01*
X76233879Y-114024193D01*
X76219054Y-113998900D01*
X76154622Y-113872445D01*
X76115270Y-113818282D01*
X76115269Y-113818282D01*
X75482962Y-114450589D01*
X75465925Y-114387007D01*
X75400099Y-114272993D01*
X75307007Y-114179901D01*
X75192993Y-114114075D01*
X75129408Y-114097037D01*
X75761717Y-113464729D01*
X75759701Y-113439115D01*
X75726438Y-113348951D01*
X75730252Y-113251871D01*
X75759026Y-113189455D01*
X75761716Y-113155270D01*
X75129408Y-112522962D01*
X75192993Y-112505925D01*
X75307007Y-112440099D01*
X75400099Y-112347007D01*
X75465925Y-112232993D01*
X75482962Y-112169408D01*
X76115270Y-112801716D01*
G37*
%TD.AperFunction*%
%TA.AperFunction,Conductor*%
G36*
X76394788Y-109670879D02*
G01*
X76475570Y-109724855D01*
X76529546Y-109805637D01*
X76529869Y-109806418D01*
X76529870Y-109806420D01*
X76533173Y-109814393D01*
X76609056Y-109997593D01*
X76609062Y-109997603D01*
X76724018Y-110169649D01*
X76724020Y-110169651D01*
X76724023Y-110169655D01*
X76870345Y-110315977D01*
X76870348Y-110315979D01*
X76870350Y-110315981D01*
X76983875Y-110391835D01*
X77042402Y-110430941D01*
X77042404Y-110430941D01*
X77042406Y-110430943D01*
X77102013Y-110455633D01*
X77233580Y-110510130D01*
X77312283Y-110525784D01*
X77402040Y-110562964D01*
X77470739Y-110631663D01*
X77507919Y-110721423D01*
X77507919Y-110818578D01*
X77470739Y-110908337D01*
X77402040Y-110977036D01*
X77312283Y-111014215D01*
X77233580Y-111029870D01*
X77233578Y-111029870D01*
X77233577Y-111029871D01*
X77042406Y-111109056D01*
X77042396Y-111109062D01*
X76870350Y-111224018D01*
X76724022Y-111370346D01*
X76647951Y-111484195D01*
X76579251Y-111552893D01*
X76489492Y-111590073D01*
X76392337Y-111590072D01*
X76302577Y-111552893D01*
X76233879Y-111484193D01*
X76219054Y-111458900D01*
X76154622Y-111332445D01*
X76115270Y-111278282D01*
X76115269Y-111278282D01*
X75482962Y-111910589D01*
X75465925Y-111847007D01*
X75400099Y-111732993D01*
X75307007Y-111639901D01*
X75192993Y-111574075D01*
X75129408Y-111557037D01*
X75761717Y-110924729D01*
X75761453Y-110921378D01*
X75704400Y-110859657D01*
X75670773Y-110768507D01*
X75674588Y-110671427D01*
X75715264Y-110583196D01*
X75786607Y-110517248D01*
X75800364Y-110509408D01*
X75812874Y-110502795D01*
X75812882Y-110502793D01*
X75922150Y-110422150D01*
X76002793Y-110312882D01*
X76047646Y-110184699D01*
X76050500Y-110154266D01*
X76050500Y-109900925D01*
X76069454Y-109805637D01*
X76123430Y-109724855D01*
X76204212Y-109670879D01*
X76299500Y-109651925D01*
X76394788Y-109670879D01*
G37*
%TD.AperFunction*%
%TA.AperFunction,Conductor*%
G36*
X78074075Y-86732993D02*
G01*
X78139901Y-86847007D01*
X78232993Y-86940099D01*
X78347007Y-87005925D01*
X78410589Y-87022962D01*
X77778282Y-87655269D01*
X77778282Y-87655270D01*
X77832445Y-87694622D01*
X77958900Y-87759054D01*
X78035198Y-87819202D01*
X78082670Y-87903969D01*
X78094089Y-88000450D01*
X78067718Y-88093958D01*
X78007570Y-88170256D01*
X77984195Y-88187951D01*
X77870346Y-88264022D01*
X77724018Y-88410350D01*
X77609062Y-88582396D01*
X77609056Y-88582406D01*
X77557799Y-88706153D01*
X77529870Y-88773580D01*
X77514215Y-88852283D01*
X77477036Y-88942040D01*
X77408337Y-89010739D01*
X77318577Y-89047919D01*
X77221422Y-89047919D01*
X77131663Y-89010739D01*
X77062964Y-88942040D01*
X77025784Y-88852283D01*
X77010130Y-88773580D01*
X76930941Y-88582402D01*
X76910295Y-88551503D01*
X76815981Y-88410350D01*
X76815979Y-88410348D01*
X76815977Y-88410345D01*
X76669655Y-88264023D01*
X76669651Y-88264020D01*
X76669649Y-88264018D01*
X76497603Y-88149062D01*
X76497593Y-88149056D01*
X76306422Y-88069870D01*
X76271610Y-88062946D01*
X76227716Y-88054215D01*
X76137959Y-88017036D01*
X76069260Y-87948337D01*
X76032081Y-87858578D01*
X76032080Y-87761423D01*
X76069260Y-87671663D01*
X76137959Y-87602964D01*
X76227718Y-87565785D01*
X76227718Y-87565784D01*
X76306420Y-87550130D01*
X76497598Y-87470941D01*
X76669655Y-87355977D01*
X76815977Y-87209655D01*
X76892049Y-87095803D01*
X76960746Y-87027107D01*
X77050505Y-86989927D01*
X77147660Y-86989926D01*
X77237420Y-87027105D01*
X77306119Y-87095804D01*
X77320945Y-87121098D01*
X77385377Y-87247553D01*
X77424729Y-87301717D01*
X78057037Y-86669408D01*
X78074075Y-86732993D01*
G37*
%TD.AperFunction*%
%TA.AperFunction,Conductor*%
G36*
X77394788Y-84170879D02*
G01*
X77475570Y-84224855D01*
X77529546Y-84305637D01*
X77529869Y-84306418D01*
X77529870Y-84306420D01*
X77538307Y-84326789D01*
X77609056Y-84497593D01*
X77609062Y-84497603D01*
X77724018Y-84669649D01*
X77724020Y-84669651D01*
X77724023Y-84669655D01*
X77870345Y-84815977D01*
X77870348Y-84815979D01*
X77870350Y-84815981D01*
X77984193Y-84892048D01*
X78052893Y-84960746D01*
X78090072Y-85050506D01*
X78090073Y-85147661D01*
X78052893Y-85237420D01*
X77984195Y-85306120D01*
X77958901Y-85320944D01*
X77832454Y-85385372D01*
X77832441Y-85385380D01*
X77778281Y-85424728D01*
X78410591Y-86057037D01*
X78347007Y-86074075D01*
X78232993Y-86139901D01*
X78139901Y-86232993D01*
X78074075Y-86347007D01*
X78057037Y-86410590D01*
X77424728Y-85778281D01*
X77385380Y-85832441D01*
X77385372Y-85832454D01*
X77320944Y-85958901D01*
X77260796Y-86035198D01*
X77176029Y-86082670D01*
X77079547Y-86094089D01*
X76986040Y-86067717D01*
X76909743Y-86007569D01*
X76892048Y-85984193D01*
X76815981Y-85870350D01*
X76815979Y-85870348D01*
X76815977Y-85870345D01*
X76669655Y-85724023D01*
X76669651Y-85724020D01*
X76669649Y-85724018D01*
X76497603Y-85609062D01*
X76497593Y-85609056D01*
X76305638Y-85529546D01*
X76224856Y-85475569D01*
X76170880Y-85394788D01*
X76151926Y-85299500D01*
X76170880Y-85204212D01*
X76224857Y-85123430D01*
X76305638Y-85069454D01*
X76400926Y-85050500D01*
X76654271Y-85050500D01*
X76654272Y-85050499D01*
X76684699Y-85047646D01*
X76812882Y-85002793D01*
X76922150Y-84922150D01*
X77002793Y-84812882D01*
X77047646Y-84684699D01*
X77050500Y-84654266D01*
X77050500Y-84400925D01*
X77069454Y-84305637D01*
X77123430Y-84224855D01*
X77204212Y-84170879D01*
X77299500Y-84151925D01*
X77394788Y-84170879D01*
G37*
%TD.AperFunction*%
%TD*%
M02*
